<?xml version="1.0" standalone="no"?>
<!DOCTYPE svg PUBLIC "-//W3C//DTD SVG 1.1//EN" "http://www.w3.org/Graphics/SVG/1.1/DTD/svg11.dtd" >
<svg xmlns="http://www.w3.org/2000/svg" xmlns:xlink="http://www.w3.org/1999/xlink" version="1.1">
<metadata>
Created by FontForge 20170731 at Wed Nov  7 15:27:13 2012
 By Aleksey,,,
Published by Die Gestalten Verlag GmbH &#38; Co. KG, 2008
Copyright (c) by Binnenland, 2006, Designed by Mika Mischler / 2002-2006 All rights reserved. This software may not be reproduced, used, displayed, modified, disclosed or transferred without the express written approval of (Binnenland).
</metadata>
<defs>
<font id="TSTARPRO-Headline" horiz-adv-x="1133" >
  <font-face 
    font-family="TSTAR PRO Headline"
    font-weight="900"
    font-stretch="normal"
    units-per-em="2048"
    panose-1="2 0 8 6 3 0 0 2 0 4"
    ascent="1585"
    descent="-463"
    cap-height="1458"
    bbox="-81 -439 2101 2001"
    underline-thickness="104"
    underline-position="-389"
    unicode-range="U+0020-2265"
  />
<missing-glyph horiz-adv-x="2048" 
 />
    <glyph glyph-name=".notdef" horiz-adv-x="2048" 
 />
    <glyph glyph-name=".null" horiz-adv-x="0" 
 />
    <glyph glyph-name="nonmarkingreturn" horiz-adv-x="451" 
 />
    <glyph glyph-name="space" unicode=" " horiz-adv-x="451" 
 />
    <glyph glyph-name="space" unicode="&#xa0;" horiz-adv-x="451" 
 />
    <glyph glyph-name="exclam" unicode="!" horiz-adv-x="608" 
d="M176 442v1018h256v-1018h-256zM147 0v315h314v-315h-314z" />
    <glyph glyph-name="quotedbl" unicode="&#x22;" horiz-adv-x="758" 
d="M147 1053v366h193v-366h-193zM420 1053v366h190v-366h-190z" />
    <glyph glyph-name="numbersign" unicode="#" horiz-adv-x="1331" 
d="M969 799l-27 -162h184v-209h-215l-63 -391h-213l57 391h-157l-68 -391h-217l63 391h-166v209h199l29 162h-168v207h194l62 358h219l-57 -358h157l64 358h215l-62 -358h185v-207h-215zM592 799l-29 -162h162l29 162h-162z" />
    <glyph glyph-name="dollar" unicode="$" horiz-adv-x="1085" 
d="M997 403q0 -76 -25 -142.5t-69 -119.5t-106 -90t-135 -55v-160h-252v162q-75 18 -134.5 59t-101 99t-64 131t-22.5 155h264q0 -48 14 -84.5t38.5 -61t58 -37.5t72.5 -13q46 0 83 12t63 33.5t40 51t14 65.5q0 55 -28.5 91.5t-71.5 61.5q-42 25 -118 63.5t-198 100.5
q-44 22 -82 57.5t-66 81t-44 99t-16 110.5q0 72 21 134t60 111.5t94 84t124 51.5v160h252v-158q73 -19 132 -59t100.5 -96.5t64 -128t22.5 -152.5h-268q0 45 -13 80t-36.5 59t-55.5 36.5t-69 12.5q-34 0 -63.5 -9t-52 -26.5t-35.5 -43.5t-13 -60q0 -37 22 -67t64 -52
q66 -34 113 -58t81.5 -41t59 -30t45.5 -24q117 -63 177 -163.5t60 -230.5z" />
    <glyph glyph-name="percent" unicode="%" horiz-adv-x="1782" 
d="M1634 301q0 -65 -21 -117t-59 -89t-92.5 -57t-120.5 -20q-65 0 -118.5 19.5t-91.5 56.5t-59 89.5t-21 117.5v191q0 66 21 119t59 90.5t91.5 58t118.5 20.5q66 0 120.5 -20t92.5 -57.5t59 -90.5t21 -120v-191zM780 0h-235l459 1407h233zM729 913q0 -65 -21 -117
t-59.5 -89.5t-92 -57.5t-118.5 -20q-67 0 -120.5 20t-91.5 57t-58.5 89.5t-20.5 117.5v193q0 64 20.5 117t59 91t92 58.5t119.5 20.5t119.5 -20.5t92 -58t59 -90.5t20.5 -118v-193zM1413 492q0 12 -3 24.5t-10.5 22t-22 16t-36.5 6.5q-69 0 -69 -69v-191q0 -11 2.5 -23
t10 -22t21 -16.5t35.5 -6.5q36 0 54 18t18 50v191zM510 1106q0 12 -3 23.5t-10.5 20.5t-22 15t-36.5 6q-69 0 -69 -65v-193q0 -11 2.5 -23t10 -22t21 -16t35.5 -6q35 0 53.5 18t18.5 49v193z" />
    <glyph glyph-name="ampersand" unicode="&#x26;" horiz-adv-x="1358" 
d="M586 250q28 0 58.5 7.5t57 24.5t45.5 46t25 73q-68 59 -130 110.5t-122 102.5q-66 -42 -95.5 -87t-29.5 -101q0 -52 17.5 -86t45.5 -54t62 -28t66 -8zM745 1079q0 39 -13 63.5t-33.5 37.5t-46.5 17.5t-52 4.5t-52 -4.5t-46.5 -17.5t-33.5 -37.5t-13 -63.5q0 -21 5 -37.5
t14.5 -30.5t22.5 -26.5t29 -26.5q14 -12 48 -40t80 -67t101 -85t111.5 -94t112 -94.5t102 -86t80.5 -68.5t49 -42l-170 -213l-49 47q-31 -62 -76.5 -106t-99.5 -72t-113 -40.5t-116 -12.5q-53 0 -108 10t-106 32t-95.5 57t-78 84t-52.5 114t-19 147q0 115 52 205.5
t143 157.5q-38 34 -64 67.5t-42 69.5t-23 74t-7 81q0 107 40 180.5t101 119t134 65.5t139 20t139 -20.5t134 -67t101 -120.5t40 -181h-269z" />
    <glyph glyph-name="quotesingle" unicode="'" horiz-adv-x="522" 
d="M147 1014v391h228v-391h-228z" />
    <glyph glyph-name="parenleft" unicode="(" horiz-adv-x="651" 
d="M362 -186q-70 64 -112 112.5t-65 91.5t-30.5 87t-7.5 100v985q0 51 7 92t26 80.5t53.5 82t90.5 97.5l38 39l140 -164q-35 -44 -58 -70.5t-37 -44t-21 -28.5t-9.5 -23t-2 -28t0.5 -43l-2 -965q0 -38 2.5 -60.5t15 -45t39 -51.5t74.5 -78z" />
    <glyph glyph-name="parenright" unicode=")" horiz-adv-x="657" 
d="M510 205q0 -45 -3 -82.5t-19.5 -77.5t-52 -87t-101.5 -110l-37 -34l-150 170q51 44 79 71.5t41.5 50t16.5 47t3 62.5v965q0 42 -8 71t-22 51t-32.5 41t-38.5 41q-2 3 -7 7.5t-10.5 9t-9.5 8.5t-5 6l145 160l33 -31q57 -53 91.5 -96.5t54 -85t26 -83t6.5 -89.5v-985z" />
    <glyph glyph-name="asterisk" unicode="*" horiz-adv-x="1214" 
d="M854 766l-154 92l9 -178h-207l4 176l-150 -90l-102 178l149 82q-37 20 -76 43.5t-73 40.5l102 180l150 -90q0 41 -2 89.5t-2 86.5h207l-9 -180l154 94l102 -182l-147 -80q37 -20 78.5 -42.5t73.5 -39.5z" />
    <glyph glyph-name="plus" unicode="+" horiz-adv-x="1139" 
d="M676 465v-336h-219v336h-322v217h322v313h219v-313h325v-217h-325z" />
    <glyph glyph-name="comma" unicode="," horiz-adv-x="686" 
d="M217 -227h-182l190 510h314z" />
    <glyph glyph-name="hyphen" unicode="-" horiz-adv-x="938" 
d="M147 465v217h644v-217h-644z" />
    <glyph glyph-name="period" unicode="." horiz-adv-x="567" 
d="M139 0v289h289v-289h-289z" />
    <glyph glyph-name="slash" unicode="/" horiz-adv-x="1049" 
d="M379 -98h-232l527 1607h227z" />
    <glyph glyph-name="zero" unicode="0" horiz-adv-x="1073" 
d="M946 393q0 -34 -6.5 -77.5t-23.5 -88.5t-47 -89t-76 -78t-111 -55t-152 -21q-84 0 -146.5 21t-107.5 55.5t-74 78.5t-46.5 89.5t-24 89t-6.5 77.5v668q0 33 7 76t24.5 88.5t47.5 89t76 77.5t110 55t149 21t148.5 -21t109 -55t74.5 -78t45.5 -89t23 -88.5t6.5 -77.5v-668z
M680 1059q0 48 -15 77t-37 44t-47 19.5t-44 4.5q-20 0 -45 -4.5t-47.5 -19.5t-38 -44t-15.5 -77v-662q0 -48 15.5 -76.5t38 -44.5t47.5 -21t45 -5q19 0 44 5t47 21t37 44.5t15 76.5v662z" />
    <glyph glyph-name="one" unicode="1" horiz-adv-x="1085" 
d="M145 0v266h265v924l-193 -16v260l459 39v-1207h270v-266h-801z" />
    <glyph glyph-name="two" unicode="2" horiz-adv-x="1063" 
d="M100 0v340q0 56 15.5 105t42 91.5t61.5 79t74 68.5q40 34 84.5 61.5t89.5 53.5t89.5 53.5t86.5 62.5q28 25 39.5 60.5t11.5 71.5q0 78 -43 117.5t-121 39.5q-20 0 -47 -7.5t-52 -31t-43 -67t-19 -115.5h-267q0 42 8.5 94.5t28.5 106.5t52.5 105.5t80 91.5t111.5 64.5
t147 24.5q95 0 174.5 -31t137 -86.5t89.5 -133t32 -170.5q0 -97 -36 -183t-110 -149q-42 -35 -88.5 -64t-94.5 -57.5t-94.5 -58t-88.5 -64.5q-36 -28 -60 -62.5t-24 -80.5v-64h596v-266h-863z" />
    <glyph glyph-name="three" unicode="3" horiz-adv-x="1069" 
d="M711 899q70 -27 118 -71t78 -94.5t43 -102t13 -94.5v-136q0 -35 -8.5 -79.5t-28.5 -90.5t-52.5 -90.5t-80.5 -79.5t-112.5 -56t-148.5 -21q-86 0 -150.5 21.5t-112.5 57t-79.5 82t-50.5 97t-27 101.5t-8 95h267q0 -60 17 -96.5t42 -57t52 -27.5t48 -7q22 0 50 5.5t53 22
t42 46t17 77.5v131q0 46 -18 73.5t-43.5 41.5t-53.5 18.5t-49 4.5h-137v200l205 322h-438v266h776v-219z" />
    <glyph glyph-name="four" unicode="4" horiz-adv-x="1090" 
d="M700 0v375h-581v219l319 864h277l-301 -817h286v494h271v-1135h-271z" />
    <glyph glyph-name="five" unicode="5" horiz-adv-x="1063" 
d="M969 408q0 -93 -35.5 -171t-96 -134t-140.5 -87.5t-169 -31.5t-168 32.5t-138.5 91.5t-94.5 141.5t-35 182.5h266q0 -41 12 -74.5t34 -57.5t53.5 -37t70.5 -13q34 0 65.5 10t55.5 30t38.5 49.5t14.5 68.5v122q0 31 -10.5 60.5t-31.5 52t-53 36t-75 13.5h-387v203l41 563
h717v-266h-469l-16 -236h119q85 0 163 -30t138 -85.5t95.5 -133t35.5 -172.5v-127z" />
    <glyph glyph-name="six" unicode="6" horiz-adv-x="1075" 
d="M692 559q0 48 -18 76.5t-43.5 44t-53.5 20.5t-49 5q-19 0 -46 -5t-51.5 -20.5t-42 -44t-17.5 -76.5v-164q0 -46 17.5 -75t42 -45t51.5 -21.5t46 -5.5q21 0 49 5t53.5 21t43.5 44.5t18 76.5v164zM702 1059q0 48 -17.5 76t-43 42.5t-54 18.5t-50.5 4q-23 0 -51.5 -5
t-54 -20t-43 -43.5t-17.5 -76.5v-123q37 17 81 28t85 11q84 0 148 -20.5t111.5 -54t79.5 -76.5t51 -88.5t27.5 -90t8.5 -80.5v-172q0 -33 -8 -75.5t-27 -87.5t-51.5 -88.5t-80.5 -77.5t-114.5 -55t-153.5 -21q-82 0 -145.5 20.5t-110.5 54.5t-79 77t-52 87.5t-28.5 87.5
t-8.5 76v672q0 33 8.5 76t28.5 88.5t52.5 89t81 77.5t113.5 55t149 21t149 -21t113 -55t80.5 -77.5t52.5 -89t28.5 -88.5t8.5 -76h-267z" />
    <glyph glyph-name="seven" unicode="7" horiz-adv-x="1061" 
d="M526 0h-284l434 1192h-592v266h893v-203z" />
    <glyph glyph-name="eight" unicode="8" horiz-adv-x="1083" 
d="M995 434q0 -41 -8.5 -90.5t-28.5 -99.5t-53.5 -96.5t-83.5 -83t-119 -58.5t-159 -22q-89 0 -157.5 22t-119 58.5t-85 83t-55 96.5t-29.5 99.5t-9 90.5q0 34 8 75t25.5 83.5t45.5 83.5t69 74q-32 30 -57 65.5t-42 74t-26 77.5t-9 75q0 40 8 87.5t27.5 95t52.5 91.5
t82 77.5t116 54t155 20.5q85 0 151 -20.5t114.5 -54t81.5 -77.5t53.5 -91.5t29 -95t8.5 -87.5q0 -34 -8.5 -72.5t-26 -77t-43.5 -75.5t-61 -67q42 -33 71 -74t47.5 -83.5t26.5 -83.5t8 -75zM725 434q0 42 -14.5 75.5t-39 56t-58 34.5t-70.5 12q-39 0 -73 -12t-59 -35
t-39 -56t-14 -75q0 -59 20.5 -95.5t49.5 -56t60.5 -26t54.5 -6.5q21 0 52.5 6.5t60 26t49 56t20.5 95.5zM711 1042q0 52 -19 83.5t-45.5 48.5t-55 22.5t-48.5 5.5q-21 0 -50.5 -5.5t-56.5 -22.5t-46 -48.5t-19 -83.5q0 -38 13 -68.5t36 -51.5t54.5 -32t68.5 -11t67.5 11.5
t53 32.5t35 51t12.5 68z" />
    <glyph glyph-name="nine" unicode="9" horiz-adv-x="1075" 
d="M698 1059q0 48 -17 76t-41.5 43t-51.5 19.5t-47 4.5t-48 -4.5t-53.5 -19.5t-44 -43t-18.5 -76v-162q0 -49 18.5 -78.5t44 -45t53.5 -20.5t48 -5t47 5t51.5 20.5t41.5 45t17 78.5v162zM698 522q-37 -15 -82 -28t-84 -13q-84 0 -147.5 21.5t-110.5 56t-78 79t-50 90.5
t-27 89.5t-8 77.5v166q0 33 8 76t27.5 88.5t51.5 89t79.5 77.5t112.5 55t151 21q84 0 148.5 -20.5t112 -54.5t79.5 -77t51.5 -87.5t28 -87.5t8.5 -76v-672q0 -33 -8.5 -76t-28.5 -88.5t-52.5 -89t-80.5 -77.5t-113 -55t-149 -21q-85 0 -149.5 21t-113 55t-81 77.5t-52.5 89
t-28.5 88.5t-8.5 76h267q0 -48 17.5 -76t43 -42.5t54 -18.5t51.5 -4q22 0 50 5t52.5 20t41.5 43.5t17 76.5v125z" />
    <glyph glyph-name="colon" unicode=":" horiz-adv-x="567" 
d="M139 0v289h289v-289h-289zM139 596v289h289v-289h-289z" />
    <glyph glyph-name="semicolon" unicode=";" horiz-adv-x="614" 
d="M160 -227h-183l181 510h321zM158 596v289h288v-289h-288z" />
    <glyph glyph-name="less" unicode="&#x3c;" horiz-adv-x="1145" 
d="M684 0l-537 537l531 536h313l-532 -536l538 -537h-313z" />
    <glyph glyph-name="equal" unicode="=" horiz-adv-x="1208" 
d="M221 659v215h766v-215h-766zM221 309v215h766v-215h-766z" />
    <glyph glyph-name="greater" unicode="&#x3e;" horiz-adv-x="1147" 
d="M459 0h-312l537 537l-530 536h311l534 -536z" />
    <glyph glyph-name="question" unicode="?" horiz-adv-x="928" 
d="M893 1047q0 -63 -18 -116t-47.5 -98t-67 -82.5t-76.5 -68.5q-22 -18 -44.5 -34t-40.5 -36.5t-29 -48t-11 -67.5v-54h-268v47q0 45 8.5 85.5t22 76t31.5 65t36 50.5q26 30 66.5 58.5t78.5 60.5t65.5 70.5t27.5 88.5q0 81 -41.5 121.5t-118.5 40.5q-19 0 -46.5 -8t-53 -32
t-45 -68.5t-23.5 -118.5h-264q0 42 8.5 95t28.5 107.5t53 106t81 91.5t112.5 64.5t148.5 24.5q94 0 172.5 -31t135 -86.5t87.5 -133t31 -170.5zM272 0v315h314v-315h-314z" />
    <glyph glyph-name="at" unicode="@" horiz-adv-x="1305" 
d="M920 37v51q-8 -9 -21.5 -18.5t-30.5 -16.5t-36 -11.5t-37 -4.5q-59 0 -111.5 17t-91.5 52t-61.5 88t-22.5 125v373q0 72 24 125t64.5 88t93.5 52.5t111 17.5q31 0 61 -13t45 -30v127q0 65 -24 108.5t-61 69.5t-82 36.5t-87 10.5q-41 0 -87 -11.5t-84.5 -38t-63.5 -70.5
t-25 -109v-1075q0 -43 13 -74.5t34.5 -54t49.5 -37.5t56.5 -23.5t56.5 -12t50 -3.5v-195q-91 0 -159.5 20t-118.5 52t-83.5 73t-53.5 84.5t-28.5 86t-8.5 77.5v1090q0 32 8 74.5t27.5 87.5t52.5 89t83 78.5t119.5 56t161.5 21.5q91 0 159.5 -21.5t118.5 -56t83.5 -78.5
t53.5 -89.5t28 -88.5t8 -75v-1024h-184zM907 690q0 27 -10 46t-26 31.5t-35.5 18t-38.5 5.5q-44 0 -74.5 -25t-30.5 -82v-356q0 -56 30.5 -80.5t72.5 -24.5q22 0 42.5 5.5t36 18.5t24.5 32.5t9 48.5v362z" />
    <glyph glyph-name="A" unicode="A" horiz-adv-x="1169" 
d="M862 0l-86 334h-381l-86 -334h-274l383 1458h327l390 -1458h-273zM588 1063l-129 -467h252z" />
    <glyph glyph-name="B" unicode="B" horiz-adv-x="1149" 
d="M1032 414q0 -33 -6.5 -76.5t-24 -89.5t-47.5 -90.5t-77 -79.5t-112 -56.5t-153 -21.5h-465v1458h455q88 0 152.5 -21t110.5 -54.5t75 -77t45.5 -89t22.5 -88.5t6 -77v-25q0 -32 -9.5 -70t-28 -75t-46.5 -70t-64 -57q39 -25 69.5 -58.5t52 -71.5t33 -80t11.5 -83v-47z
M745 1049q0 49 -15 78t-37.5 44t-48 19t-46.5 4h-184v-313h196q22 0 46 5t44 21t32.5 45.5t12.5 77.5v19zM770 459q0 51 -15 82t-37.5 48t-49 23t-50.5 6h-204v-352h194q22 0 50 5t53 21t42 46t17 80v41z" />
    <glyph glyph-name="C" unicode="C" horiz-adv-x="1094" 
d="M1006 442q0 -45 -8.5 -96t-28.5 -102t-53 -98.5t-82 -84t-115.5 -58t-153.5 -21.5q-86 0 -151.5 21.5t-114 57t-81.5 81t-53.5 92.5t-29 92t-8.5 80v651q0 34 8 77.5t27.5 89t52.5 89.5t81.5 78.5t115.5 55.5t155 21q84 0 149.5 -23t114.5 -61t82.5 -86t54 -98.5
t29.5 -98.5t9 -85h-269q0 62 -19 99.5t-46 57.5t-56 26.5t-49 6.5q-21 0 -51.5 -5t-58 -21t-47 -46t-19.5 -81v-647q0 -52 19.5 -83t47 -47.5t58 -22t51.5 -5.5q20 0 49 6.5t56 27t46 58.5t19 102h269z" />
    <glyph glyph-name="D" unicode="D" horiz-adv-x="1149" 
d="M1022 418q0 -34 -6.5 -78.5t-23.5 -91t-47 -91t-75.5 -79.5t-109.5 -56.5t-150 -21.5h-463v1460h455q88 0 153.5 -21.5t112 -56.5t76.5 -79.5t47.5 -91t24 -90.5t6.5 -77v-626zM760 1038q0 52 -16.5 83t-40.5 47.5t-51.5 22t-49.5 5.5h-190v-932h194q22 0 48.5 5.5t50 22
t39.5 47t16 81.5v618z" />
    <glyph glyph-name="E" unicode="E" horiz-adv-x="1077" 
d="M147 0v1458h844v-264h-579v-295h536v-264h-536v-371h579v-264h-844z" />
    <glyph glyph-name="F" unicode="F" horiz-adv-x="1057" 
d="M412 1194v-297h536v-264h-536v-633h-265v1458h844v-264h-579z" />
    <glyph glyph-name="G" unicode="G" 
d="M1006 403q0 -35 -9 -79.5t-29.5 -91.5t-54 -92t-82.5 -80t-115.5 -56.5t-152.5 -21.5t-151.5 21.5t-113.5 57t-81 81t-53 92.5t-28.5 92t-8.5 80v651q0 34 8 77.5t27.5 89t52.5 89.5t81.5 78.5t115.5 55.5t155 21q84 0 149.5 -22t114.5 -59t82.5 -84.5t54 -97.5t29.5 -99
t9 -90h-269q0 61 -19 98.5t-46 57t-56 26t-49 6.5q-21 0 -51.5 -5t-58 -20.5t-47 -45.5t-19.5 -80v-647q0 -52 19.5 -82.5t47 -47t58 -21.5t51.5 -5q20 0 49 5t56 21.5t46 47t19 82.5v186h-213v266h482v-455z" />
    <glyph glyph-name="H" unicode="H" horiz-adv-x="1198" 
d="M782 0v629h-368v-629h-267v1458h267v-563h368v563h269v-1458h-269z" />
    <glyph glyph-name="I" unicode="I" horiz-adv-x="561" 
d="M414 1458v-1458h-267v1458h267z" />
    <glyph glyph-name="J" unicode="J" horiz-adv-x="965" 
d="M827 401q0 -99 -26.5 -177t-78 -131.5t-126 -82t-170.5 -28.5q-95 0 -169.5 33.5t-126 93.5t-78.5 144.5t-27 186.5h266q0 -62 13 -99.5t33.5 -58t44.5 -27.5t46 -7q21 0 45 5.5t44 20.5t33 42.5t13 72.5v805h-399v264h663v-1057z" />
    <glyph glyph-name="K" unicode="K" horiz-adv-x="1137" 
d="M786 0l-321 561l-51 -74v-487h-267v1458h267v-528l358 528h311l-462 -661l481 -797h-316z" />
    <glyph glyph-name="L" unicode="L" horiz-adv-x="1004" 
d="M147 0v1458h265v-1194h577v-264h-842z" />
    <glyph glyph-name="M" unicode="M" horiz-adv-x="1364" 
d="M147 0v1458h281l252 -608l250 608h287v-1458h-267v856l-176 -444h-184l-174 446v-858h-269z" />
    <glyph glyph-name="N" unicode="N" horiz-adv-x="1180" 
d="M758 0l-344 807v-807h-267v1458h271l352 -823v823h262v-1458h-274z" />
    <glyph glyph-name="O" unicode="O" 
d="M1006 403q0 -35 -8.5 -79.5t-28.5 -91.5t-53 -92t-82 -80t-115.5 -56.5t-153.5 -21.5q-86 0 -151.5 21.5t-114 57t-81.5 81t-53.5 92.5t-29 92t-8.5 80v651q0 34 8 77.5t27.5 89t52.5 89.5t81.5 78.5t115.5 55.5t155 21q84 0 149.5 -21t114.5 -55.5t82.5 -78.5t54 -90
t29.5 -90t9 -78v-652zM737 1053q0 51 -19 81t-46 46t-56 21t-49 5q-21 0 -51.5 -5t-58 -21t-47 -46t-19.5 -81v-647q0 -52 19.5 -83t47 -47.5t58 -22t51.5 -5.5q20 0 49 5.5t56 22t46 47.5t19 83v647z" />
    <glyph glyph-name="P" unicode="P" horiz-adv-x="1098" 
d="M1022 946q0 -35 -6.5 -79.5t-23.5 -91t-47 -91.5t-75.5 -80t-109.5 -56.5t-150 -21.5h-198v-526h-265v1458h455q88 0 153.5 -21.5t112 -56.5t76.5 -79.5t47.5 -91t24 -90t6.5 -77.5v-96zM760 1038q0 51 -17 81.5t-42 47t-53 22t-50 5.5h-186v-403h190q22 0 49.5 5
t51.5 21.5t40.5 47.5t16.5 83v90z" />
    <glyph glyph-name="Q" unicode="Q" 
d="M475 -10q-68 11 -120 37t-90.5 61.5t-65 78t-42.5 85t-23 82.5t-7 72v651q0 34 8 77.5t27.5 89t52.5 89.5t81.5 78.5t115.5 55.5t155 21q84 0 149.5 -21t114.5 -55.5t82.5 -78.5t54 -90t29.5 -90t9 -78v-652q0 -32 -7 -72t-23 -82.5t-42.5 -84.5t-66 -77.5t-92.5 -61.5
t-122 -37v-185h-178v187zM737 1053q0 51 -19 81t-46 46t-56 21t-49 5q-21 0 -51.5 -5t-58 -21t-47 -46t-19.5 -81v-647q0 -60 25 -92t59 -48v240h178v-242q16 8 31 20t27 29t19 40t7 53v647z" />
    <glyph glyph-name="R" unicode="R" horiz-adv-x="1145" 
d="M797 0l-265 563h-118v-563h-267v1458h457q88 0 154 -21.5t113 -56t77.5 -79t48 -90.5t24.5 -90t7 -77v-63q0 -39 -9 -91t-33 -105.5t-67 -102t-110 -80.5l287 -602h-299zM760 1038q0 51 -17 81.5t-41.5 47t-52.5 22t-49 5.5h-186v-367h190q22 0 49 5t51 21.5t40 47.5
t16 82v55z" />
    <glyph glyph-name="S" unicode="S" horiz-adv-x="1085" 
d="M997 403q0 -91 -35.5 -168t-97 -133.5t-146 -88t-181.5 -31.5q-102 0 -185 35t-141.5 96.5t-90.5 146t-32 182.5h264q0 -48 14 -84.5t38.5 -61t58 -37.5t72.5 -13q46 0 83 12t63 33.5t40 51t14 65.5q0 55 -28.5 91.5t-71.5 61.5q-42 25 -118 63.5t-198 100.5
q-44 22 -82 57.5t-66 81t-44 99t-16 110.5q0 88 31.5 161t88 125.5t135 81.5t173.5 29q98 0 179.5 -34t140 -94t90.5 -142.5t32 -179.5h-268q0 45 -13 80t-36.5 59t-55.5 36.5t-69 12.5q-34 0 -63.5 -9t-52 -26.5t-35.5 -43.5t-13 -60q0 -37 22 -67t64 -52q66 -34 113 -58
t81.5 -41t59 -30t45.5 -24q117 -63 177 -163.5t60 -230.5z" />
    <glyph glyph-name="T" unicode="T" horiz-adv-x="991" 
d="M627 1192v-1192h-265v1192h-325v266h917v-266h-327z" />
    <glyph glyph-name="U" unicode="U" 
d="M1006 403q0 -37 -8 -82.5t-27.5 -92t-52 -91t-81 -79t-115.5 -55.5t-155 -21t-155 21t-115.5 56t-81.5 79.5t-52.5 91.5t-27.5 93t-8 83v1052h266v-1052q0 -52 19 -83t46.5 -47.5t57.5 -22t51 -5.5t50.5 5.5t56.5 22t46 47.5t19 83v1052h267v-1055z" />
    <glyph glyph-name="V" unicode="V" horiz-adv-x="1130" 
d="M1094 1458l-361 -1458h-330l-366 1458h268l258 -1067l264 1067h267z" />
    <glyph glyph-name="W" unicode="W" horiz-adv-x="1618" 
d="M1278 0h-254l-213 846l-219 -846h-252l-303 1458h274l174 -897l226 895h194l225 -895l175 897h276z" />
    <glyph glyph-name="X" unicode="X" horiz-adv-x="1130" 
d="M786 0l-221 449l-221 -449h-307l377 731l-375 727h303l221 -446l230 446h297l-377 -723l381 -735h-308z" />
    <glyph glyph-name="Y" unicode="Y" horiz-adv-x="1106" 
d="M686 528v-528h-266v532l-383 926h291l225 -563l227 563h289z" />
    <glyph glyph-name="Z" unicode="Z" horiz-adv-x="958" 
d="M45 0v209l520 985h-491v264h811v-205l-518 -989h546v-264h-868z" />
    <glyph glyph-name="bracketleft" unicode="[" horiz-adv-x="672" 
d="M147 -152v1670h377v-213h-159v-1242h159v-215h-377z" />
    <glyph glyph-name="backslash" unicode="\" horiz-adv-x="1047" 
d="M674 -102l-527 1607h230l522 -1607h-225z" />
    <glyph glyph-name="bracketright" unicode="]" horiz-adv-x="672" 
d="M147 -152v215h160v1242h-160v213h377v-1670h-377z" />
    <glyph glyph-name="asciicircum" unicode="^" horiz-adv-x="1094" 
d="M700 782l-151 275l-150 -275h-252l314 580h180l305 -580h-246z" />
    <glyph glyph-name="underscore" unicode="_" horiz-adv-x="1030" 
d="M-25 -295v207h1080v-207h-1080z" />
    <glyph glyph-name="grave" unicode="`" horiz-adv-x="754" 
d="M381 1065l-234 391h269l190 -391h-225z" />
    <glyph glyph-name="a" unicode="a" horiz-adv-x="1169" 
d="M35 0zM862 0l-86 334h-381l-86 -334h-274l383 1458h327l390 -1458h-273zM588 1063l-129 -467h252z" />
    <glyph glyph-name="b" unicode="b" horiz-adv-x="1149" 
d="M147 0zM1032 414q0 -33 -6.5 -76.5t-24 -89.5t-47.5 -90.5t-77 -79.5t-112 -56.5t-153 -21.5h-465v1458h455q88 0 152.5 -21t110.5 -54.5t75 -77t45.5 -89t22.5 -88.5t6 -77v-25q0 -32 -9.5 -70t-28 -75t-46.5 -70t-64 -57q39 -25 69.5 -58.5t52 -71.5t33 -80t11.5 -83
v-47zM745 1049q0 49 -15 78t-37.5 44t-48 19t-46.5 4h-184v-313h196q22 0 46 5t44 21t32.5 45.5t12.5 77.5v19zM770 459q0 51 -15 82t-37.5 48t-49 23t-50.5 6h-204v-352h194q22 0 50 5t53 21t42 46t17 80v41z" />
    <glyph glyph-name="c" unicode="c" horiz-adv-x="1094" 
d="M127 0zM1006 442q0 -45 -8.5 -96t-28.5 -102t-53 -98.5t-82 -84t-115.5 -58t-153.5 -21.5q-86 0 -151.5 21.5t-114 57t-81.5 81t-53.5 92.5t-29 92t-8.5 80v651q0 34 8 77.5t27.5 89t52.5 89.5t81.5 78.5t115.5 55.5t155 21q84 0 149.5 -23t114.5 -61t82.5 -86t54 -98.5
t29.5 -98.5t9 -85h-269q0 62 -19 99.5t-46 57.5t-56 26.5t-49 6.5q-21 0 -51.5 -5t-58 -21t-47 -46t-19.5 -81v-647q0 -52 19.5 -83t47 -47.5t58 -22t51.5 -5.5q20 0 49 6.5t56 27t46 58.5t19 102h269z" />
    <glyph glyph-name="d" unicode="d" horiz-adv-x="1149" 
d="M147 0zM1022 418q0 -34 -6.5 -78.5t-23.5 -91t-47 -91t-75.5 -79.5t-109.5 -56.5t-150 -21.5h-463v1460h455q88 0 153.5 -21.5t112 -56.5t76.5 -79.5t47.5 -91t24 -90.5t6.5 -77v-626zM760 1038q0 52 -16.5 83t-40.5 47.5t-51.5 22t-49.5 5.5h-190v-932h194
q22 0 48.5 5.5t50 22t39.5 47t16 81.5v618z" />
    <glyph glyph-name="e" unicode="e" horiz-adv-x="1077" 
d="M147 0zM147 0v1458h844v-264h-579v-295h536v-264h-536v-371h579v-264h-844z" />
    <glyph glyph-name="f" unicode="f" horiz-adv-x="1057" 
d="M147 0zM412 1194v-297h536v-264h-536v-633h-265v1458h844v-264h-579z" />
    <glyph glyph-name="g" unicode="g" 
d="M127 0zM1006 403q0 -35 -9 -79.5t-29.5 -91.5t-54 -92t-82.5 -80t-115.5 -56.5t-152.5 -21.5t-151.5 21.5t-113.5 57t-81 81t-53 92.5t-28.5 92t-8.5 80v651q0 34 8 77.5t27.5 89t52.5 89.5t81.5 78.5t115.5 55.5t155 21q84 0 149.5 -22t114.5 -59t82.5 -84.5t54 -97.5
t29.5 -99t9 -90h-269q0 61 -19 98.5t-46 57t-56 26t-49 6.5q-21 0 -51.5 -5t-58 -20.5t-47 -45.5t-19.5 -80v-647q0 -52 19.5 -82.5t47 -47t58 -21.5t51.5 -5q20 0 49 5t56 21.5t46 47t19 82.5v186h-213v266h482v-455z" />
    <glyph glyph-name="h" unicode="h" horiz-adv-x="1198" 
d="M147 0zM782 0v629h-368v-629h-267v1458h267v-563h368v563h269v-1458h-269z" />
    <glyph glyph-name="i" unicode="i" horiz-adv-x="561" 
d="M147 0zM414 1458v-1458h-267v1458h267z" />
    <glyph glyph-name="j" unicode="j" horiz-adv-x="965" 
d="M25 0zM827 401q0 -99 -26.5 -177t-78 -131.5t-126 -82t-170.5 -28.5q-95 0 -169.5 33.5t-126 93.5t-78.5 144.5t-27 186.5h266q0 -62 13 -99.5t33.5 -58t44.5 -27.5t46 -7q21 0 45 5.5t44 20.5t33 42.5t13 72.5v805h-399v264h663v-1057z" />
    <glyph glyph-name="k" unicode="k" horiz-adv-x="1137" 
d="M147 0zM786 0l-321 561l-51 -74v-487h-267v1458h267v-528l358 528h311l-462 -661l481 -797h-316z" />
    <glyph glyph-name="l" unicode="l" horiz-adv-x="1004" 
d="M147 0zM147 0v1458h265v-1194h577v-264h-842z" />
    <glyph glyph-name="m" unicode="m" horiz-adv-x="1364" 
d="M147 0zM147 0v1458h281l252 -608l250 608h287v-1458h-267v856l-176 -444h-184l-174 446v-858h-269z" />
    <glyph glyph-name="n" unicode="n" horiz-adv-x="1180" 
d="M147 0zM758 0l-344 807v-807h-267v1458h271l352 -823v823h262v-1458h-274z" />
    <glyph glyph-name="o" unicode="o" 
d="M127 0zM1006 403q0 -35 -8.5 -79.5t-28.5 -91.5t-53 -92t-82 -80t-115.5 -56.5t-153.5 -21.5q-86 0 -151.5 21.5t-114 57t-81.5 81t-53.5 92.5t-29 92t-8.5 80v651q0 34 8 77.5t27.5 89t52.5 89.5t81.5 78.5t115.5 55.5t155 21q84 0 149.5 -21t114.5 -55.5t82.5 -78.5
t54 -90t29.5 -90t9 -78v-652zM737 1053q0 51 -19 81t-46 46t-56 21t-49 5q-21 0 -51.5 -5t-58 -21t-47 -46t-19.5 -81v-647q0 -52 19.5 -83t47 -47.5t58 -22t51.5 -5.5q20 0 49 5.5t56 22t46 47.5t19 83v647z" />
    <glyph glyph-name="p" unicode="p" horiz-adv-x="1098" 
d="M147 0zM1022 946q0 -35 -6.5 -79.5t-23.5 -91t-47 -91.5t-75.5 -80t-109.5 -56.5t-150 -21.5h-198v-526h-265v1458h455q88 0 153.5 -21.5t112 -56.5t76.5 -79.5t47.5 -91t24 -90t6.5 -77.5v-96zM760 1038q0 51 -17 81.5t-42 47t-53 22t-50 5.5h-186v-403h190q22 0 49.5 5
t51.5 21.5t40.5 47.5t16.5 83v90z" />
    <glyph glyph-name="q" unicode="q" 
d="M127 0zM475 -10q-68 11 -120 37t-90.5 61.5t-65 78t-42.5 85t-23 82.5t-7 72v651q0 34 8 77.5t27.5 89t52.5 89.5t81.5 78.5t115.5 55.5t155 21q84 0 149.5 -21t114.5 -55.5t82.5 -78.5t54 -90t29.5 -90t9 -78v-652q0 -32 -7 -72t-23 -82.5t-42.5 -84.5t-66 -77.5
t-92.5 -61.5t-122 -37v-185h-178v187zM737 1053q0 51 -19 81t-46 46t-56 21t-49 5q-21 0 -51.5 -5t-58 -21t-47 -46t-19.5 -81v-647q0 -60 25 -92t59 -48v240h178v-242q16 8 31 20t27 29t19 40t7 53v647z" />
    <glyph glyph-name="r" unicode="r" horiz-adv-x="1145" 
d="M147 0zM797 0l-265 563h-118v-563h-267v1458h457q88 0 154 -21.5t113 -56t77.5 -79t48 -90.5t24.5 -90t7 -77v-63q0 -39 -9 -91t-33 -105.5t-67 -102t-110 -80.5l287 -602h-299zM760 1038q0 51 -17 81.5t-41.5 47t-52.5 22t-49 5.5h-186v-367h190q22 0 49 5t51 21.5
t40 47.5t16 82v55z" />
    <glyph glyph-name="s" unicode="s" horiz-adv-x="1085" 
d="M88 0zM997 403q0 -91 -35.5 -168t-97 -133.5t-146 -88t-181.5 -31.5q-102 0 -185 35t-141.5 96.5t-90.5 146t-32 182.5h264q0 -48 14 -84.5t38.5 -61t58 -37.5t72.5 -13q46 0 83 12t63 33.5t40 51t14 65.5q0 55 -28.5 91.5t-71.5 61.5q-42 25 -118 63.5t-198 100.5
q-44 22 -82 57.5t-66 81t-44 99t-16 110.5q0 88 31.5 161t88 125.5t135 81.5t173.5 29q98 0 179.5 -34t140 -94t90.5 -142.5t32 -179.5h-268q0 45 -13 80t-36.5 59t-55.5 36.5t-69 12.5q-34 0 -63.5 -9t-52 -26.5t-35.5 -43.5t-13 -60q0 -37 22 -67t64 -52q66 -34 113 -58
t81.5 -41t59 -30t45.5 -24q117 -63 177 -163.5t60 -230.5z" />
    <glyph glyph-name="t" unicode="t" horiz-adv-x="991" 
d="M37 0zM627 1192v-1192h-265v1192h-325v266h917v-266h-327z" />
    <glyph glyph-name="u" unicode="u" 
d="M127 0zM1006 403q0 -37 -8 -82.5t-27.5 -92t-52 -91t-81 -79t-115.5 -55.5t-155 -21t-155 21t-115.5 56t-81.5 79.5t-52.5 91.5t-27.5 93t-8 83v1052h266v-1052q0 -52 19 -83t46.5 -47.5t57.5 -22t51 -5.5t50.5 5.5t56.5 22t46 47.5t19 83v1052h267v-1055z" />
    <glyph glyph-name="v" unicode="v" horiz-adv-x="1130" 
d="M37 0zM1094 1458l-361 -1458h-330l-366 1458h268l258 -1067l264 1067h267z" />
    <glyph glyph-name="w" unicode="w" horiz-adv-x="1618" 
d="M37 0zM1278 0h-254l-213 846l-219 -846h-252l-303 1458h274l174 -897l226 895h194l225 -895l175 897h276z" />
    <glyph glyph-name="x" unicode="x" horiz-adv-x="1130" 
d="M37 0zM786 0l-221 449l-221 -449h-307l377 731l-375 727h303l221 -446l230 446h297l-377 -723l381 -735h-308z" />
    <glyph glyph-name="y" unicode="y" horiz-adv-x="1106" 
d="M37 0zM686 528v-528h-266v532l-383 926h291l225 -563l227 563h289z" />
    <glyph glyph-name="z" unicode="z" horiz-adv-x="958" 
d="M45 0zM45 0v209l520 985h-491v264h811v-205l-518 -989h546v-264h-868z" />
    <glyph glyph-name="braceleft" unicode="{" horiz-adv-x="670" 
d="M416 -129q-138 0 -203.5 67.5t-65.5 200.5v1114q0 134 65 200.5t204 66.5h106v-215h-98q-29 0 -41.5 -1t-16.5 -8t-2.5 -21.5t1.5 -41.5v-1079q0 -27 -2 -40.5t1.5 -19.5t16.5 -6h43h98v-217h-106z" />
    <glyph glyph-name="bar" unicode="|" horiz-adv-x="512" 
d="M147 -102v1611h218v-1611h-218z" />
    <glyph glyph-name="braceright" unicode="}" horiz-adv-x="676" 
d="M528 137q0 -66 -14.5 -116t-46.5 -83t-83.5 -50t-125.5 -17h-111v215h113q49 0 47 -2q3 3 3.5 20t0.5 46v1087q0 29 -0.5 45t-3.5 23h-160v213h111q136 0 203 -64t67 -201v-1116z" />
    <glyph glyph-name="asciitilde" unicode="~" horiz-adv-x="1147" 
d="M999 575q-56 -53 -96.5 -86t-73 -51.5t-61 -25t-59.5 -6.5q-39 0 -74 13t-69 28.5t-68 28.5t-70 13q-10 0 -20 -3t-23.5 -12t-32.5 -26.5t-47 -46.5l-158 129q53 53 92.5 86.5t71.5 52t60.5 25t60.5 6.5q39 0 73.5 -13.5t68 -29.5t67.5 -29.5t72 -13.5q8 0 17 3
t22.5 12.5t33 27t48.5 45.5z" />
    <glyph glyph-name="exclamdown" unicode="&#xa1;" horiz-adv-x="608" 
d="M432 659v-1017h-256v1017h256zM461 1102v-316h-314v316h314z" />
    <glyph glyph-name="cent" unicode="&#xa2;" horiz-adv-x="1038" 
d="M430 -8q-70 14 -126 47t-95.5 82.5t-60.5 115t-21 144.5v311q0 77 21 141t60.5 113.5t95.5 82.5t126 48v264h215v-266q66 -16 120 -52.5t94 -90.5t63 -125.5t28 -157.5h-223q0 47 -9.5 86.5t-31.5 68.5t-58 45.5t-89 16.5q-87 0 -137 -45t-50 -129v-311q0 -30 8 -61.5
t28.5 -57t57 -41.5t93.5 -16q40 0 74 12t59 38t39 66.5t14 96.5h225q-5 -89 -28.5 -161.5t-62.5 -127t-93 -89.5t-121 -48v-262h-215v262z" />
    <glyph glyph-name="sterling" unicode="&#xa3;" horiz-adv-x="1061" 
d="M709 1020q0 58 -15.5 94t-38.5 55.5t-49 26t-47 6.5t-45 -5.5t-44 -21t-33 -42.5t-13 -70v-176h385v-264h-385v-357h547v-266h-815v623h-68v264h68v174q0 89 28.5 163.5t81.5 128t127 83.5t166 30q91 0 167.5 -33t131 -92t85 -141t30.5 -180h-264z" />
    <glyph glyph-name="yen" unicode="&#xa5;" horiz-adv-x="1155" 
d="M711 195v-195h-262v195h-263v213h263v104h-263v211h181l-299 735h282l225 -563l230 563h282l-301 -735h183v-211h-258v-104h258v-213h-258z" />
    <glyph glyph-name="brokenbar" unicode="&#xa6;" horiz-adv-x="504" 
d="M139 774v682h226v-682h-226zM139 -51v684h226v-684h-226z" />
    <glyph glyph-name="section" unicode="&#xa7;" horiz-adv-x="1126" 
d="M162 758q0 57 10.5 101t36.5 81q-6 14 -12 31.5t-11.5 36.5t-8.5 38t-3 37q0 88 32 151t85.5 102.5t123.5 58t146 18.5q89 0 163.5 -25t128 -73t83 -118t29.5 -161h-224q0 71 -45.5 112.5t-138.5 41.5q-29 0 -58 -5t-52.5 -17t-38.5 -33t-15 -52q0 -21 19 -40t45 -27
q66 -19 136.5 -32.5t139.5 -27.5q53 -11 98 -36.5t78 -63.5t51.5 -87.5t18.5 -106.5q0 -56 -11 -99.5t-34 -81.5q20 -32 25.5 -68t5.5 -79q0 -96 -33.5 -162.5t-89.5 -108.5t-130.5 -60.5t-156.5 -18.5q-89 0 -164 25.5t-129 74t-84.5 118.5t-30.5 160h228q0 -74 49 -112.5
t131 -38.5q34 0 68 4.5t61 17.5t44 37.5t17 63.5q0 31 -22.5 50.5t-48.5 27.5h2q-69 17 -140 33t-145 30q-49 9 -91 33t-72.5 61t-48 85t-17.5 104zM756 623q6 19 4 38t-11.5 34.5t-25.5 27t-37 16.5l-297 64q-8 -18 -7.5 -36t8 -33.5t21.5 -27.5t35 -16z" />
    <glyph glyph-name="dieresis" unicode="&#xa8;" horiz-adv-x="938" 
d="M532 1130v289h259v-289h-259zM147 1130v289h256v-289h-256z" />
    <glyph glyph-name="copyright" unicode="&#xa9;" horiz-adv-x="1722" 
d="M1098 522q0 -20 -4 -46.5t-14.5 -54t-28.5 -54.5t-46.5 -48t-68 -34t-92.5 -13q-51 0 -89 13t-65 34t-44.5 48t-27.5 54.5t-14 54t-4 46.5v363q0 29 9.5 71t36.5 80.5t75.5 66t126.5 27.5t127 -27.5t76.5 -66.5t37 -81.5t9.5 -71.5h-178q0 24 -7.5 38.5t-18.5 21.5
t-23.5 9t-22.5 2t-22.5 -2.5t-23.5 -10.5t-18.5 -22t-7.5 -38v-357q0 -24 7.5 -38.5t18.5 -22.5t23.5 -11t22.5 -3t22.5 2.5t23.5 10t18.5 22t7.5 38.5h178zM1575 705q0 -99 -25.5 -190.5t-71.5 -171.5t-111 -145t-144.5 -112t-170.5 -72.5t-190 -25.5t-190.5 25.5
t-171 72.5t-144.5 112t-111.5 145t-72 171.5t-25.5 190.5t25.5 190t72 170.5t111.5 144.5t144.5 111.5t171 72t190.5 25.5q148 0 278 -56t226.5 -153t152.5 -227t56 -278zM1391 705q0 73 -19 140.5t-54 126.5t-83.5 107.5t-107 83t-126 53.5t-139.5 19q-109 0 -205.5 -41.5
t-168.5 -113.5t-114 -168.5t-42 -206.5q0 -111 42 -207.5t114 -168.5t168.5 -113.5t205.5 -41.5q108 0 204.5 41.5t168.5 113.5t114 168.5t42 207.5z" />
    <glyph glyph-name="ordfeminine" unicode="&#xaa;" horiz-adv-x="823" 
d="M158 1186q14 64 43.5 108t67 72t78.5 40.5t77 12.5q49 0 97 -12.5t86 -41.5t61.5 -77t23.5 -119v-489h-162l-4 22q-28 -12 -66.5 -23t-72.5 -11q-50 0 -97.5 14t-85 43.5t-60.5 76.5t-23 113q0 55 20 97.5t54.5 71t81.5 43t102 14.5h147v24q0 26 -8 43t-21.5 27t-31.5 14
t-39 4q-28 0 -53.5 -16t-40.5 -51h-174zM526 981h-145q-38 0 -65 -15.5t-27 -50.5q0 -25 9.5 -41t25 -25t35 -12t40.5 -3q24 0 47 6.5t40.5 20t28.5 33.5t11 46v41z" />
    <glyph glyph-name="guillemotleft" unicode="&#xab;" horiz-adv-x="1051" 
d="M451 537l473 477v-303l-172 -174l172 -170v-301zM45 537l475 477v-301l-172 -176l172 -172v-302z" />
    <glyph glyph-name="logicalnot" unicode="&#xac;" horiz-adv-x="1137" 
d="M772 317v310h-633v219h858v-529h-225z" />
    <glyph glyph-name="uni00AD" unicode="&#xad;" horiz-adv-x="1206" 
d="M164 465v217h878v-217h-878z" />
    <glyph glyph-name="registered" unicode="&#xae;" horiz-adv-x="1722" 
d="M1139 823q0 -23 -6 -55t-22 -65t-44.5 -62t-73.5 -47l160 -318h-197l-151 302h-6v-302h-174v836h266q78 0 126.5 -27t75.5 -65.5t36.5 -80.5t9.5 -71v-45zM965 864q0 23 -7.5 37.5t-18.5 22.5t-24 11t-24 3h-92v-188h94q10 0 22.5 2.5t23.5 10.5t18.5 22t7.5 38v41z
M1575 705q0 -99 -25.5 -190.5t-71.5 -171.5t-111 -145t-144.5 -112t-170.5 -72.5t-190 -25.5t-190.5 25.5t-171 72.5t-144.5 112t-111.5 145t-72 171.5t-25.5 190.5t25.5 190t72 170.5t111.5 144.5t144.5 111.5t171 72t190.5 25.5q148 0 278 -56t226.5 -153t152.5 -227
t56 -278zM1391 705q0 110 -42 206.5t-114 168.5t-168.5 113.5t-204.5 41.5q-109 0 -205.5 -41.5t-168.5 -113.5t-114 -168.5t-42 -206.5q0 -111 42 -207.5t114 -168.5t168.5 -113.5t205.5 -41.5q108 0 204.5 41.5t168.5 113.5t114 168.5t42 207.5z" />
    <glyph glyph-name="macron" unicode="&#xaf;" horiz-adv-x="952" 
d="M147 1100v219h658v-219h-658z" />
    <glyph glyph-name="degree" unicode="&#xb0;" horiz-adv-x="686" 
d="M608 1180q0 -54 -20.5 -102.5t-56.5 -85t-84.5 -58t-104.5 -21.5q-54 0 -102 21.5t-84 58t-57 85t-21 102.5q0 55 21 103.5t57 84.5t84 57t102 21q56 0 104.5 -20.5t84.5 -56.5t56.5 -84.5t20.5 -104.5zM426 1180q0 17 -6.5 32t-18 26t-26.5 17.5t-33 6.5q-34 0 -59 -24
t-25 -58t25 -57t59 -23q35 0 59.5 23t24.5 57z" />
    <glyph glyph-name="plusminus" unicode="&#xb1;" horiz-adv-x="1143" 
d="M680 467v-184h-217v184h-324v215h324v293h217v-293h324v-215h-324zM139 0v215h865v-215h-865z" />
    <glyph glyph-name="twosuperior" unicode="&#xb2;" horiz-adv-x="756" 
d="M616 1217q0 -52 -15 -89t-40.5 -65t-58.5 -50t-68 -44q-20 -12 -42 -25t-40.5 -27t-30.5 -30.5t-12 -36.5v-2h305v-170h-475v178q0 64 32 109.5t77 81.5q22 17 56.5 36t67 40t56 44t23.5 47q0 32 -19 50t-51 18q-29 0 -50.5 -30t-21.5 -89h-170q0 63 18.5 116t50.5 91.5
t76.5 60t96.5 21.5q53 0 96.5 -17t74 -48t47.5 -74.5t17 -95.5z" />
    <glyph glyph-name="threesuperior" unicode="&#xb3;" horiz-adv-x="752" 
d="M496 1151q35 -17 57.5 -41t35.5 -51.5t18 -56.5t5 -56v-47q0 -29 -11 -68.5t-37.5 -75.5t-72 -61.5t-114.5 -25.5q-72 0 -118 29t-72.5 72.5t-37 94t-10.5 92.5h168q0 -38 7.5 -60.5t18 -35t22 -16.5t20.5 -4t21 2t22.5 8t18 17.5t7.5 31.5v47q0 19 -7.5 30.5t-18.5 17.5
t-23 8t-20 2h-88v118l96 150h-217v170h434v-137z" />
    <glyph glyph-name="acute" unicode="&#xb4;" horiz-adv-x="752" 
d="M367 1065h-220l189 391h268z" />
    <glyph glyph-name="mu" unicode="&#xb5;" horiz-adv-x="1108" 
d="M147 -348v1421h228v-692q0 -30 7 -60.5t27 -55.5t55 -40.5t91 -15.5q39 0 72.5 11t57.5 32t38 51t14 68v702h224v-1073h-224v37q-28 -22 -72 -38.5t-110 -16.5q-26 0 -51.5 5t-48.5 12.5t-43.5 17.5t-36.5 20v-385h-228z" />
    <glyph glyph-name="paragraph" unicode="&#xb6;" horiz-adv-x="1128" 
d="M758 0v1194h-60v-1194h-225v721q-75 7 -135.5 36t-103 74t-65 103t-22.5 123q0 92 26.5 159.5t76.5 111.5t122 65.5t163 21.5h446v-1415h-223z" />
    <glyph glyph-name="periodcentered" unicode="&#xb7;" horiz-adv-x="578" 
d="M147 399v287h283v-287h-283z" />
    <glyph glyph-name="cedilla" unicode="&#xb8;" horiz-adv-x="698" 
d="M401 -334h-254l183 385h221z" />
    <glyph glyph-name="onesuperior" unicode="&#xb9;" horiz-adv-x="721" 
d="M139 678v168h135v424l-100 -13v168l268 27v-606h140v-168h-443z" />
    <glyph glyph-name="ordmasculine" unicode="&#xba;" horiz-adv-x="846" 
d="M707 938q0 -64 -21 -115t-58.5 -87t-90 -55t-115.5 -19q-65 0 -117 19t-89 54.5t-57 86.5t-20 116v207q0 62 20.5 112.5t58 86t89.5 54.5t115 19q64 0 116.5 -19t90 -54t58 -85.5t20.5 -113.5v-207zM535 1145q0 18 -4.5 36.5t-17.5 34t-35 25.5t-56 10q-54 0 -84.5 -27.5
t-30.5 -78.5v-207q0 -18 5 -37.5t18 -35.5t35 -26t57 -10q53 0 83 28t30 81v207z" />
    <glyph glyph-name="guillemotright" unicode="&#xbb;" horiz-adv-x="1051" 
d="M532 68v299l175 172l-175 174v303l474 -477zM127 68v299l174 172l-174 174v303l473 -477z" />
    <glyph glyph-name="onequarter" unicode="&#xbc;" horiz-adv-x="1520" 
d="M139 678v168h135v424l-100 -13v168l270 27v-606h138v-168h-443zM596 -102h-182l534 1636h182zM1212 0v186h-292v125l170 455h170l-150 -410h102v187h168v-543h-168z" />
    <glyph glyph-name="onehalf" unicode="&#xbd;" horiz-adv-x="1583" 
d="M139 678v168h135v424l-98 -10v165l266 27v-606h142v-168h-445zM1444 537q0 -60 -23.5 -103.5t-60.5 -75.5q-14 -13 -36 -26t-47 -27.5t-50 -29.5t-45 -31.5t-32.5 -34.5t-12.5 -37h305v-172h-477v178q0 63 30.5 109.5t75.5 81.5q20 16 54 34t67 38.5t57.5 44t24.5 51.5
q0 65 -70 65q-28 0 -47.5 -30t-19.5 -87h-172q0 63 18 115.5t50 91t76 59.5t95 21q53 0 97.5 -17t76 -47.5t49 -74t17.5 -96.5zM596 -102h-184l534 1636h182z" />
    <glyph glyph-name="threequarters" unicode="&#xbe;" horiz-adv-x="1540" 
d="M1231 0v186h-293v125l170 455h172l-152 -410h103v187h170v-543h-170zM496 1151q35 -17 58 -41t36.5 -51.5t18.5 -56.5t5 -56v-47q0 -29 -11 -68.5t-37.5 -75.5t-72 -61.5t-114.5 -25.5q-72 0 -118.5 29t-73.5 72.5t-37.5 94t-10.5 92.5h170q0 -38 7 -60.5t17.5 -35
t22.5 -16.5t21 -4q8 0 19.5 2t22 8t18 17.5t7.5 31.5v47q0 19 -7.5 30.5t-18.5 17.5t-22.5 8t-18.5 2h-90v118l96 150h-213v170h430v-137zM616 -102h-184l539 1636h176z" />
    <glyph glyph-name="questiondown" unicode="&#xbf;" horiz-adv-x="887" 
d="M35 6q0 63 18 116t47 98t67 82t77 69q22 18 44.5 34t40.5 36.5t29 48t11 67.5v53h268v-47q0 -45 -8.5 -85.5t-22 -76t-31.5 -64.5t-36 -50q-26 -30 -66.5 -58.5t-78.5 -61t-65.5 -71t-27.5 -88.5q0 -80 41 -121t119 -41q19 0 46 8t53 32t45.5 69t23.5 119h264
q0 -43 -8.5 -95.5t-28.5 -107t-53 -106t-81 -92t-112.5 -65t-148.5 -24.5q-95 0 -173 31t-134.5 86.5t-87.5 133t-31 171.5zM655 1053v-316h-313v316h313z" />
    <glyph glyph-name="Agrave" unicode="&#xc0;" horiz-adv-x="1169" 
d="M35 0zM862 0l-86 334h-381l-86 -334h-274l383 1458h327l390 -1458h-273zM588 1063l-129 -467h252zM508 1557l-234 391h269l190 -391h-225z" />
    <glyph glyph-name="Aacute" unicode="&#xc1;" horiz-adv-x="1169" 
d="M35 0zM862 0l-86 334h-381l-86 -334h-274l383 1458h327l390 -1458h-273zM588 1063l-129 -467h252zM656 1557h-220l189 391h268z" />
    <glyph glyph-name="Acircumflex" unicode="&#xc2;" horiz-adv-x="1169" 
d="M35 0zM862 0l-86 334h-381l-86 -334h-274l383 1458h327l390 -1458h-273zM588 1063l-129 -467h252zM705 1581l-115 117l-115 -117h-248l283 351h160l278 -351h-243z" />
    <glyph glyph-name="Atilde" unicode="&#xc3;" horiz-adv-x="1169" 
d="M35 0zM862 0l-86 334h-381l-86 -334h-274l383 1458h327l390 -1458h-273zM588 1063l-129 -467h252zM955 1702q-51 -48 -89 -77t-67 -44t-51.5 -19.5t-42.5 -4.5q-35 0 -66 11.5t-59 28.5q-25 14 -52 26.5t-55 12.5q-6 0 -12.5 -1.5t-17 -9t-28.5 -22.5t-46 -42l-148 143
q49 49 87 78t67.5 44.5t52.5 20t43 4.5q35 0 65.5 -13.5t59.5 -27.5q25 -14 51.5 -26t55.5 -12q4 0 11.5 3t19.5 11t30 23.5t43 39.5z" />
    <glyph glyph-name="Adieresis" unicode="&#xc4;" horiz-adv-x="1169" 
d="M35 0zM862 0l-86 334h-381l-86 -334h-274l383 1458h327l390 -1458h-273zM588 1063l-129 -467h252zM651 1579v289h259v-289h-259zM266 1579v289h256v-289h-256z" />
    <glyph glyph-name="Aring" unicode="&#xc5;" horiz-adv-x="1169" 
d="M35 0zM862 0l-86 334h-381l-86 -334h-274l383 1458h327l390 -1458h-273zM588 1063l-129 -467h252zM832 1757q0 -48 -19 -92t-52 -77.5t-77.5 -53.5t-95.5 -20q-49 0 -93 20t-77 53.5t-52 77.5t-19 92q0 51 19 95.5t52 77.5t77 52t93 19q51 0 95.5 -18.5t77.5 -51.5
t52 -77.5t19 -96.5zM666 1757q0 15 -6 29t-16.5 24.5t-25 16.5t-30.5 6q-31 0 -53.5 -22.5t-22.5 -53.5t22.5 -53t53.5 -22q32 0 55 22t23 53z" />
    <glyph glyph-name="AE" unicode="&#xc6;" horiz-adv-x="1602" 
d="M670 0v332h-277l-88 -332h-270l381 1458h1100v-264h-580v-295h532v-264h-532v-371h580v-264h-846zM459 596h211v598h-52z" />
    <glyph glyph-name="Ccedilla" unicode="&#xc7;" horiz-adv-x="1094" 
d="M127 0zM1006 442q0 -45 -8.5 -96t-28.5 -102t-53 -98.5t-82 -84t-115.5 -58t-153.5 -21.5q-86 0 -151.5 21.5t-114 57t-81.5 81t-53.5 92.5t-29 92t-8.5 80v651q0 34 8 77.5t27.5 89t52.5 89.5t81.5 78.5t115.5 55.5t155 21q84 0 149.5 -23t114.5 -61t82.5 -86t54 -98.5
t29.5 -98.5t9 -85h-269q0 62 -19 99.5t-46 57.5t-56 26.5t-49 6.5q-21 0 -51.5 -5t-58 -21t-47 -46t-19.5 -81v-647q0 -52 19.5 -83t47 -47.5t58 -22t51.5 -5.5q20 0 49 6.5t56 27t46 58.5t19 102h269zM528 -433h-254l183 385h221z" />
    <glyph glyph-name="Egrave" unicode="&#xc8;" horiz-adv-x="1077" 
d="M147 0zM147 0v1458h844v-264h-579v-295h536v-264h-536v-371h579v-264h-844zM541 1557l-234 391h269l190 -391h-225z" />
    <glyph glyph-name="Eacute" unicode="&#xc9;" horiz-adv-x="1077" 
d="M147 0zM147 0v1458h844v-264h-579v-295h536v-264h-536v-371h579v-264h-844zM621 1557h-220l189 391h268z" />
    <glyph glyph-name="Ecircumflex" unicode="&#xca;" horiz-adv-x="1077" 
d="M147 0zM147 0v1458h844v-264h-579v-295h536v-264h-536v-371h579v-264h-844zM674 1581l-115 117l-115 -117h-248l283 351h160l278 -351h-243z" />
    <glyph glyph-name="Edieresis" unicode="&#xcb;" horiz-adv-x="1077" 
d="M147 0zM147 0v1458h844v-264h-579v-295h536v-264h-536v-371h579v-264h-844zM618 1579v289h259v-289h-259zM233 1579v289h256v-289h-256z" />
    <glyph glyph-name="Igrave" unicode="&#xcc;" horiz-adv-x="561" 
d="M0 0zM414 1458v-1458h-267v1458h267zM177 1557l-234 391h269l190 -391h-225z" />
    <glyph glyph-name="Iacute" unicode="&#xcd;" horiz-adv-x="563" 
d="M147 0zM414 1458v-1458h-267v1458h267zM371 1557h-220l189 391h268z" />
    <glyph glyph-name="Icircumflex" unicode="&#xce;" horiz-adv-x="563" 
d="M0 0zM416 1458v-1458h-267v1458h267zM403 1581l-115 117l-115 -117h-248l283 351h160l278 -351h-243z" />
    <glyph glyph-name="Idieresis" unicode="&#xcf;" horiz-adv-x="561" 
d="M0 0zM414 1458v-1458h-267v1458h267zM340 1579v289h259v-289h-259zM-45 1579v289h256v-289h-256z" />
    <glyph glyph-name="Eth" unicode="&#xd0;" horiz-adv-x="1262" 
d="M1122 418q0 -34 -6.5 -78.5t-23.5 -91t-46.5 -91t-75.5 -79.5t-110.5 -56.5t-150.5 -21.5h-465v612h-105v256h105v592h458q88 0 153 -21.5t112 -56.5t77 -79.5t47.5 -91t24 -90.5t6.5 -77v-626zM856 1038q0 52 -16.5 83t-40.5 47.5t-50.5 22t-46.5 5.5h-192v-328h209
v-256h-209v-348h195q21 0 47 5.5t49 22t39 47t16 81.5v618z" />
    <glyph glyph-name="Ntilde" unicode="&#xd1;" horiz-adv-x="1180" 
d="M147 0zM758 0l-344 807v-807h-267v1458h271l352 -823v823h262v-1458h-274zM967 1702q-51 -48 -89 -77t-67 -44t-51.5 -19.5t-42.5 -4.5q-35 0 -66 11.5t-59 28.5q-25 14 -52 26.5t-55 12.5q-6 0 -12.5 -1.5t-17 -9t-28.5 -22.5t-46 -42l-148 143q49 49 87 78t67.5 44.5
t52.5 20t43 4.5q35 0 65.5 -13.5t59.5 -27.5q25 -14 51.5 -26t55.5 -12q4 0 11.5 3t19.5 11t30 23.5t43 39.5z" />
    <glyph glyph-name="Ograve" unicode="&#xd2;" 
d="M127 0zM1006 403q0 -35 -8.5 -79.5t-28.5 -91.5t-53 -92t-82 -80t-115.5 -56.5t-153.5 -21.5q-86 0 -151.5 21.5t-114 57t-81.5 81t-53.5 92.5t-29 92t-8.5 80v651q0 34 8 77.5t27.5 89t52.5 89.5t81.5 78.5t115.5 55.5t155 21q84 0 149.5 -21t114.5 -55.5t82.5 -78.5
t54 -90t29.5 -90t9 -78v-652zM737 1053q0 51 -19 81t-46 46t-56 21t-49 5q-21 0 -51.5 -5t-58 -21t-47 -46t-19.5 -81v-647q0 -52 19.5 -83t47 -47.5t58 -22t51.5 -5.5q20 0 49 5.5t56 22t46 47.5t19 83v647zM504 1557l-234 391h269l190 -391h-225z" />
    <glyph glyph-name="Oacute" unicode="&#xd3;" 
d="M127 0zM1006 403q0 -35 -8.5 -79.5t-28.5 -91.5t-53 -92t-82 -80t-115.5 -56.5t-153.5 -21.5q-86 0 -151.5 21.5t-114 57t-81.5 81t-53.5 92.5t-29 92t-8.5 80v651q0 34 8 77.5t27.5 89t52.5 89.5t81.5 78.5t115.5 55.5t155 21q84 0 149.5 -21t114.5 -55.5t82.5 -78.5
t54 -90t29.5 -90t9 -78v-652zM737 1053q0 51 -19 81t-46 46t-56 21t-49 5q-21 0 -51.5 -5t-58 -21t-47 -46t-19.5 -81v-647q0 -52 19.5 -83t47 -47.5t58 -22t51.5 -5.5q20 0 49 5.5t56 22t46 47.5t19 83v647zM635 1557h-220l189 391h268z" />
    <glyph glyph-name="Ocircumflex" unicode="&#xd4;" 
d="M127 0zM1006 403q0 -35 -8.5 -79.5t-28.5 -91.5t-53 -92t-82 -80t-115.5 -56.5t-153.5 -21.5q-86 0 -151.5 21.5t-114 57t-81.5 81t-53.5 92.5t-29 92t-8.5 80v651q0 34 8 77.5t27.5 89t52.5 89.5t81.5 78.5t115.5 55.5t155 21q84 0 149.5 -21t114.5 -55.5t82.5 -78.5
t54 -90t29.5 -90t9 -78v-652zM737 1053q0 51 -19 81t-46 46t-56 21t-49 5q-21 0 -51.5 -5t-58 -21t-47 -46t-19.5 -81v-647q0 -52 19.5 -83t47 -47.5t58 -22t51.5 -5.5q20 0 49 5.5t56 22t46 47.5t19 83v647zM686 1581l-115 117l-115 -117h-248l283 351h160l278 -351h-243z
" />
    <glyph glyph-name="Otilde" unicode="&#xd5;" 
d="M127 0zM1006 403q0 -35 -8.5 -79.5t-28.5 -91.5t-53 -92t-82 -80t-115.5 -56.5t-153.5 -21.5q-86 0 -151.5 21.5t-114 57t-81.5 81t-53.5 92.5t-29 92t-8.5 80v651q0 34 8 77.5t27.5 89t52.5 89.5t81.5 78.5t115.5 55.5t155 21q84 0 149.5 -21t114.5 -55.5t82.5 -78.5
t54 -90t29.5 -90t9 -78v-652zM737 1053q0 51 -19 81t-46 46t-56 21t-49 5q-21 0 -51.5 -5t-58 -21t-47 -46t-19.5 -81v-647q0 -52 19.5 -83t47 -47.5t58 -22t51.5 -5.5q20 0 49 5.5t56 22t46 47.5t19 83v647zM932 1700q-51 -48 -89 -77t-67 -44t-51.5 -19.5t-42.5 -4.5
q-35 0 -66 11.5t-59 28.5q-25 14 -52 26.5t-55 12.5q-6 0 -12.5 -1.5t-17 -9t-28.5 -22.5t-46 -42l-148 143q49 49 87 78t67.5 44.5t52.5 20t43 4.5q35 0 65.5 -13.5t59.5 -27.5q25 -14 51.5 -26t55.5 -12q4 0 11.5 3t19.5 11t30 23.5t43 39.5z" />
    <glyph glyph-name="Odieresis" unicode="&#xd6;" 
d="M127 0zM1006 403q0 -35 -8.5 -79.5t-28.5 -91.5t-53 -92t-82 -80t-115.5 -56.5t-153.5 -21.5q-86 0 -151.5 21.5t-114 57t-81.5 81t-53.5 92.5t-29 92t-8.5 80v651q0 34 8 77.5t27.5 89t52.5 89.5t81.5 78.5t115.5 55.5t155 21q84 0 149.5 -21t114.5 -55.5t82.5 -78.5
t54 -90t29.5 -90t9 -78v-652zM737 1053q0 51 -19 81t-46 46t-56 21t-49 5q-21 0 -51.5 -5t-58 -21t-47 -46t-19.5 -81v-647q0 -52 19.5 -83t47 -47.5t58 -22t51.5 -5.5q20 0 49 5.5t56 22t46 47.5t19 83v647zM624 1579v289h259v-289h-259zM239 1579v289h256v-289h-256z" />
    <glyph glyph-name="multiply" unicode="&#xd7;" horiz-adv-x="1200" 
d="M842 156l-244 241l-242 -241l-149 147l244 244l-244 246l149 149l242 -246l244 246l149 -149l-243 -246l245 -246z" />
    <glyph glyph-name="Oslash" unicode="&#xd8;" 
d="M858 1370q41 -35 69 -77t45.5 -84.5t25.5 -82.5t8 -71v-652q0 -35 -8.5 -79.5t-28.5 -91.5t-53 -92t-82 -80t-115.5 -56.5t-153.5 -21.5q-46 0 -85.5 6.5t-73.5 17.5l-35 -104h-150l58 174q-43 35 -72 78.5t-47 88.5t-25.5 87.5t-7.5 75.5v651q0 34 8 77.5t27.5 89
t52.5 89.5t81.5 78.5t115.5 55.5t155 21q48 0 89.5 -7t78.5 -21l41 123h146zM391 410l260 780q-23 9 -45.5 12.5t-38.5 3.5q-21 0 -51.5 -5t-58 -21t-47 -46t-19.5 -81v-643zM737 1006l-248 -746q22 -8 42.5 -10t35.5 -2q20 0 49 5.5t56 22t46 47.5t19 83v600z" />
    <glyph glyph-name="Ugrave" unicode="&#xd9;" 
d="M127 0zM1006 403q0 -37 -8 -82.5t-27.5 -92t-52 -91t-81 -79t-115.5 -55.5t-155 -21t-155 21t-115.5 56t-81.5 79.5t-52.5 91.5t-27.5 93t-8 83v1052h266v-1052q0 -52 19 -83t46.5 -47.5t57.5 -22t51 -5.5t50.5 5.5t56.5 22t46 47.5t19 83v1052h267v-1055zM522 1557
l-234 391h269l190 -391h-225z" />
    <glyph glyph-name="Uacute" unicode="&#xda;" 
d="M127 0zM1006 403q0 -37 -8 -82.5t-27.5 -92t-52 -91t-81 -79t-115.5 -55.5t-155 -21t-155 21t-115.5 56t-81.5 79.5t-52.5 91.5t-27.5 93t-8 83v1052h266v-1052q0 -52 19 -83t46.5 -47.5t57.5 -22t51 -5.5t50.5 5.5t56.5 22t46 47.5t19 83v1052h267v-1055zM590 1557h-220
l189 391h268z" />
    <glyph glyph-name="Ucircumflex" unicode="&#xdb;" 
d="M127 0zM1006 403q0 -37 -8 -82.5t-27.5 -92t-52 -91t-81 -79t-115.5 -55.5t-155 -21t-155 21t-115.5 56t-81.5 79.5t-52.5 91.5t-27.5 93t-8 83v1052h266v-1052q0 -52 19 -83t46.5 -47.5t57.5 -22t51 -5.5t50.5 5.5t56.5 22t46 47.5t19 83v1052h267v-1055zM678 1581
l-115 117l-115 -117h-248l283 351h160l278 -351h-243z" />
    <glyph glyph-name="Udieresis" unicode="&#xdc;" 
d="M127 0zM1006 403q0 -37 -8 -82.5t-27.5 -92t-52 -91t-81 -79t-115.5 -55.5t-155 -21t-155 21t-115.5 56t-81.5 79.5t-52.5 91.5t-27.5 93t-8 83v1052h266v-1052q0 -52 19 -83t46.5 -47.5t57.5 -22t51 -5.5t50.5 5.5t56.5 22t46 47.5t19 83v1052h267v-1055zM628 1579v289
h259v-289h-259zM243 1579v289h256v-289h-256z" />
    <glyph glyph-name="Yacute" unicode="&#xdd;" horiz-adv-x="1106" 
d="M37 0zM686 528v-528h-266v532l-383 926h291l225 -563l227 563h289zM545 1557h-220l189 391h268z" />
    <glyph glyph-name="Thorn" unicode="&#xde;" horiz-adv-x="1178" 
d="M412 1458v-293h229q95 0 172.5 -31t132.5 -87.5t85 -135.5t30 -176q0 -98 -29.5 -178t-84.5 -137t-132.5 -88t-173.5 -31h-229v-301h-265v1458h265zM412 903v-340h229q28 0 56.5 7.5t51.5 26.5t37.5 52.5t14.5 85.5q0 81 -42.5 124.5t-117.5 43.5h-229z" />
    <glyph glyph-name="germandbls" unicode="&#xdf;" horiz-adv-x="1147" 
d="M610 266q22 0 48.5 5.5t49.5 22t38.5 47t15.5 79.5v92q0 51 -13.5 81.5t-34 47t-43.5 22t-42 5.5h-127v264h125q43 0 65.5 31.5t22.5 85.5q0 50 -15.5 80t-38 45.5t-48 20.5t-44.5 5q-21 0 -47.5 -5t-50.5 -20.5t-40.5 -45.5t-16.5 -80v-1049h-267v1055q0 34 7 77.5
t24.5 89t47.5 89.5t77 78.5t112.5 55.5t153.5 21q86 0 150.5 -21t111 -56t76.5 -79t47 -90.5t24 -90.5t7 -78q0 -29 -5.5 -60t-17 -62t-28 -60t-37.5 -52q39 -32 64.5 -72.5t41 -82t21.5 -80t6 -64.5v-98q0 -35 -6.5 -79.5t-23.5 -91t-47 -91.5t-76 -80t-111 -56.5
t-152 -21.5h-112v266h108z" />
    <glyph glyph-name="agrave" unicode="&#xe0;" horiz-adv-x="1169" 
d="M35 0zM862 0l-86 334h-381l-86 -334h-274l383 1458h327l390 -1458h-273zM588 1063l-129 -467h252zM508 1557l-234 391h269l190 -391h-225z" />
    <glyph glyph-name="aacute" unicode="&#xe1;" horiz-adv-x="1169" 
d="M35 0zM862 0l-86 334h-381l-86 -334h-274l383 1458h327l390 -1458h-273zM588 1063l-129 -467h252zM660 1557h-220l189 391h268z" />
    <glyph glyph-name="acircumflex" unicode="&#xe2;" horiz-adv-x="1169" 
d="M35 0zM862 0l-86 334h-381l-86 -334h-274l383 1458h327l390 -1458h-273zM588 1063l-129 -467h252zM705 1581l-115 117l-115 -117h-248l283 351h160l278 -351h-243z" />
    <glyph glyph-name="atilde" unicode="&#xe3;" horiz-adv-x="1169" 
d="M35 0zM862 0l-86 334h-381l-86 -334h-274l383 1458h327l390 -1458h-273zM588 1063l-129 -467h252zM955 1702q-51 -48 -89 -77t-67 -44t-51.5 -19.5t-42.5 -4.5q-35 0 -66 11.5t-59 28.5q-25 14 -52 26.5t-55 12.5q-6 0 -12.5 -1.5t-17 -9t-28.5 -22.5t-46 -42l-148 143
q49 49 87 78t67.5 44.5t52.5 20t43 4.5q35 0 65.5 -13.5t59.5 -27.5q25 -14 51.5 -26t55.5 -12q4 0 11.5 3t19.5 11t30 23.5t43 39.5z" />
    <glyph glyph-name="adieresis" unicode="&#xe4;" horiz-adv-x="1169" 
d="M35 0zM862 0l-86 334h-381l-86 -334h-274l383 1458h327l390 -1458h-273zM588 1063l-129 -467h252zM651 1579v289h259v-289h-259zM266 1579v289h256v-289h-256z" />
    <glyph glyph-name="aring" unicode="&#xe5;" horiz-adv-x="1169" 
d="M35 0zM862 0l-86 334h-381l-86 -334h-274l383 1458h327l390 -1458h-273zM588 1063l-129 -467h252zM832 1757q0 -48 -19 -92t-52 -77.5t-77.5 -53.5t-95.5 -20q-49 0 -93 20t-77 53.5t-52 77.5t-19 92q0 51 19 95.5t52 77.5t77 52t93 19q51 0 95.5 -18.5t77.5 -51.5
t52 -77.5t19 -96.5zM666 1757q0 15 -6 29t-16.5 24.5t-25 16.5t-30.5 6q-31 0 -53.5 -22.5t-22.5 -53.5t22.5 -53t53.5 -22q32 0 55 22t23 53z" />
    <glyph glyph-name="ae" unicode="&#xe6;" horiz-adv-x="1602" 
d="M670 0v332h-277l-88 -332h-270l381 1458h1100v-264h-580v-295h532v-264h-532v-371h580v-264h-846zM459 596h211v598h-52z" />
    <glyph glyph-name="ccedilla" unicode="&#xe7;" horiz-adv-x="1094" 
d="M127 0zM1006 442q0 -45 -8.5 -96t-28.5 -102t-53 -98.5t-82 -84t-115.5 -58t-153.5 -21.5q-86 0 -151.5 21.5t-114 57t-81.5 81t-53.5 92.5t-29 92t-8.5 80v651q0 34 8 77.5t27.5 89t52.5 89.5t81.5 78.5t115.5 55.5t155 21q84 0 149.5 -23t114.5 -61t82.5 -86t54 -98.5
t29.5 -98.5t9 -85h-269q0 62 -19 99.5t-46 57.5t-56 26.5t-49 6.5q-21 0 -51.5 -5t-58 -21t-47 -46t-19.5 -81v-647q0 -52 19.5 -83t47 -47.5t58 -22t51.5 -5.5q20 0 49 6.5t56 27t46 58.5t19 102h269zM528 -433h-254l183 385h221z" />
    <glyph glyph-name="egrave" unicode="&#xe8;" horiz-adv-x="1077" 
d="M147 0zM147 0v1458h844v-264h-579v-295h536v-264h-536v-371h579v-264h-844zM533 1557l-234 391h269l190 -391h-225z" />
    <glyph glyph-name="eacute" unicode="&#xe9;" horiz-adv-x="1077" 
d="M147 0zM147 0v1458h844v-264h-579v-295h536v-264h-536v-371h579v-264h-844zM621 1557h-220l189 391h268z" />
    <glyph glyph-name="ecircumflex" unicode="&#xea;" horiz-adv-x="1077" 
d="M147 0zM147 0v1458h844v-264h-579v-295h536v-264h-536v-371h579v-264h-844zM686 1581l-115 117l-115 -117h-248l283 351h160l278 -351h-243z" />
    <glyph glyph-name="edieresis" unicode="&#xeb;" horiz-adv-x="1077" 
d="M147 0zM147 0v1458h844v-264h-579v-295h536v-264h-536v-371h579v-264h-844zM645 1579v289h259v-289h-259zM260 1579v289h256v-289h-256z" />
    <glyph glyph-name="igrave" unicode="&#xec;" horiz-adv-x="563" 
d="M0 0zM183 1557l-234 391h269l190 -391h-225zM414 1458v-1458h-267v1458h267z" />
    <glyph glyph-name="iacute" unicode="&#xed;" horiz-adv-x="563" 
d="M147 0zM371 1557h-220l189 391h268zM414 1458v-1458h-267v1458h267z" />
    <glyph glyph-name="icircumflex" unicode="&#xee;" horiz-adv-x="563" 
d="M0 0zM401 1581l-115 117l-115 -117h-248l283 351h160l278 -351h-243zM414 1458v-1458h-267v1458h267z" />
    <glyph glyph-name="idieresis" unicode="&#xef;" horiz-adv-x="563" 
d="M0 0zM343 1579v289h259v-289h-259zM-42 1579v289h256v-289h-256zM414 1458v-1458h-267v1458h267z" />
    <glyph glyph-name="eth" unicode="&#xf0;" horiz-adv-x="983" 
d="M721 526q0 48 -18 77.5t-43.5 45.5t-53 21.5t-47.5 5.5t-48.5 -5.5t-54.5 -21.5t-44.5 -45.5t-18.5 -77.5v-141q0 -48 18.5 -77t44.5 -45t54.5 -21.5t48.5 -5.5t47.5 5.5t53 21.5t43.5 45t18 77v141zM975 377q0 -33 -8 -75t-26.5 -86t-49.5 -86t-77.5 -75t-109.5 -53
t-145 -20q-83 0 -146.5 20.5t-110 54t-78 76.5t-50.5 87.5t-27 86.5t-8 74v147q0 32 8 74.5t26.5 86.5t49.5 87t77 77t108.5 54.5t144.5 20.5q48 0 89 -10.5t79 -28.5v112q0 48 -23.5 77.5t-57 45.5t-72 21.5t-68.5 5.5v254q95 0 167.5 -20.5t125 -54t87.5 -76t56.5 -87
t30 -86.5t8.5 -75v-629z" />
    <glyph glyph-name="ntilde" unicode="&#xf1;" horiz-adv-x="1180" 
d="M147 0zM758 0l-344 807v-807h-267v1458h271l352 -823v823h262v-1458h-274zM967 1702q-51 -48 -89 -77t-67 -44t-51.5 -19.5t-42.5 -4.5q-35 0 -66 11.5t-59 28.5q-25 14 -52 26.5t-55 12.5q-6 0 -12.5 -1.5t-17 -9t-28.5 -22.5t-46 -42l-148 143q49 49 87 78t67.5 44.5
t52.5 20t43 4.5q35 0 65.5 -13.5t59.5 -27.5q25 -14 51.5 -26t55.5 -12q4 0 11.5 3t19.5 11t30 23.5t43 39.5z" />
    <glyph glyph-name="ograve" unicode="&#xf2;" 
d="M127 0zM1006 403q0 -35 -8.5 -79.5t-28.5 -91.5t-53 -92t-82 -80t-115.5 -56.5t-153.5 -21.5q-86 0 -151.5 21.5t-114 57t-81.5 81t-53.5 92.5t-29 92t-8.5 80v651q0 34 8 77.5t27.5 89t52.5 89.5t81.5 78.5t115.5 55.5t155 21q84 0 149.5 -21t114.5 -55.5t82.5 -78.5
t54 -90t29.5 -90t9 -78v-652zM737 1053q0 51 -19 81t-46 46t-56 21t-49 5q-21 0 -51.5 -5t-58 -21t-47 -46t-19.5 -81v-647q0 -52 19.5 -83t47 -47.5t58 -22t51.5 -5.5q20 0 49 5.5t56 22t46 47.5t19 83v647zM506 1557l-234 391h269l190 -391h-225z" />
    <glyph glyph-name="oacute" unicode="&#xf3;" 
d="M127 0zM1006 403q0 -35 -8.5 -79.5t-28.5 -91.5t-53 -92t-82 -80t-115.5 -56.5t-153.5 -21.5q-86 0 -151.5 21.5t-114 57t-81.5 81t-53.5 92.5t-29 92t-8.5 80v651q0 34 8 77.5t27.5 89t52.5 89.5t81.5 78.5t115.5 55.5t155 21q84 0 149.5 -21t114.5 -55.5t82.5 -78.5
t54 -90t29.5 -90t9 -78v-652zM737 1053q0 51 -19 81t-46 46t-56 21t-49 5q-21 0 -51.5 -5t-58 -21t-47 -46t-19.5 -81v-647q0 -52 19.5 -83t47 -47.5t58 -22t51.5 -5.5q20 0 49 5.5t56 22t46 47.5t19 83v647zM621 1557h-220l189 391h268z" />
    <glyph glyph-name="ocircumflex" unicode="&#xf4;" 
d="M127 0zM1006 403q0 -35 -8.5 -79.5t-28.5 -91.5t-53 -92t-82 -80t-115.5 -56.5t-153.5 -21.5q-86 0 -151.5 21.5t-114 57t-81.5 81t-53.5 92.5t-29 92t-8.5 80v651q0 34 8 77.5t27.5 89t52.5 89.5t81.5 78.5t115.5 55.5t155 21q84 0 149.5 -21t114.5 -55.5t82.5 -78.5
t54 -90t29.5 -90t9 -78v-652zM737 1053q0 51 -19 81t-46 46t-56 21t-49 5q-21 0 -51.5 -5t-58 -21t-47 -46t-19.5 -81v-647q0 -52 19.5 -83t47 -47.5t58 -22t51.5 -5.5q20 0 49 5.5t56 22t46 47.5t19 83v647zM680 1581l-115 117l-115 -117h-248l283 351h160l278 -351h-243z
" />
    <glyph glyph-name="otilde" unicode="&#xf5;" 
d="M127 0zM1006 403q0 -35 -8.5 -79.5t-28.5 -91.5t-53 -92t-82 -80t-115.5 -56.5t-153.5 -21.5q-86 0 -151.5 21.5t-114 57t-81.5 81t-53.5 92.5t-29 92t-8.5 80v651q0 34 8 77.5t27.5 89t52.5 89.5t81.5 78.5t115.5 55.5t155 21q84 0 149.5 -21t114.5 -55.5t82.5 -78.5
t54 -90t29.5 -90t9 -78v-652zM737 1053q0 51 -19 81t-46 46t-56 21t-49 5q-21 0 -51.5 -5t-58 -21t-47 -46t-19.5 -81v-647q0 -52 19.5 -83t47 -47.5t58 -22t51.5 -5.5q20 0 49 5.5t56 22t46 47.5t19 83v647zM928 1700q-51 -48 -89 -77t-67 -44t-51.5 -19.5t-42.5 -4.5
q-35 0 -66 11.5t-59 28.5q-25 14 -52 26.5t-55 12.5q-6 0 -12.5 -1.5t-17 -9t-28.5 -22.5t-46 -42l-148 143q49 49 87 78t67.5 44.5t52.5 20t43 4.5q35 0 65.5 -13.5t59.5 -27.5q25 -14 51.5 -26t55.5 -12q4 0 11.5 3t19.5 11t30 23.5t43 39.5z" />
    <glyph glyph-name="odieresis" unicode="&#xf6;" 
d="M127 0zM1006 403q0 -35 -8.5 -79.5t-28.5 -91.5t-53 -92t-82 -80t-115.5 -56.5t-153.5 -21.5q-86 0 -151.5 21.5t-114 57t-81.5 81t-53.5 92.5t-29 92t-8.5 80v651q0 34 8 77.5t27.5 89t52.5 89.5t81.5 78.5t115.5 55.5t155 21q84 0 149.5 -21t114.5 -55.5t82.5 -78.5
t54 -90t29.5 -90t9 -78v-652zM737 1053q0 51 -19 81t-46 46t-56 21t-49 5q-21 0 -51.5 -5t-58 -21t-47 -46t-19.5 -81v-647q0 -52 19.5 -83t47 -47.5t58 -22t51.5 -5.5q20 0 49 5.5t56 22t46 47.5t19 83v647zM622 1579v289h259v-289h-259zM237 1579v289h256v-289h-256z" />
    <glyph glyph-name="divide" unicode="&#xf7;" horiz-adv-x="1077" 
d="M141 360v177h795v-177h-795zM395 0v289h289v-289h-289zM395 596v289h289v-289h-289z" />
    <glyph glyph-name="oslash" unicode="&#xf8;" 
d="M858 1370q41 -35 69 -77t45.5 -84.5t25.5 -82.5t8 -71v-652q0 -35 -8.5 -79.5t-28.5 -91.5t-53 -92t-82 -80t-115.5 -56.5t-153.5 -21.5q-46 0 -85.5 6.5t-73.5 17.5l-35 -104h-150l58 174q-43 35 -72 78.5t-47 88.5t-25.5 87.5t-7.5 75.5v651q0 34 8 77.5t27.5 89
t52.5 89.5t81.5 78.5t115.5 55.5t155 21q48 0 89.5 -7t78.5 -21l41 123h146zM391 410l260 780q-23 9 -45.5 12.5t-38.5 3.5q-21 0 -51.5 -5t-58 -21t-47 -46t-19.5 -81v-643zM737 1006l-248 -746q22 -8 42.5 -10t35.5 -2q20 0 49 5.5t56 22t46 47.5t19 83v600z" />
    <glyph glyph-name="ugrave" unicode="&#xf9;" 
d="M127 0zM1006 403q0 -37 -8 -82.5t-27.5 -92t-52 -91t-81 -79t-115.5 -55.5t-155 -21t-155 21t-115.5 56t-81.5 79.5t-52.5 91.5t-27.5 93t-8 83v1052h266v-1052q0 -52 19 -83t46.5 -47.5t57.5 -22t51 -5.5t50.5 5.5t56.5 22t46 47.5t19 83v1052h267v-1055zM524 1557
l-234 391h269l190 -391h-225z" />
    <glyph glyph-name="uacute" unicode="&#xfa;" 
d="M127 0zM1006 403q0 -37 -8 -82.5t-27.5 -92t-52 -91t-81 -79t-115.5 -55.5t-155 -21t-155 21t-115.5 56t-81.5 79.5t-52.5 91.5t-27.5 93t-8 83v1052h266v-1052q0 -52 19 -83t46.5 -47.5t57.5 -22t51 -5.5t50.5 5.5t56.5 22t46 47.5t19 83v1052h267v-1055zM600 1557h-220
l189 391h268z" />
    <glyph glyph-name="ucircumflex" unicode="&#xfb;" 
d="M127 0zM1006 403q0 -37 -8 -82.5t-27.5 -92t-52 -91t-81 -79t-115.5 -55.5t-155 -21t-155 21t-115.5 56t-81.5 79.5t-52.5 91.5t-27.5 93t-8 83v1052h266v-1052q0 -52 19 -83t46.5 -47.5t57.5 -22t51 -5.5t50.5 5.5t56.5 22t46 47.5t19 83v1052h267v-1055zM676 1581
l-115 117l-115 -117h-248l283 351h160l278 -351h-243z" />
    <glyph glyph-name="udieresis" unicode="&#xfc;" 
d="M127 0zM1006 403q0 -37 -8 -82.5t-27.5 -92t-52 -91t-81 -79t-115.5 -55.5t-155 -21t-155 21t-115.5 56t-81.5 79.5t-52.5 91.5t-27.5 93t-8 83v1052h266v-1052q0 -52 19 -83t46.5 -47.5t57.5 -22t51 -5.5t50.5 5.5t56.5 22t46 47.5t19 83v1052h267v-1055zM624 1579v289
h259v-289h-259zM239 1579v289h256v-289h-256z" />
    <glyph glyph-name="yacute" unicode="&#xfd;" horiz-adv-x="1106" 
d="M37 0zM686 528v-528h-266v532l-383 926h291l225 -563l227 563h289zM547 1557h-220l189 391h268z" />
    <glyph glyph-name="thorn" unicode="&#xfe;" horiz-adv-x="1090" 
d="M963 385q0 -92 -29 -166t-82 -127t-128 -81.5t-167 -28.5q-38 0 -77 10t-77 33v-453h-256v1819h256v-347q35 19 76 30t78 11q94 0 169 -28t127.5 -79.5t81 -126t28.5 -167.5v-299zM709 684q0 25 -6 51.5t-23 47.5t-46.5 34.5t-76.5 13.5q-72 0 -113 -38t-41 -109v-299
q0 -26 6 -52t23 -47t47 -34.5t78 -13.5q72 0 112 39t40 108v299z" />
    <glyph glyph-name="ydieresis" unicode="&#xff;" horiz-adv-x="1106" 
d="M37 0zM686 528v-528h-266v532l-383 926h291l225 -563l227 563h289zM618 1579v289h259v-289h-259zM233 1579v289h256v-289h-256z" />
    <glyph glyph-name="Amacron" unicode="&#x100;" horiz-adv-x="1169" 
d="M35 0zM862 0l-86 334h-381l-86 -334h-274l383 1458h327l390 -1458h-273zM588 1063l-129 -467h252zM260 1579v219h658v-219h-658z" />
    <glyph glyph-name="amacron" unicode="&#x101;" horiz-adv-x="1169" 
d="M35 0zM862 0l-86 334h-381l-86 -334h-274l383 1458h327l390 -1458h-273zM588 1063l-129 -467h252zM262 1579v219h658v-219h-658z" />
    <glyph glyph-name="Abreve" unicode="&#x102;" horiz-adv-x="1169" 
d="M35 0zM862 0l-86 334h-381l-86 -334h-274l383 1458h327l390 -1458h-273zM588 1063l-129 -467h252zM964 1906q-12 -100 -43 -167t-77.5 -107.5t-107.5 -58t-132 -17.5q-72 0 -134 21t-109 64t-77.5 109t-40.5 156h215q11 -71 50.5 -111t95.5 -40q57 0 95 40t50 111h215z
" />
    <glyph glyph-name="abreve" unicode="&#x103;" horiz-adv-x="1169" 
d="M35 0zM862 0l-86 334h-381l-86 -334h-274l383 1458h327l390 -1458h-273zM588 1063l-129 -467h252zM964 1906q-12 -100 -43 -167t-77.5 -107.5t-107.5 -58t-132 -17.5q-72 0 -134 21t-109 64t-77.5 109t-40.5 156h215q11 -71 50.5 -111t95.5 -40q57 0 95 40t50 111h215z
" />
    <glyph glyph-name="Aogonek" unicode="&#x104;" horiz-adv-x="1245" 
d="M35 0zM862 0l-86 334h-381l-86 -334h-274l383 1458h327l390 -1458h-273zM588 1063l-129 -467h252zM1091 -435l-205 385h248l234 -385h-277z" />
    <glyph glyph-name="aogonek" unicode="&#x105;" horiz-adv-x="1253" 
d="M35 0zM862 0l-86 334h-381l-86 -334h-274l383 1458h327l390 -1458h-273zM588 1063l-129 -467h252zM1100 -435l-205 385h248l234 -385h-277z" />
    <glyph glyph-name="Cacute" unicode="&#x106;" horiz-adv-x="1094" 
d="M127 0zM1006 442q0 -45 -8.5 -96t-28.5 -102t-53 -98.5t-82 -84t-115.5 -58t-153.5 -21.5q-86 0 -151.5 21.5t-114 57t-81.5 81t-53.5 92.5t-29 92t-8.5 80v651q0 34 8 77.5t27.5 89t52.5 89.5t81.5 78.5t115.5 55.5t155 21q84 0 149.5 -23t114.5 -61t82.5 -86t54 -98.5
t29.5 -98.5t9 -85h-269q0 62 -19 99.5t-46 57.5t-56 26.5t-49 6.5q-21 0 -51.5 -5t-58 -21t-47 -46t-19.5 -81v-647q0 -52 19.5 -83t47 -47.5t58 -22t51.5 -5.5q20 0 49 6.5t56 27t46 58.5t19 102h269zM627 1557h-220l189 391h268z" />
    <glyph glyph-name="cacute" unicode="&#x107;" horiz-adv-x="1094" 
d="M127 0zM1006 442q0 -45 -8.5 -96t-28.5 -102t-53 -98.5t-82 -84t-115.5 -58t-153.5 -21.5q-86 0 -151.5 21.5t-114 57t-81.5 81t-53.5 92.5t-29 92t-8.5 80v651q0 34 8 77.5t27.5 89t52.5 89.5t81.5 78.5t115.5 55.5t155 21q84 0 149.5 -23t114.5 -61t82.5 -86t54 -98.5
t29.5 -98.5t9 -85h-269q0 62 -19 99.5t-46 57.5t-56 26.5t-49 6.5q-21 0 -51.5 -5t-58 -21t-47 -46t-19.5 -81v-647q0 -52 19.5 -83t47 -47.5t58 -22t51.5 -5.5q20 0 49 6.5t56 27t46 58.5t19 102h269zM627 1557h-220l189 391h268z" />
    <glyph glyph-name="Ccircumflex" unicode="&#x108;" horiz-adv-x="1094" 
d="M127 0zM1006 442q0 -45 -8.5 -96t-28.5 -102t-53 -98.5t-82 -84t-115.5 -58t-153.5 -21.5q-86 0 -151.5 21.5t-114 57t-81.5 81t-53.5 92.5t-29 92t-8.5 80v651q0 34 8 77.5t27.5 89t52.5 89.5t81.5 78.5t115.5 55.5t155 21q84 0 149.5 -23t114.5 -61t82.5 -86t54 -98.5
t29.5 -98.5t9 -85h-269q0 62 -19 99.5t-46 57.5t-56 26.5t-49 6.5q-21 0 -51.5 -5t-58 -21t-47 -46t-19.5 -81v-647q0 -52 19.5 -83t47 -47.5t58 -22t51.5 -5.5q20 0 49 6.5t56 27t46 58.5t19 102h269zM680 1581l-115 117l-115 -117h-248l283 351h160l278 -351h-243z" />
    <glyph glyph-name="ccircumflex" unicode="&#x109;" horiz-adv-x="1094" 
d="M127 0zM1006 442q0 -45 -8.5 -96t-28.5 -102t-53 -98.5t-82 -84t-115.5 -58t-153.5 -21.5q-86 0 -151.5 21.5t-114 57t-81.5 81t-53.5 92.5t-29 92t-8.5 80v651q0 34 8 77.5t27.5 89t52.5 89.5t81.5 78.5t115.5 55.5t155 21q84 0 149.5 -23t114.5 -61t82.5 -86t54 -98.5
t29.5 -98.5t9 -85h-269q0 62 -19 99.5t-46 57.5t-56 26.5t-49 6.5q-21 0 -51.5 -5t-58 -21t-47 -46t-19.5 -81v-647q0 -52 19.5 -83t47 -47.5t58 -22t51.5 -5.5q20 0 49 6.5t56 27t46 58.5t19 102h269zM676 1581l-115 117l-115 -117h-248l283 351h160l278 -351h-243z" />
    <glyph glyph-name="Cdotaccent" unicode="&#x10a;" horiz-adv-x="1094" 
d="M127 0zM1006 442q0 -45 -8.5 -96t-28.5 -102t-53 -98.5t-82 -84t-115.5 -58t-153.5 -21.5q-86 0 -151.5 21.5t-114 57t-81.5 81t-53.5 92.5t-29 92t-8.5 80v651q0 34 8 77.5t27.5 89t52.5 89.5t81.5 78.5t115.5 55.5t155 21q84 0 149.5 -23t114.5 -61t82.5 -86t54 -98.5
t29.5 -98.5t9 -85h-269q0 62 -19 99.5t-46 57.5t-56 26.5t-49 6.5q-21 0 -51.5 -5t-58 -21t-47 -46t-19.5 -81v-647q0 -52 19.5 -83t47 -47.5t58 -22t51.5 -5.5q20 0 49 6.5t56 27t46 58.5t19 102h269zM432 1579v249h261v-249h-261z" />
    <glyph glyph-name="cdotaccent" unicode="&#x10b;" horiz-adv-x="1094" 
d="M127 0zM1006 442q0 -45 -8.5 -96t-28.5 -102t-53 -98.5t-82 -84t-115.5 -58t-153.5 -21.5q-86 0 -151.5 21.5t-114 57t-81.5 81t-53.5 92.5t-29 92t-8.5 80v651q0 34 8 77.5t27.5 89t52.5 89.5t81.5 78.5t115.5 55.5t155 21q84 0 149.5 -23t114.5 -61t82.5 -86t54 -98.5
t29.5 -98.5t9 -85h-269q0 62 -19 99.5t-46 57.5t-56 26.5t-49 6.5q-21 0 -51.5 -5t-58 -21t-47 -46t-19.5 -81v-647q0 -52 19.5 -83t47 -47.5t58 -22t51.5 -5.5q20 0 49 6.5t56 27t46 58.5t19 102h269zM432 1579v249h261v-249h-261z" />
    <glyph glyph-name="Ccaron" unicode="&#x10c;" horiz-adv-x="1094" 
d="M127 0zM1006 442q0 -45 -8.5 -96t-28.5 -102t-53 -98.5t-82 -84t-115.5 -58t-153.5 -21.5q-86 0 -151.5 21.5t-114 57t-81.5 81t-53.5 92.5t-29 92t-8.5 80v651q0 34 8 77.5t27.5 89t52.5 89.5t81.5 78.5t115.5 55.5t155 21q84 0 149.5 -23t114.5 -61t82.5 -86t54 -98.5
t29.5 -98.5t9 -85h-269q0 62 -19 99.5t-46 57.5t-56 26.5t-49 6.5q-21 0 -51.5 -5t-58 -21t-47 -46t-19.5 -81v-647q0 -52 19.5 -83t47 -47.5t58 -22t51.5 -5.5q20 0 49 6.5t56 27t46 58.5t19 102h269zM452 1932l113 -115q26 28 57.5 58.5t57.5 56.5h245l-278 -351h-160
l-283 351h248z" />
    <glyph glyph-name="ccaron" unicode="&#x10d;" horiz-adv-x="1083" 
d="M118 0zM997 442q0 -45 -8.5 -96t-28.5 -102t-53 -98.5t-82 -84t-115.5 -58t-153.5 -21.5q-86 0 -151.5 21.5t-114 57t-81.5 81t-53.5 92.5t-29 92t-8.5 80v651q0 34 8 77.5t27.5 89t52.5 89.5t81.5 78.5t115.5 55.5t155 21q84 0 149.5 -23t114.5 -61t82.5 -86t54 -98.5
t29.5 -98.5t9 -85h-269q0 62 -19 99.5t-46 57.5t-56 26.5t-49 6.5q-21 0 -51.5 -5t-58 -21t-47 -46t-19.5 -81v-647q0 -52 19.5 -83t47 -47.5t58 -22t51.5 -5.5q20 0 49 6.5t56 27t46 58.5t19 102h269zM438 1932l113 -115q26 28 57.5 58.5t57.5 56.5h245l-278 -351h-160
l-283 351h248z" />
    <glyph glyph-name="Dcaron" unicode="&#x10e;" horiz-adv-x="1149" 
d="M147 0zM1022 418q0 -34 -6.5 -78.5t-23.5 -91t-47 -91t-75.5 -79.5t-109.5 -56.5t-150 -21.5h-463v1460h455q88 0 153.5 -21.5t112 -56.5t76.5 -79.5t47.5 -91t24 -90.5t6.5 -77v-626zM760 1038q0 52 -16.5 83t-40.5 47.5t-51.5 22t-49.5 5.5h-190v-932h194
q22 0 48.5 5.5t50 22t39.5 47t16 81.5v618zM438 1932l113 -115q26 28 57.5 58.5t57.5 56.5h245l-278 -351h-160l-283 351h248z" />
    <glyph glyph-name="dcaron" unicode="&#x10f;" horiz-adv-x="1561" 
d="M1022 418q0 -34 -6.5 -78.5t-23.5 -91t-47 -91t-75.5 -79.5t-109.5 -56.5t-150 -21.5h-463v1460h455q88 0 153.5 -21.5t112 -56.5t76.5 -79.5t47.5 -91t24 -90.5t6.5 -77v-626zM760 1038q0 52 -16.5 83t-40.5 47.5t-51.5 22t-49.5 5.5h-190v-932h194q22 0 48.5 5.5t50 22
t39.5 47t16 81.5v618zM1272 1028h-172l184 500h301z" />
    <glyph glyph-name="Dcroat" unicode="&#x110;" horiz-adv-x="1237" 
d="M1110 418q0 -34 -6.5 -78.5t-24 -91t-47 -91t-75.5 -79.5t-110.5 -56.5t-150.5 -21.5h-465v612h-104v256h104v592h459q87 0 152.5 -21.5t112 -56.5t76.5 -79.5t47.5 -91t24.5 -90.5t7 -77v-626zM844 1038q0 52 -16.5 83t-40.5 47.5t-50.5 22t-46.5 5.5h-192v-328h209
v-256h-209v-348h194q21 0 47.5 5.5t49.5 22t39 47t16 81.5v618z" />
    <glyph glyph-name="dcroat" unicode="&#x111;" horiz-adv-x="1237" 
d="M1110 418q0 -34 -6.5 -78.5t-24 -91t-47 -91t-75.5 -79.5t-110.5 -56.5t-150.5 -21.5h-465v612h-104v256h104v592h459q87 0 152.5 -21.5t112 -56.5t76.5 -79.5t47.5 -91t24.5 -90.5t7 -77v-626zM844 1038q0 52 -16.5 83t-40.5 47.5t-50.5 22t-46.5 5.5h-192v-328h209
v-256h-209v-348h194q21 0 47.5 5.5t49.5 22t39 47t16 81.5v618z" />
    <glyph glyph-name="Emacron" unicode="&#x112;" horiz-adv-x="1077" 
d="M147 0zM147 0v1458h844v-264h-579v-295h536v-264h-536v-371h579v-264h-844zM237 1579v219h658v-219h-658z" />
    <glyph glyph-name="emacron" unicode="&#x113;" horiz-adv-x="1077" 
d="M147 0zM147 0v1458h844v-264h-579v-295h536v-264h-536v-371h579v-264h-844zM237 1579v219h658v-219h-658z" />
    <glyph glyph-name="Ebreve" unicode="&#x114;" horiz-adv-x="1077" 
d="M147 0zM147 0v1458h844v-264h-579v-295h536v-264h-536v-371h579v-264h-844zM931 1908q-12 -100 -43 -167t-77.5 -107.5t-107.5 -58t-132 -17.5q-72 0 -134 21t-109 64t-77.5 109t-40.5 156h215q11 -71 50.5 -111t95.5 -40q57 0 95 40t50 111h215z" />
    <glyph glyph-name="ebreve" unicode="&#x115;" horiz-adv-x="1077" 
d="M147 0zM147 0v1458h844v-264h-579v-295h536v-264h-536v-371h579v-264h-844zM934 1908q-12 -100 -43 -167t-77.5 -107.5t-107.5 -58t-132 -17.5q-72 0 -134 21t-109 64t-77.5 109t-40.5 156h215q11 -71 50.5 -111t95.5 -40q57 0 95 40t50 111h215z" />
    <glyph glyph-name="Edotaccent" unicode="&#x116;" horiz-adv-x="1077" 
d="M147 0zM147 0v1458h844v-264h-579v-295h536v-264h-536v-371h579v-264h-844zM430 1579v249h261v-249h-261z" />
    <glyph glyph-name="edotaccent" unicode="&#x117;" horiz-adv-x="1077" 
d="M147 0zM147 0v1458h844v-264h-579v-295h536v-264h-536v-371h579v-264h-844zM430 1579v249h261v-249h-261z" />
    <glyph glyph-name="Eogonek" unicode="&#x118;" horiz-adv-x="1077" 
d="M147 0zM147 0v1458h844v-264h-579v-295h536v-264h-536v-371h579v-264h-844zM657 -433l-205 385h248l234 -385h-277z" />
    <glyph glyph-name="eogonek" unicode="&#x119;" horiz-adv-x="1077" 
d="M147 0zM147 0v1458h844v-264h-579v-295h536v-264h-536v-371h579v-264h-844zM655 -433l-205 385h248l234 -385h-277z" />
    <glyph glyph-name="Ecaron" unicode="&#x11a;" horiz-adv-x="1077" 
d="M147 0zM147 0v1458h844v-264h-579v-295h536v-264h-536v-371h579v-264h-844zM438 1932l113 -115q26 28 57.5 58.5t57.5 56.5h245l-278 -351h-160l-283 351h248z" />
    <glyph glyph-name="ecaron" unicode="&#x11b;" horiz-adv-x="1077" 
d="M147 0zM147 0v1458h844v-264h-579v-295h536v-264h-536v-371h579v-264h-844zM438 1932l113 -115q26 28 57.5 58.5t57.5 56.5h245l-278 -351h-160l-283 351h248z" />
    <glyph glyph-name="Gcircumflex" unicode="&#x11c;" 
d="M127 0zM1006 403q0 -35 -9 -79.5t-29.5 -91.5t-54 -92t-82.5 -80t-115.5 -56.5t-152.5 -21.5t-151.5 21.5t-113.5 57t-81 81t-53 92.5t-28.5 92t-8.5 80v651q0 34 8 77.5t27.5 89t52.5 89.5t81.5 78.5t115.5 55.5t155 21q84 0 149.5 -22t114.5 -59t82.5 -84.5t54 -97.5
t29.5 -99t9 -90h-269q0 61 -19 98.5t-46 57t-56 26t-49 6.5q-21 0 -51.5 -5t-58 -20.5t-47 -45.5t-19.5 -80v-647q0 -52 19.5 -82.5t47 -47t58 -21.5t51.5 -5q20 0 49 5t56 21.5t46 47t19 82.5v186h-213v266h482v-455zM688 1581l-115 117l-115 -117h-248l283 351h160
l278 -351h-243z" />
    <glyph glyph-name="gcircumflex" unicode="&#x11d;" 
d="M127 0zM1006 403q0 -35 -9 -79.5t-29.5 -91.5t-54 -92t-82.5 -80t-115.5 -56.5t-152.5 -21.5t-151.5 21.5t-113.5 57t-81 81t-53 92.5t-28.5 92t-8.5 80v651q0 34 8 77.5t27.5 89t52.5 89.5t81.5 78.5t115.5 55.5t155 21q84 0 149.5 -22t114.5 -59t82.5 -84.5t54 -97.5
t29.5 -99t9 -90h-269q0 61 -19 98.5t-46 57t-56 26t-49 6.5q-21 0 -51.5 -5t-58 -20.5t-47 -45.5t-19.5 -80v-647q0 -52 19.5 -82.5t47 -47t58 -21.5t51.5 -5q20 0 49 5t56 21.5t46 47t19 82.5v186h-213v266h482v-455zM684 1581l-115 117l-115 -117h-248l283 351h160
l278 -351h-243z" />
    <glyph glyph-name="Gbreve" unicode="&#x11e;" 
d="M127 0zM1006 403q0 -35 -9 -79.5t-29.5 -91.5t-54 -92t-82.5 -80t-115.5 -56.5t-152.5 -21.5t-151.5 21.5t-113.5 57t-81 81t-53 92.5t-28.5 92t-8.5 80v651q0 34 8 77.5t27.5 89t52.5 89.5t81.5 78.5t115.5 55.5t155 21q84 0 149.5 -22t114.5 -59t82.5 -84.5t54 -97.5
t29.5 -99t9 -90h-269q0 61 -19 98.5t-46 57t-56 26t-49 6.5q-21 0 -51.5 -5t-58 -20.5t-47 -45.5t-19.5 -80v-647q0 -52 19.5 -82.5t47 -47t58 -21.5t51.5 -5q20 0 49 5t56 21.5t46 47t19 82.5v186h-213v266h482v-455zM917 1906q-12 -100 -43 -167t-77.5 -107.5t-107.5 -58
t-132 -17.5q-72 0 -134 21t-109 64t-77.5 109t-40.5 156h215q11 -71 50.5 -111t95.5 -40q57 0 95 40t50 111h215z" />
    <glyph glyph-name="gbreve" unicode="&#x11f;" 
d="M127 0zM1006 403q0 -35 -9 -79.5t-29.5 -91.5t-54 -92t-82.5 -80t-115.5 -56.5t-152.5 -21.5t-151.5 21.5t-113.5 57t-81 81t-53 92.5t-28.5 92t-8.5 80v651q0 34 8 77.5t27.5 89t52.5 89.5t81.5 78.5t115.5 55.5t155 21q84 0 149.5 -22t114.5 -59t82.5 -84.5t54 -97.5
t29.5 -99t9 -90h-269q0 61 -19 98.5t-46 57t-56 26t-49 6.5q-21 0 -51.5 -5t-58 -20.5t-47 -45.5t-19.5 -80v-647q0 -52 19.5 -82.5t47 -47t58 -21.5t51.5 -5q20 0 49 5t56 21.5t46 47t19 82.5v186h-213v266h482v-455zM919 1906q-12 -100 -43 -167t-77.5 -107.5t-107.5 -58
t-132 -17.5q-72 0 -134 21t-109 64t-77.5 109t-40.5 156h215q11 -71 50.5 -111t95.5 -40q57 0 95 40t50 111h215z" />
    <glyph glyph-name="Gdotaccent" unicode="&#x120;" 
d="M127 0zM1006 403q0 -35 -9 -79.5t-29.5 -91.5t-54 -92t-82.5 -80t-115.5 -56.5t-152.5 -21.5t-151.5 21.5t-113.5 57t-81 81t-53 92.5t-28.5 92t-8.5 80v651q0 34 8 77.5t27.5 89t52.5 89.5t81.5 78.5t115.5 55.5t155 21q84 0 149.5 -22t114.5 -59t82.5 -84.5t54 -97.5
t29.5 -99t9 -90h-269q0 61 -19 98.5t-46 57t-56 26t-49 6.5q-21 0 -51.5 -5t-58 -20.5t-47 -45.5t-19.5 -80v-647q0 -52 19.5 -82.5t47 -47t58 -21.5t51.5 -5q20 0 49 5t56 21.5t46 47t19 82.5v186h-213v266h482v-455zM444 1579v249h261v-249h-261z" />
    <glyph glyph-name="gdotaccent" unicode="&#x121;" 
d="M127 0zM1006 403q0 -35 -9 -79.5t-29.5 -91.5t-54 -92t-82.5 -80t-115.5 -56.5t-152.5 -21.5t-151.5 21.5t-113.5 57t-81 81t-53 92.5t-28.5 92t-8.5 80v651q0 34 8 77.5t27.5 89t52.5 89.5t81.5 78.5t115.5 55.5t155 21q84 0 149.5 -22t114.5 -59t82.5 -84.5t54 -97.5
t29.5 -99t9 -90h-269q0 61 -19 98.5t-46 57t-56 26t-49 6.5q-21 0 -51.5 -5t-58 -20.5t-47 -45.5t-19.5 -80v-647q0 -52 19.5 -82.5t47 -47t58 -21.5t51.5 -5q20 0 49 5t56 21.5t46 47t19 82.5v186h-213v266h482v-455zM444 1579v249h261v-249h-261z" />
    <glyph glyph-name="Gcommaaccent" unicode="&#x122;" 
d="M127 0zM1006 403q0 -35 -9 -79.5t-29.5 -91.5t-54 -92t-82.5 -80t-115.5 -56.5t-152.5 -21.5t-151.5 21.5t-113.5 57t-81 81t-53 92.5t-28.5 92t-8.5 80v651q0 34 8 77.5t27.5 89t52.5 89.5t81.5 78.5t115.5 55.5t155 21q84 0 149.5 -22t114.5 -59t82.5 -84.5t54 -97.5
t29.5 -99t9 -90h-269q0 61 -19 98.5t-46 57t-56 26t-49 6.5q-21 0 -51.5 -5t-58 -20.5t-47 -45.5t-19.5 -80v-647q0 -52 19.5 -82.5t47 -47t58 -21.5t51.5 -5q20 0 49 5t56 21.5t46 47t19 82.5v186h-213v266h482v-455zM538 -435h-254l183 385h221z" />
    <glyph glyph-name="gcommaaccent" unicode="&#x123;" 
d="M127 0zM1006 403q0 -35 -9 -79.5t-29.5 -91.5t-54 -92t-82.5 -80t-115.5 -56.5t-152.5 -21.5t-151.5 21.5t-113.5 57t-81 81t-53 92.5t-28.5 92t-8.5 80v651q0 34 8 77.5t27.5 89t52.5 89.5t81.5 78.5t115.5 55.5t155 21q84 0 149.5 -22t114.5 -59t82.5 -84.5t54 -97.5
t29.5 -99t9 -90h-269q0 61 -19 98.5t-46 57t-56 26t-49 6.5q-21 0 -51.5 -5t-58 -20.5t-47 -45.5t-19.5 -80v-647q0 -52 19.5 -82.5t47 -47t58 -21.5t51.5 -5q20 0 49 5t56 21.5t46 47t19 82.5v186h-213v266h482v-455zM540 -437h-254l183 385h221z" />
    <glyph glyph-name="Hcircumflex" unicode="&#x124;" horiz-adv-x="1198" 
d="M147 0zM782 0v629h-368v-629h-267v1458h267v-563h368v563h269v-1458h-269zM701 1581l-115 117l-115 -117h-248l283 351h160l278 -351h-243z" />
    <glyph glyph-name="hcircumflex" unicode="&#x125;" horiz-adv-x="1198" 
d="M147 0zM782 0v629h-368v-629h-267v1458h267v-563h368v563h269v-1458h-269zM701 1581l-115 117l-115 -117h-248l283 351h160l278 -351h-243z" />
    <glyph glyph-name="Hbar" unicode="&#x126;" horiz-adv-x="1182" 
d="M780 0v629h-370v-629h-267v1114h-98v217h98v127h267v-127h370v127h267v-127h90v-217h-90v-1114h-267zM780 895v219h-370v-219h370z" />
    <glyph glyph-name="hbar" unicode="&#x127;" horiz-adv-x="1182" 
d="M780 0v629h-370v-629h-267v1114h-98v217h98v127h267v-127h370v127h267v-127h90v-217h-90v-1114h-267zM780 895v219h-370v-219h370z" />
    <glyph glyph-name="Itilde" unicode="&#x128;" horiz-adv-x="565" 
d="M0 0zM416 1458v-1458h-267v1458h267zM655 1702q-51 -48 -89 -77t-67 -44t-51.5 -19.5t-42.5 -4.5q-35 0 -66 11.5t-59 28.5q-25 14 -52 26.5t-55 12.5q-6 0 -12.5 -1.5t-17 -9t-28.5 -22.5t-46 -42l-148 143q49 49 87 78t67.5 44.5t52.5 20t43 4.5q35 0 65.5 -13.5
t59.5 -27.5q25 -14 51.5 -26t55.5 -12q4 0 11.5 3t19.5 11t30 23.5t43 39.5z" />
    <glyph glyph-name="itilde" unicode="&#x129;" horiz-adv-x="565" 
d="M0 0zM416 1458v-1458h-267v1458h267zM653 1702q-51 -48 -89 -77t-67 -44t-51.5 -19.5t-42.5 -4.5q-35 0 -66 11.5t-59 28.5q-25 14 -52 26.5t-55 12.5q-6 0 -12.5 -1.5t-17 -9t-28.5 -22.5t-46 -42l-148 143q49 49 87 78t67.5 44.5t52.5 20t43 4.5q35 0 65.5 -13.5
t59.5 -27.5q25 -14 51.5 -26t55.5 -12q4 0 11.5 3t19.5 11t30 23.5t43 39.5z" />
    <glyph glyph-name="uni012A" unicode="&#x12a;" horiz-adv-x="561" 
d="M0 0zM414 1458v-1458h-267v1458h267zM-49 1579v219h658v-219h-658z" />
    <glyph glyph-name="imacron" unicode="&#x12b;" horiz-adv-x="561" 
d="M0 0zM414 1458v-1458h-267v1458h267zM-49 1579v219h658v-219h-658z" />
    <glyph glyph-name="Ibreve" unicode="&#x12c;" horiz-adv-x="561" 
d="M0 0zM414 1458v-1458h-267v1458h267zM642 1906q-12 -100 -43 -167t-77.5 -107.5t-107.5 -58t-132 -17.5q-72 0 -134 21t-109 64t-77.5 109t-40.5 156h215q11 -71 50.5 -111t95.5 -40q57 0 95 40t50 111h215z" />
    <glyph glyph-name="uni012D" unicode="&#x12d;" horiz-adv-x="561" 
d="M0 0zM414 1458v-1458h-267v1458h267zM642 1906q-12 -100 -43 -167t-77.5 -107.5t-107.5 -58t-132 -17.5q-72 0 -134 21t-109 64t-77.5 109t-40.5 156h215q11 -71 50.5 -111t95.5 -40q57 0 95 40t50 111h215z" />
    <glyph glyph-name="Iogonek" unicode="&#x12e;" horiz-adv-x="561" 
d="M147 0zM414 1458v-1458h-267v1458h267zM366 -433l-205 385h248l234 -385h-277z" />
    <glyph glyph-name="iogonek" unicode="&#x12f;" horiz-adv-x="561" 
d="M147 0zM414 1458v-1458h-267v1458h267zM368 -433l-205 385h248l234 -385h-277z" />
    <glyph glyph-name="Idotaccent" unicode="&#x130;" horiz-adv-x="561" 
d="M147 0zM414 1458v-1458h-267v1458h267zM151 1579v249h261v-249h-261z" />
    <glyph glyph-name="dotlessi" unicode="&#x131;" horiz-adv-x="561" 
d="M147 0zM414 1458v-1458h-267v1458h267z" />
    <glyph glyph-name="IJ" unicode="&#x132;" horiz-adv-x="1458" 
d="M146 0zM413 1458v-1458h-267v1458h267zM1319 401q0 -99 -26.5 -177t-78 -131.5t-126 -82t-170.5 -28.5q-95 0 -169.5 33.5t-126 93.5t-78.5 144.5t-27 186.5h266q0 -62 13 -99.5t33.5 -58t44.5 -27.5t46 -7q21 0 45 5.5t44 20.5t33 42.5t13 72.5v805h-399v264h663v-1057z
" />
    <glyph glyph-name="ij" unicode="&#x133;" horiz-adv-x="1458" 
d="M146 0zM413 1458v-1458h-267v1458h267zM1319 401q0 -99 -26.5 -177t-78 -131.5t-126 -82t-170.5 -28.5q-95 0 -169.5 33.5t-126 93.5t-78.5 144.5t-27 186.5h266q0 -62 13 -99.5t33.5 -58t44.5 -27.5t46 -7q21 0 45 5.5t44 20.5t33 42.5t13 72.5v805h-399v264h663v-1057z
" />
    <glyph glyph-name="Jcircumflex" unicode="&#x134;" horiz-adv-x="1004" 
d="M25 0zM827 401q0 -99 -26.5 -177t-78 -131.5t-126 -82t-170.5 -28.5q-95 0 -169.5 33.5t-126 93.5t-78.5 144.5t-27 186.5h266q0 -62 13 -99.5t33.5 -58t44.5 -27.5t46 -7q21 0 45 5.5t44 20.5t33 42.5t13 72.5v805h-399v264h663v-1057zM585 1581l-115 117l-115 -117
h-248l283 351h160l278 -351h-243z" />
    <glyph glyph-name="jcircumflex" unicode="&#x135;" horiz-adv-x="1004" 
d="M25 0zM827 401q0 -99 -26.5 -177t-78 -131.5t-126 -82t-170.5 -28.5q-95 0 -169.5 33.5t-126 93.5t-78.5 144.5t-27 186.5h266q0 -62 13 -99.5t33.5 -58t44.5 -27.5t46 -7q21 0 45 5.5t44 20.5t33 42.5t13 72.5v805h-399v264h663v-1057zM585 1581l-115 117l-115 -117
h-248l283 351h160l278 -351h-243z" />
    <glyph glyph-name="Kcommaaccent" unicode="&#x136;" horiz-adv-x="1137" 
d="M147 0zM786 0l-321 561l-51 -74v-487h-267v1458h267v-528l358 528h311l-462 -661l481 -797h-316zM1020 -433l-205 385h248l234 -385h-277z" />
    <glyph glyph-name="kcommaaccent" unicode="&#x137;" horiz-adv-x="1137" 
d="M147 0zM786 0l-321 561l-51 -74v-487h-267v1458h267v-528l358 528h311l-462 -661l481 -797h-316zM1020 -433l-205 385h248l234 -385h-277z" />
    <glyph glyph-name="Lacute" unicode="&#x139;" horiz-adv-x="1004" 
d="M147 0zM147 0v1458h265v-1194h577v-264h-842zM377 1557h-220l189 391h268z" />
    <glyph glyph-name="lacute" unicode="&#x13a;" horiz-adv-x="1004" 
d="M147 0zM147 0v1458h265v-1194h577v-264h-842zM371 1557h-220l189 391h268z" />
    <glyph glyph-name="Lcommaaccent" unicode="&#x13b;" horiz-adv-x="1004" 
d="M147 0zM147 0v1458h265v-1194h577v-264h-842zM571 -433h-254l183 385h221z" />
    <glyph glyph-name="lcommaaccent" unicode="&#x13c;" horiz-adv-x="1004" 
d="M147 0zM147 0v1458h265v-1194h577v-264h-842zM571 -433h-254l183 385h221z" />
    <glyph glyph-name="Lcaron" unicode="&#x13d;" horiz-adv-x="1004" 
d="M147 0zM147 0v1458h265v-1194h577v-264h-842zM381 1557h-220l189 391h268z" />
    <glyph glyph-name="lcaron" unicode="&#x13e;" horiz-adv-x="1075" 
d="M147 0zM147 0v1458h265v-1194h577v-264h-842zM737 1022h-172l184 500h301z" />
    <glyph glyph-name="Ldot" unicode="&#x13f;" horiz-adv-x="1004" 
d="M147 0zM147 0v1458h265v-1194h577v-264h-842zM534 399v287h283v-287h-283z" />
    <glyph glyph-name="ldot" unicode="&#x140;" horiz-adv-x="1004" 
d="M147 0zM147 0v1458h265v-1194h577v-264h-842zM534 399v287h283v-287h-283z" />
    <glyph glyph-name="Lslash" unicode="&#x141;" horiz-adv-x="987" 
d="M133 0v469h-102v258h102v731h266v-731h562v-258h-562v-205h574v-264h-840z" />
    <glyph glyph-name="lslash" unicode="&#x142;" horiz-adv-x="987" 
d="M133 0v469h-102v258h102v731h266v-731h562v-258h-562v-205h574v-264h-840z" />
    <glyph glyph-name="Nacute" unicode="&#x143;" horiz-adv-x="1180" 
d="M147 0zM758 0l-344 807v-807h-267v1458h271l352 -823v823h262v-1458h-274zM635 1557h-220l189 391h268z" />
    <glyph glyph-name="nacute" unicode="&#x144;" horiz-adv-x="1180" 
d="M147 0zM758 0l-344 807v-807h-267v1458h271l352 -823v823h262v-1458h-274zM635 1557h-220l189 391h268z" />
    <glyph glyph-name="Ncommaaccent" unicode="&#x145;" horiz-adv-x="1180" 
d="M147 0zM758 0l-344 807v-807h-267v1458h271l352 -823v823h262v-1458h-274zM1009 -433l-205 385h248l234 -385h-277z" />
    <glyph glyph-name="ncommaaccent" unicode="&#x146;" horiz-adv-x="1180" 
d="M147 0zM758 0l-344 807v-807h-267v1458h271l352 -823v823h262v-1458h-274zM1009 -433l-205 385h248l234 -385h-277z" />
    <glyph glyph-name="Ncaron" unicode="&#x147;" horiz-adv-x="1180" 
d="M147 0zM758 0l-344 807v-807h-267v1458h271l352 -823v823h262v-1458h-274zM520 1932l113 -115q26 28 57.5 58.5t57.5 56.5h245l-278 -351h-160l-283 351h248z" />
    <glyph glyph-name="ncaron" unicode="&#x148;" horiz-adv-x="1180" 
d="M147 0zM758 0l-344 807v-807h-267v1458h271l352 -823v823h262v-1458h-274zM520 1932l113 -115q26 28 57.5 58.5t57.5 56.5h245l-278 -351h-160l-283 351h248z" />
    <glyph glyph-name="napostrophe" unicode="&#x149;" horiz-adv-x="1718" 
d="M1296 0l-344 807v-807h-266v1458h270l353 -823v823h262v-1458h-275zM319 1034h-172l184 500h301z" />
    <glyph glyph-name="Eng" unicode="&#x14a;" horiz-adv-x="1180" 
d="M594 -145q28 0 59.5 5.5t57 20.5t42.5 42.5t17 72.5v4h-12l-344 807v-807h-267v1458h273l350 -823v823h262v-1450q0 -99 -29.5 -177t-85.5 -132t-137.5 -82.5t-185.5 -28.5v267z" />
    <glyph glyph-name="eng" unicode="&#x14b;" horiz-adv-x="1104" 
d="M965 -84q0 -82 -22.5 -140.5t-61 -95.5t-91 -54t-112.5 -17h-109v254h103q15 0 27 9.5t12 35.5v776q0 25 -4 51.5t-18.5 47.5t-41.5 34.5t-72 13.5q-35 0 -66.5 -10.5t-55 -29t-37 -45t-13.5 -58.5v-688h-256v1069h256v-18q41 18 84 26t88 8q96 0 169 -27.5t122 -79.5
t74 -126t25 -168v-768z" />
    <glyph glyph-name="Omacron" unicode="&#x14c;" 
d="M127 0zM1006 403q0 -35 -8.5 -79.5t-28.5 -91.5t-53 -92t-82 -80t-115.5 -56.5t-153.5 -21.5q-86 0 -151.5 21.5t-114 57t-81.5 81t-53.5 92.5t-29 92t-8.5 80v651q0 34 8 77.5t27.5 89t52.5 89.5t81.5 78.5t115.5 55.5t155 21q84 0 149.5 -21t114.5 -55.5t82.5 -78.5
t54 -90t29.5 -90t9 -78v-652zM737 1053q0 51 -19 81t-46 46t-56 21t-49 5q-21 0 -51.5 -5t-58 -21t-47 -46t-19.5 -81v-647q0 -52 19.5 -83t47 -47.5t58 -22t51.5 -5.5q20 0 49 5.5t56 22t46 47.5t19 83v647zM241 1579v219h658v-219h-658z" />
    <glyph glyph-name="omacron" unicode="&#x14d;" 
d="M127 0zM1006 403q0 -35 -8.5 -79.5t-28.5 -91.5t-53 -92t-82 -80t-115.5 -56.5t-153.5 -21.5q-86 0 -151.5 21.5t-114 57t-81.5 81t-53.5 92.5t-29 92t-8.5 80v651q0 34 8 77.5t27.5 89t52.5 89.5t81.5 78.5t115.5 55.5t155 21q84 0 149.5 -21t114.5 -55.5t82.5 -78.5
t54 -90t29.5 -90t9 -78v-652zM737 1053q0 51 -19 81t-46 46t-56 21t-49 5q-21 0 -51.5 -5t-58 -21t-47 -46t-19.5 -81v-647q0 -52 19.5 -83t47 -47.5t58 -22t51.5 -5.5q20 0 49 5.5t56 22t46 47.5t19 83v647zM241 1579v219h658v-219h-658z" />
    <glyph glyph-name="Obreve" unicode="&#x14e;" 
d="M127 0zM1006 403q0 -35 -8.5 -79.5t-28.5 -91.5t-53 -92t-82 -80t-115.5 -56.5t-153.5 -21.5q-86 0 -151.5 21.5t-114 57t-81.5 81t-53.5 92.5t-29 92t-8.5 80v651q0 34 8 77.5t27.5 89t52.5 89.5t81.5 78.5t115.5 55.5t155 21q84 0 149.5 -21t114.5 -55.5t82.5 -78.5
t54 -90t29.5 -90t9 -78v-652zM737 1053q0 51 -19 81t-46 46t-56 21t-49 5q-21 0 -51.5 -5t-58 -21t-47 -46t-19.5 -81v-647q0 -52 19.5 -83t47 -47.5t58 -22t51.5 -5.5q20 0 49 5.5t56 22t46 47.5t19 83v647zM936 1906q-12 -100 -43 -167t-77.5 -107.5t-107.5 -58
t-132 -17.5q-72 0 -134 21t-109 64t-77.5 109t-40.5 156h215q11 -71 50.5 -111t95.5 -40q57 0 95 40t50 111h215z" />
    <glyph glyph-name="obreve" unicode="&#x14f;" 
d="M127 0zM1006 403q0 -35 -8.5 -79.5t-28.5 -91.5t-53 -92t-82 -80t-115.5 -56.5t-153.5 -21.5q-86 0 -151.5 21.5t-114 57t-81.5 81t-53.5 92.5t-29 92t-8.5 80v651q0 34 8 77.5t27.5 89t52.5 89.5t81.5 78.5t115.5 55.5t155 21q84 0 149.5 -21t114.5 -55.5t82.5 -78.5
t54 -90t29.5 -90t9 -78v-652zM737 1053q0 51 -19 81t-46 46t-56 21t-49 5q-21 0 -51.5 -5t-58 -21t-47 -46t-19.5 -81v-647q0 -52 19.5 -83t47 -47.5t58 -22t51.5 -5.5q20 0 49 5.5t56 22t46 47.5t19 83v647zM936 1906q-12 -100 -43 -167t-77.5 -107.5t-107.5 -58
t-132 -17.5q-72 0 -134 21t-109 64t-77.5 109t-40.5 156h215q11 -71 50.5 -111t95.5 -40q57 0 95 40t50 111h215z" />
    <glyph glyph-name="Ohungarumlaut" unicode="&#x150;" horiz-adv-x="1221" 
d="M127 0zM1006 403q0 -35 -8.5 -79.5t-28.5 -91.5t-53 -92t-82 -80t-115.5 -56.5t-153.5 -21.5q-86 0 -151.5 21.5t-114 57t-81.5 81t-53.5 92.5t-29 92t-8.5 80v651q0 34 8 77.5t27.5 89t52.5 89.5t81.5 78.5t115.5 55.5t155 21q84 0 149.5 -21t114.5 -55.5t82.5 -78.5
t54 -90t29.5 -90t9 -78v-652zM737 1053q0 51 -19 81t-46 46t-56 21t-49 5q-21 0 -51.5 -5t-58 -21t-47 -46t-19.5 -81v-647q0 -52 19.5 -83t47 -47.5t58 -22t51.5 -5.5q20 0 49 5.5t56 22t46 47.5t19 83v647zM811 1556h-248l232 389h299zM440 1556h-248l228 389h293z" />
    <glyph glyph-name="ohungarumlaut" unicode="&#x151;" horiz-adv-x="1221" 
d="M127 0zM1006 403q0 -35 -8.5 -79.5t-28.5 -91.5t-53 -92t-82 -80t-115.5 -56.5t-153.5 -21.5q-86 0 -151.5 21.5t-114 57t-81.5 81t-53.5 92.5t-29 92t-8.5 80v651q0 34 8 77.5t27.5 89t52.5 89.5t81.5 78.5t115.5 55.5t155 21q84 0 149.5 -21t114.5 -55.5t82.5 -78.5
t54 -90t29.5 -90t9 -78v-652zM737 1053q0 51 -19 81t-46 46t-56 21t-49 5q-21 0 -51.5 -5t-58 -21t-47 -46t-19.5 -81v-647q0 -52 19.5 -83t47 -47.5t58 -22t51.5 -5.5q20 0 49 5.5t56 22t46 47.5t19 83v647zM811 1556h-248l232 389h299zM440 1556h-248l228 389h293z" />
    <glyph glyph-name="OE" unicode="&#x152;" horiz-adv-x="1669" 
d="M737 0v14q-37 -15 -80 -23.5t-94 -8.5q-84 0 -149 21.5t-113.5 57t-81.5 81t-53.5 92.5t-29.5 92t-9 80v651q0 34 8.5 77.5t28 89t52 89.5t81 78.5t115 55.5t153.5 21q101 0 172 -26v16h846v-264h-579v-295h536v-264h-536v-371h579v-264h-846zM565 248q21 0 50 5t56 20.5
t46 43.5t20 74v662q0 51 -18.5 81t-45.5 46t-56.5 21t-51.5 5q-21 0 -50.5 -5t-56.5 -21t-46 -46t-19 -81v-647q0 -52 19 -83t46 -47.5t56.5 -22t50.5 -5.5z" />
    <glyph glyph-name="oe" unicode="&#x153;" horiz-adv-x="1669" 
d="M737 0v14q-37 -15 -80 -23.5t-94 -8.5q-84 0 -149 21.5t-113.5 57t-81.5 81t-53.5 92.5t-29.5 92t-9 80v651q0 34 8.5 77.5t28 89t52 89.5t81 78.5t115 55.5t153.5 21q101 0 172 -26v16h846v-264h-579v-295h536v-264h-536v-371h579v-264h-846zM565 248q21 0 50 5t56 20.5
t46 43.5t20 74v662q0 51 -18.5 81t-45.5 46t-56.5 21t-51.5 5q-21 0 -50.5 -5t-56.5 -21t-46 -46t-19 -81v-647q0 -52 19 -83t46 -47.5t56.5 -22t50.5 -5.5z" />
    <glyph glyph-name="Racute" unicode="&#x154;" horiz-adv-x="1141" 
d="M147 0zM797 0l-265 563h-118v-563h-267v1458h457q88 0 154 -21.5t113 -56t77.5 -79t48 -90.5t24.5 -90t7 -77v-63q0 -39 -9 -91t-33 -105.5t-67 -102t-110 -80.5l287 -602h-299zM760 1038q0 51 -17 81.5t-41.5 47t-52.5 22t-49 5.5h-186v-367h190q22 0 49 5t51 21.5
t40 47.5t16 82v55zM611 1557h-220l189 391h268z" />
    <glyph glyph-name="racute" unicode="&#x155;" horiz-adv-x="1141" 
d="M147 0zM797 0l-265 563h-118v-563h-267v1458h457q88 0 154 -21.5t113 -56t77.5 -79t48 -90.5t24.5 -90t7 -77v-63q0 -39 -9 -91t-33 -105.5t-67 -102t-110 -80.5l287 -602h-299zM760 1038q0 51 -17 81.5t-41.5 47t-52.5 22t-49 5.5h-186v-367h190q22 0 49 5t51 21.5
t40 47.5t16 82v55zM611 1557h-220l189 391h268z" />
    <glyph glyph-name="Rcommaaccent" unicode="&#x156;" horiz-adv-x="1145" 
d="M147 0zM797 0l-265 563h-118v-563h-267v1458h457q88 0 154 -21.5t113 -56t77.5 -79t48 -90.5t24.5 -90t7 -77v-63q0 -39 -9 -91t-33 -105.5t-67 -102t-110 -80.5l287 -602h-299zM760 1038q0 51 -17 81.5t-41.5 47t-52.5 22t-49 5.5h-186v-367h190q22 0 49 5t51 21.5
t40 47.5t16 82v55zM559 -431h-254l183 385h221z" />
    <glyph glyph-name="rcommaaccent" unicode="&#x157;" horiz-adv-x="1145" 
d="M147 0zM797 0l-265 563h-118v-563h-267v1458h457q88 0 154 -21.5t113 -56t77.5 -79t48 -90.5t24.5 -90t7 -77v-63q0 -39 -9 -91t-33 -105.5t-67 -102t-110 -80.5l287 -602h-299zM760 1038q0 51 -17 81.5t-41.5 47t-52.5 22t-49 5.5h-186v-367h190q22 0 49 5t51 21.5
t40 47.5t16 82v55zM559 -431h-254l183 385h221z" />
    <glyph glyph-name="Rcaron" unicode="&#x158;" horiz-adv-x="1141" 
d="M147 0zM797 0l-265 563h-118v-563h-267v1458h457q88 0 154 -21.5t113 -56t77.5 -79t48 -90.5t24.5 -90t7 -77v-63q0 -39 -9 -91t-33 -105.5t-67 -102t-110 -80.5l287 -602h-299zM760 1038q0 51 -17 81.5t-41.5 47t-52.5 22t-49 5.5h-186v-367h190q22 0 49 5t51 21.5
t40 47.5t16 82v55zM438 1932l113 -115q26 28 57.5 58.5t57.5 56.5h245l-278 -351h-160l-283 351h248z" />
    <glyph glyph-name="rcaron" unicode="&#x159;" horiz-adv-x="1141" 
d="M147 0zM797 0l-265 563h-118v-563h-267v1458h457q88 0 154 -21.5t113 -56t77.5 -79t48 -90.5t24.5 -90t7 -77v-63q0 -39 -9 -91t-33 -105.5t-67 -102t-110 -80.5l287 -602h-299zM760 1038q0 51 -17 81.5t-41.5 47t-52.5 22t-49 5.5h-186v-367h190q22 0 49 5t51 21.5
t40 47.5t16 82v55zM440 1932l113 -115q26 28 57.5 58.5t57.5 56.5h245l-278 -351h-160l-283 351h248z" />
    <glyph glyph-name="Sacute" unicode="&#x15a;" horiz-adv-x="1085" 
d="M88 0zM997 403q0 -91 -35.5 -168t-97 -133.5t-146 -88t-181.5 -31.5q-102 0 -185 35t-141.5 96.5t-90.5 146t-32 182.5h264q0 -48 14 -84.5t38.5 -61t58 -37.5t72.5 -13q46 0 83 12t63 33.5t40 51t14 65.5q0 55 -28.5 91.5t-71.5 61.5q-42 25 -118 63.5t-198 100.5
q-44 22 -82 57.5t-66 81t-44 99t-16 110.5q0 88 31.5 161t88 125.5t135 81.5t173.5 29q98 0 179.5 -34t140 -94t90.5 -142.5t32 -179.5h-268q0 45 -13 80t-36.5 59t-55.5 36.5t-69 12.5q-34 0 -63.5 -9t-52 -26.5t-35.5 -43.5t-13 -60q0 -37 22 -67t64 -52q66 -34 113 -58
t81.5 -41t59 -30t45.5 -24q117 -63 177 -163.5t60 -230.5zM603 1557h-220l189 391h268z" />
    <glyph glyph-name="sacute" unicode="&#x15b;" horiz-adv-x="1085" 
d="M88 0zM997 403q0 -91 -35.5 -168t-97 -133.5t-146 -88t-181.5 -31.5q-102 0 -185 35t-141.5 96.5t-90.5 146t-32 182.5h264q0 -48 14 -84.5t38.5 -61t58 -37.5t72.5 -13q46 0 83 12t63 33.5t40 51t14 65.5q0 55 -28.5 91.5t-71.5 61.5q-42 25 -118 63.5t-198 100.5
q-44 22 -82 57.5t-66 81t-44 99t-16 110.5q0 88 31.5 161t88 125.5t135 81.5t173.5 29q98 0 179.5 -34t140 -94t90.5 -142.5t32 -179.5h-268q0 45 -13 80t-36.5 59t-55.5 36.5t-69 12.5q-34 0 -63.5 -9t-52 -26.5t-35.5 -43.5t-13 -60q0 -37 22 -67t64 -52q66 -34 113 -58
t81.5 -41t59 -30t45.5 -24q117 -63 177 -163.5t60 -230.5zM603 1557h-220l189 391h268z" />
    <glyph glyph-name="Scircumflex" unicode="&#x15c;" horiz-adv-x="1085" 
d="M88 0zM997 403q0 -91 -35.5 -168t-97 -133.5t-146 -88t-181.5 -31.5q-102 0 -185 35t-141.5 96.5t-90.5 146t-32 182.5h264q0 -48 14 -84.5t38.5 -61t58 -37.5t72.5 -13q46 0 83 12t63 33.5t40 51t14 65.5q0 55 -28.5 91.5t-71.5 61.5q-42 25 -118 63.5t-198 100.5
q-44 22 -82 57.5t-66 81t-44 99t-16 110.5q0 88 31.5 161t88 125.5t135 81.5t173.5 29q98 0 179.5 -34t140 -94t90.5 -142.5t32 -179.5h-268q0 45 -13 80t-36.5 59t-55.5 36.5t-69 12.5q-34 0 -63.5 -9t-52 -26.5t-35.5 -43.5t-13 -60q0 -37 22 -67t64 -52q66 -34 113 -58
t81.5 -41t59 -30t45.5 -24q117 -63 177 -163.5t60 -230.5zM668 1581l-115 117l-115 -117h-248l283 351h160l278 -351h-243z" />
    <glyph glyph-name="scircumflex" unicode="&#x15d;" horiz-adv-x="1085" 
d="M88 0zM997 403q0 -91 -35.5 -168t-97 -133.5t-146 -88t-181.5 -31.5q-102 0 -185 35t-141.5 96.5t-90.5 146t-32 182.5h264q0 -48 14 -84.5t38.5 -61t58 -37.5t72.5 -13q46 0 83 12t63 33.5t40 51t14 65.5q0 55 -28.5 91.5t-71.5 61.5q-42 25 -118 63.5t-198 100.5
q-44 22 -82 57.5t-66 81t-44 99t-16 110.5q0 88 31.5 161t88 125.5t135 81.5t173.5 29q98 0 179.5 -34t140 -94t90.5 -142.5t32 -179.5h-268q0 45 -13 80t-36.5 59t-55.5 36.5t-69 12.5q-34 0 -63.5 -9t-52 -26.5t-35.5 -43.5t-13 -60q0 -37 22 -67t64 -52q66 -34 113 -58
t81.5 -41t59 -30t45.5 -24q117 -63 177 -163.5t60 -230.5zM668 1581l-115 117l-115 -117h-248l283 351h160l278 -351h-243z" />
    <glyph glyph-name="Scedilla" unicode="&#x15e;" horiz-adv-x="1085" 
d="M88 0zM997 403q0 -91 -35.5 -168t-97 -133.5t-146 -88t-181.5 -31.5q-102 0 -185 35t-141.5 96.5t-90.5 146t-32 182.5h264q0 -48 14 -84.5t38.5 -61t58 -37.5t72.5 -13q46 0 83 12t63 33.5t40 51t14 65.5q0 55 -28.5 91.5t-71.5 61.5q-42 25 -118 63.5t-198 100.5
q-44 22 -82 57.5t-66 81t-44 99t-16 110.5q0 88 31.5 161t88 125.5t135 81.5t173.5 29q98 0 179.5 -34t140 -94t90.5 -142.5t32 -179.5h-268q0 45 -13 80t-36.5 59t-55.5 36.5t-69 12.5q-34 0 -63.5 -9t-52 -26.5t-35.5 -43.5t-13 -60q0 -37 22 -67t64 -52q66 -34 113 -58
t81.5 -41t59 -30t45.5 -24q117 -63 177 -163.5t60 -230.5zM520 -433h-254l183 385h221z" />
    <glyph glyph-name="scedilla" unicode="&#x15f;" horiz-adv-x="1085" 
d="M88 0zM997 403q0 -91 -35.5 -168t-97 -133.5t-146 -88t-181.5 -31.5q-102 0 -185 35t-141.5 96.5t-90.5 146t-32 182.5h264q0 -48 14 -84.5t38.5 -61t58 -37.5t72.5 -13q46 0 83 12t63 33.5t40 51t14 65.5q0 55 -28.5 91.5t-71.5 61.5q-42 25 -118 63.5t-198 100.5
q-44 22 -82 57.5t-66 81t-44 99t-16 110.5q0 88 31.5 161t88 125.5t135 81.5t173.5 29q98 0 179.5 -34t140 -94t90.5 -142.5t32 -179.5h-268q0 45 -13 80t-36.5 59t-55.5 36.5t-69 12.5q-34 0 -63.5 -9t-52 -26.5t-35.5 -43.5t-13 -60q0 -37 22 -67t64 -52q66 -34 113 -58
t81.5 -41t59 -30t45.5 -24q117 -63 177 -163.5t60 -230.5zM520 -433h-254l183 385h221z" />
    <glyph glyph-name="Scaron" unicode="&#x160;" horiz-adv-x="1085" 
d="M88 0zM997 403q0 -91 -35.5 -168t-97 -133.5t-146 -88t-181.5 -31.5q-102 0 -185 35t-141.5 96.5t-90.5 146t-32 182.5h264q0 -48 14 -84.5t38.5 -61t58 -37.5t72.5 -13q46 0 83 12t63 33.5t40 51t14 65.5q0 55 -28.5 91.5t-71.5 61.5q-42 25 -118 63.5t-198 100.5
q-44 22 -82 57.5t-66 81t-44 99t-16 110.5q0 88 31.5 161t88 125.5t135 81.5t173.5 29q98 0 179.5 -34t140 -94t90.5 -142.5t32 -179.5h-268q0 45 -13 80t-36.5 59t-55.5 36.5t-69 12.5q-34 0 -63.5 -9t-52 -26.5t-35.5 -43.5t-13 -60q0 -37 22 -67t64 -52q66 -34 113 -58
t81.5 -41t59 -30t45.5 -24q117 -63 177 -163.5t60 -230.5zM432 1932l113 -115q26 28 57.5 58.5t57.5 56.5h245l-278 -351h-160l-283 351h248z" />
    <glyph glyph-name="scaron" unicode="&#x161;" horiz-adv-x="1085" 
d="M88 0zM997 403q0 -91 -35.5 -168t-97 -133.5t-146 -88t-181.5 -31.5q-102 0 -185 35t-141.5 96.5t-90.5 146t-32 182.5h264q0 -48 14 -84.5t38.5 -61t58 -37.5t72.5 -13q46 0 83 12t63 33.5t40 51t14 65.5q0 55 -28.5 91.5t-71.5 61.5q-42 25 -118 63.5t-198 100.5
q-44 22 -82 57.5t-66 81t-44 99t-16 110.5q0 88 31.5 161t88 125.5t135 81.5t173.5 29q98 0 179.5 -34t140 -94t90.5 -142.5t32 -179.5h-268q0 45 -13 80t-36.5 59t-55.5 36.5t-69 12.5q-34 0 -63.5 -9t-52 -26.5t-35.5 -43.5t-13 -60q0 -37 22 -67t64 -52q66 -34 113 -58
t81.5 -41t59 -30t45.5 -24q117 -63 177 -163.5t60 -230.5zM428 1932l113 -115q26 28 57.5 58.5t57.5 56.5h245l-278 -351h-160l-283 351h248z" />
    <glyph glyph-name="Tcommaaccent" unicode="&#x162;" horiz-adv-x="991" 
d="M37 0zM627 1192v-1192h-265v1192h-325v266h917v-266h-327zM467 -431h-254l183 385h221z" />
    <glyph glyph-name="tcommaaccent" unicode="&#x163;" horiz-adv-x="991" 
d="M37 0zM627 1192v-1192h-265v1192h-325v266h917v-266h-327zM467 -431h-254l183 385h221z" />
    <glyph glyph-name="Tcaron" unicode="&#x164;" horiz-adv-x="991" 
d="M37 0zM627 1192v-1192h-265v1192h-325v266h917v-266h-327zM382 1932l113 -115q26 28 57.5 58.5t57.5 56.5h245l-278 -351h-160l-283 351h248z" />
    <glyph glyph-name="tcaron" unicode="&#x165;" horiz-adv-x="991" 
d="M37 0zM627 1192v-1192h-265v1192h-325v266h917v-266h-327zM382 1932l113 -115q26 28 57.5 58.5t57.5 56.5h245l-278 -351h-160l-283 351h248z" />
    <glyph glyph-name="Tbar" unicode="&#x166;" horiz-adv-x="991" 
d="M627 1192v-465h215v-258h-215v-469h-265v469h-206v258h206v465h-325v266h917v-266h-327z" />
    <glyph glyph-name="tbar" unicode="&#x167;" horiz-adv-x="991" 
d="M627 1192v-465h215v-258h-215v-469h-265v469h-206v258h206v465h-325v266h917v-266h-327z" />
    <glyph glyph-name="Utilde" unicode="&#x168;" 
d="M127 0zM1006 403q0 -37 -8 -82.5t-27.5 -92t-52 -91t-81 -79t-115.5 -55.5t-155 -21t-155 21t-115.5 56t-81.5 79.5t-52.5 91.5t-27.5 93t-8 83v1052h266v-1052q0 -52 19 -83t46.5 -47.5t57.5 -22t51 -5.5t50.5 5.5t56.5 22t46 47.5t19 83v1052h267v-1055zM936 1702
q-51 -48 -89 -77t-67 -44t-51.5 -19.5t-42.5 -4.5q-35 0 -66 11.5t-59 28.5q-25 14 -52 26.5t-55 12.5q-6 0 -12.5 -1.5t-17 -9t-28.5 -22.5t-46 -42l-148 143q49 49 87 78t67.5 44.5t52.5 20t43 4.5q35 0 65.5 -13.5t59.5 -27.5q25 -14 51.5 -26t55.5 -12q4 0 11.5 3
t19.5 11t30 23.5t43 39.5z" />
    <glyph glyph-name="utilde" unicode="&#x169;" 
d="M127 0zM1006 403q0 -37 -8 -82.5t-27.5 -92t-52 -91t-81 -79t-115.5 -55.5t-155 -21t-155 21t-115.5 56t-81.5 79.5t-52.5 91.5t-27.5 93t-8 83v1052h266v-1052q0 -52 19 -83t46.5 -47.5t57.5 -22t51 -5.5t50.5 5.5t56.5 22t46 47.5t19 83v1052h267v-1055zM936 1702
q-51 -48 -89 -77t-67 -44t-51.5 -19.5t-42.5 -4.5q-35 0 -66 11.5t-59 28.5q-25 14 -52 26.5t-55 12.5q-6 0 -12.5 -1.5t-17 -9t-28.5 -22.5t-46 -42l-148 143q49 49 87 78t67.5 44.5t52.5 20t43 4.5q35 0 65.5 -13.5t59.5 -27.5q25 -14 51.5 -26t55.5 -12q4 0 11.5 3
t19.5 11t30 23.5t43 39.5z" />
    <glyph glyph-name="Umacron" unicode="&#x16a;" 
d="M127 0zM1006 403q0 -37 -8 -82.5t-27.5 -92t-52 -91t-81 -79t-115.5 -55.5t-155 -21t-155 21t-115.5 56t-81.5 79.5t-52.5 91.5t-27.5 93t-8 83v1052h266v-1052q0 -52 19 -83t46.5 -47.5t57.5 -22t51 -5.5t50.5 5.5t56.5 22t46 47.5t19 83v1052h267v-1055zM235 1579v219
h658v-219h-658z" />
    <glyph glyph-name="umacron" unicode="&#x16b;" 
d="M127 0zM1006 403q0 -37 -8 -82.5t-27.5 -92t-52 -91t-81 -79t-115.5 -55.5t-155 -21t-155 21t-115.5 56t-81.5 79.5t-52.5 91.5t-27.5 93t-8 83v1052h266v-1052q0 -52 19 -83t46.5 -47.5t57.5 -22t51 -5.5t50.5 5.5t56.5 22t46 47.5t19 83v1052h267v-1055zM235 1579v219
h658v-219h-658z" />
    <glyph glyph-name="Ubreve" unicode="&#x16c;" 
d="M127 0zM1006 403q0 -37 -8 -82.5t-27.5 -92t-52 -91t-81 -79t-115.5 -55.5t-155 -21t-155 21t-115.5 56t-81.5 79.5t-52.5 91.5t-27.5 93t-8 83v1052h266v-1052q0 -52 19 -83t46.5 -47.5t57.5 -22t51 -5.5t50.5 5.5t56.5 22t46 47.5t19 83v1052h267v-1055zM929 1906
q-12 -100 -43 -167t-77.5 -107.5t-107.5 -58t-132 -17.5q-72 0 -134 21t-109 64t-77.5 109t-40.5 156h215q11 -71 50.5 -111t95.5 -40q57 0 95 40t50 111h215z" />
    <glyph glyph-name="ubreve" unicode="&#x16d;" 
d="M127 0zM1006 403q0 -37 -8 -82.5t-27.5 -92t-52 -91t-81 -79t-115.5 -55.5t-155 -21t-155 21t-115.5 56t-81.5 79.5t-52.5 91.5t-27.5 93t-8 83v1052h266v-1052q0 -52 19 -83t46.5 -47.5t57.5 -22t51 -5.5t50.5 5.5t56.5 22t46 47.5t19 83v1052h267v-1055zM929 1906
q-12 -100 -43 -167t-77.5 -107.5t-107.5 -58t-132 -17.5q-72 0 -134 21t-109 64t-77.5 109t-40.5 156h215q11 -71 50.5 -111t95.5 -40q57 0 95 40t50 111h215z" />
    <glyph glyph-name="Uring" unicode="&#x16e;" 
d="M127 0zM1006 403q0 -37 -8 -82.5t-27.5 -92t-52 -91t-81 -79t-115.5 -55.5t-155 -21t-155 21t-115.5 56t-81.5 79.5t-52.5 91.5t-27.5 93t-8 83v1052h266v-1052q0 -52 19 -83t46.5 -47.5t57.5 -22t51 -5.5t50.5 5.5t56.5 22t46 47.5t19 83v1052h267v-1055zM809 1753
q0 -48 -19 -92t-52 -77.5t-77.5 -53.5t-95.5 -20q-49 0 -93 20t-77 53.5t-52 77.5t-19 92q0 51 19 95.5t52 77.5t77 52t93 19q51 0 95.5 -18.5t77.5 -51.5t52 -77.5t19 -96.5zM643 1753q0 15 -6 29t-16.5 24.5t-25 16.5t-30.5 6q-31 0 -53.5 -22.5t-22.5 -53.5t22.5 -53
t53.5 -22q32 0 55 22t23 53z" />
    <glyph glyph-name="uring" unicode="&#x16f;" 
d="M127 0zM1006 403q0 -37 -8 -82.5t-27.5 -92t-52 -91t-81 -79t-115.5 -55.5t-155 -21t-155 21t-115.5 56t-81.5 79.5t-52.5 91.5t-27.5 93t-8 83v1052h266v-1052q0 -52 19 -83t46.5 -47.5t57.5 -22t51 -5.5t50.5 5.5t56.5 22t46 47.5t19 83v1052h267v-1055zM809 1753
q0 -48 -19 -92t-52 -77.5t-77.5 -53.5t-95.5 -20q-49 0 -93 20t-77 53.5t-52 77.5t-19 92q0 51 19 95.5t52 77.5t77 52t93 19q51 0 95.5 -18.5t77.5 -51.5t52 -77.5t19 -96.5zM643 1753q0 15 -6 29t-16.5 24.5t-25 16.5t-30.5 6q-31 0 -53.5 -22.5t-22.5 -53.5t22.5 -53
t53.5 -22q32 0 55 22t23 53z" />
    <glyph glyph-name="Uhungarumlaut" unicode="&#x170;" horiz-adv-x="1157" 
d="M127 0zM1006 403q0 -37 -8 -82.5t-27.5 -92t-52 -91t-81 -79t-115.5 -55.5t-155 -21t-155 21t-115.5 56t-81.5 79.5t-52.5 91.5t-27.5 93t-8 83v1052h266v-1052q0 -52 19 -83t46.5 -47.5t57.5 -22t51 -5.5t50.5 5.5t56.5 22t46 47.5t19 83v1052h267v-1055zM749 1556h-248
l232 389h299zM378 1556h-248l228 389h293z" />
    <glyph glyph-name="uhungarumlaut" unicode="&#x171;" horiz-adv-x="1157" 
d="M127 0zM1006 403q0 -37 -8 -82.5t-27.5 -92t-52 -91t-81 -79t-115.5 -55.5t-155 -21t-155 21t-115.5 56t-81.5 79.5t-52.5 91.5t-27.5 93t-8 83v1052h266v-1052q0 -52 19 -83t46.5 -47.5t57.5 -22t51 -5.5t50.5 5.5t56.5 22t46 47.5t19 83v1052h267v-1055zM749 1556h-248
l232 389h299zM378 1556h-248l228 389h293z" />
    <glyph glyph-name="Uogonek" unicode="&#x172;" horiz-adv-x="1130" 
d="M127 0zM1006 403q0 -37 -8 -82.5t-27.5 -92t-52 -91t-81 -79t-115.5 -55.5t-155 -21t-155 21t-115.5 56t-81.5 79.5t-52.5 91.5t-27.5 93t-8 83v1052h266v-1052q0 -52 19 -83t46.5 -47.5t57.5 -22t51 -5.5t50.5 5.5t56.5 22t46 47.5t19 83v1052h267v-1055zM633 -433
l-205 385h248l234 -385h-277z" />
    <glyph glyph-name="uogonek" unicode="&#x173;" 
d="M127 0zM1006 403q0 -37 -8 -82.5t-27.5 -92t-52 -91t-81 -79t-115.5 -55.5t-155 -21t-155 21t-115.5 56t-81.5 79.5t-52.5 91.5t-27.5 93t-8 83v1052h266v-1052q0 -52 19 -83t46.5 -47.5t57.5 -22t51 -5.5t50.5 5.5t56.5 22t46 47.5t19 83v1052h267v-1055zM628 -433
l-205 385h248l234 -385h-277z" />
    <glyph glyph-name="Wcircumflex" unicode="&#x174;" horiz-adv-x="1618" 
d="M37 0zM1278 0h-254l-213 846l-219 -846h-252l-303 1458h274l174 -897l226 895h194l225 -895l175 897h276zM928 1581l-115 117l-115 -117h-248l283 351h160l278 -351h-243z" />
    <glyph glyph-name="wcircumflex" unicode="&#x175;" horiz-adv-x="1618" 
d="M37 0zM1278 0h-254l-213 846l-219 -846h-252l-303 1458h274l174 -897l226 895h194l225 -895l175 897h276zM928 1581l-115 117l-115 -117h-248l283 351h160l278 -351h-243z" />
    <glyph glyph-name="Ycircumflex" unicode="&#x176;" horiz-adv-x="1106" 
d="M37 0zM686 528v-528h-266v532l-383 926h291l225 -563l227 563h289zM670 1581l-115 117l-115 -117h-248l283 351h160l278 -351h-243z" />
    <glyph glyph-name="ycircumflex" unicode="&#x177;" horiz-adv-x="1106" 
d="M37 0zM686 528v-528h-266v532l-383 926h291l225 -563l227 563h289zM670 1581l-115 117l-115 -117h-248l283 351h160l278 -351h-243z" />
    <glyph glyph-name="Ydieresis" unicode="&#x178;" horiz-adv-x="1106" 
d="M37 0zM686 528v-528h-266v532l-383 926h291l225 -563l227 563h289zM618 1579v289h259v-289h-259zM233 1579v289h256v-289h-256z" />
    <glyph glyph-name="Zacute" unicode="&#x179;" horiz-adv-x="958" 
d="M45 0zM45 0v209l520 985h-491v264h811v-205l-518 -989h546v-264h-868zM512 1557h-220l189 391h268z" />
    <glyph glyph-name="zacute" unicode="&#x17a;" horiz-adv-x="958" 
d="M45 0zM45 0v209l520 985h-491v264h811v-205l-518 -989h546v-264h-868zM512 1557h-220l189 391h268z" />
    <glyph glyph-name="Zdotaccent" unicode="&#x17b;" horiz-adv-x="958" 
d="M45 0zM45 0v209l520 985h-491v264h811v-205l-518 -989h546v-264h-868zM356 1579v249h261v-249h-261z" />
    <glyph glyph-name="zdotaccent" unicode="&#x17c;" horiz-adv-x="958" 
d="M45 0zM45 0v209l520 985h-491v264h811v-205l-518 -989h546v-264h-868zM356 1579v249h261v-249h-261z" />
    <glyph glyph-name="Zcaron" unicode="&#x17d;" horiz-adv-x="958" 
d="M45 0zM45 0v209l520 985h-491v264h811v-205l-518 -989h546v-264h-868zM378 1932l113 -115q26 28 57.5 58.5t57.5 56.5h245l-278 -351h-160l-283 351h248z" />
    <glyph glyph-name="zcaron" unicode="&#x17e;" horiz-adv-x="958" 
d="M45 0zM45 0v209l520 985h-491v264h811v-205l-518 -989h546v-264h-868zM378 1932l113 -115q26 28 57.5 58.5t57.5 56.5h245l-278 -351h-160l-283 351h248z" />
    <glyph glyph-name="longs" unicode="&#x17f;" horiz-adv-x="623" 
d="M408 0h-228v844h-170v227h170v12q0 74 18.5 134t57 102t96 65t135.5 23h134v-225h-150q-22 0 -42.5 -16t-20.5 -60v-1106z" />
    <glyph glyph-name="florin" unicode="&#x192;" horiz-adv-x="692" 
d="M442 -84q0 -82 -22.5 -140.5t-61 -95.5t-90.5 -54t-112 -17h-111v254h102q16 0 27.5 9.5t11.5 35.5v905h-161v256h161q1 74 20.5 134t58.5 102t98 65t139 23h145v-254h-160q-15 0 -30 -11.5t-15 -42.5v-16h226v-256h-226v-897z" />
    <glyph glyph-name="Scommaaccent" unicode="&#x218;" horiz-adv-x="1085" 
d="M88 0zM997 403q0 -91 -35.5 -168t-97 -133.5t-146 -88t-181.5 -31.5q-102 0 -185 35t-141.5 96.5t-90.5 146t-32 182.5h264q0 -48 14 -84.5t38.5 -61t58 -37.5t72.5 -13q46 0 83 12t63 33.5t40 51t14 65.5q0 55 -28.5 91.5t-71.5 61.5q-42 25 -118 63.5t-198 100.5
q-44 22 -82 57.5t-66 81t-44 99t-16 110.5q0 88 31.5 161t88 125.5t135 81.5t173.5 29q98 0 179.5 -34t140 -94t90.5 -142.5t32 -179.5h-268q0 45 -13 80t-36.5 59t-55.5 36.5t-69 12.5q-34 0 -63.5 -9t-52 -26.5t-35.5 -43.5t-13 -60q0 -37 22 -67t64 -52q66 -34 113 -58
t81.5 -41t59 -30t45.5 -24q117 -63 177 -163.5t60 -230.5zM528 -439h-254l183 385h221z" />
    <glyph glyph-name="scommaaccent" unicode="&#x219;" horiz-adv-x="1085" 
d="M88 0zM997 403q0 -91 -35.5 -168t-97 -133.5t-146 -88t-181.5 -31.5q-102 0 -185 35t-141.5 96.5t-90.5 146t-32 182.5h264q0 -48 14 -84.5t38.5 -61t58 -37.5t72.5 -13q46 0 83 12t63 33.5t40 51t14 65.5q0 55 -28.5 91.5t-71.5 61.5q-42 25 -118 63.5t-198 100.5
q-44 22 -82 57.5t-66 81t-44 99t-16 110.5q0 88 31.5 161t88 125.5t135 81.5t173.5 29q98 0 179.5 -34t140 -94t90.5 -142.5t32 -179.5h-268q0 45 -13 80t-36.5 59t-55.5 36.5t-69 12.5q-34 0 -63.5 -9t-52 -26.5t-35.5 -43.5t-13 -60q0 -37 22 -67t64 -52q66 -34 113 -58
t81.5 -41t59 -30t45.5 -24q117 -63 177 -163.5t60 -230.5zM520 -435h-254l183 385h221z" />
    <glyph glyph-name="circumflex" unicode="&#x2c6;" horiz-adv-x="1016" 
d="M625 1085l-115 117l-115 -117h-248l283 351h160l278 -351h-243z" />
    <glyph glyph-name="caron" unicode="&#x2c7;" horiz-adv-x="1016" 
d="M395 1438l113 -115q26 28 57.5 58.5t57.5 56.5h245l-278 -351h-160l-283 351h248z" />
    <glyph glyph-name="breve" unicode="&#x2d8;" horiz-adv-x="1016" 
d="M868 1419q-12 -100 -43 -167t-77.5 -107.5t-107.5 -58t-132 -17.5q-72 0 -134 21t-109 64t-77.5 109t-40.5 156h215q11 -71 50.5 -111t95.5 -40q57 0 95 40t50 111h215z" />
    <glyph glyph-name="dotaccent" unicode="&#x2d9;" horiz-adv-x="555" 
d="M147 1137v249h261v-249h-261z" />
    <glyph glyph-name="ring" unicode="&#x2da;" horiz-adv-x="782" 
d="M635 1292q0 -48 -19 -92t-52 -77.5t-77.5 -53.5t-95.5 -20q-49 0 -93 20t-77 53.5t-52 77.5t-19 92q0 51 19 95.5t52 77.5t77 52t93 19q51 0 95.5 -18.5t77.5 -51.5t52 -77.5t19 -96.5zM469 1292q0 15 -6 29t-16.5 24.5t-25 16.5t-30.5 6q-31 0 -53.5 -22.5t-22.5 -53.5
t22.5 -53t53.5 -22q32 0 55 22t23 53z" />
    <glyph glyph-name="ogonek" unicode="&#x2db;" horiz-adv-x="735" 
d="M352 -334l-205 385h248l234 -385h-277z" />
    <glyph glyph-name="tilde" unicode="&#x2dc;" horiz-adv-x="1028" 
d="M881 1235q-51 -48 -89 -77t-67 -44t-51.5 -19.5t-42.5 -4.5q-35 0 -66 11.5t-59 28.5q-25 14 -52 26.5t-55 12.5q-6 0 -12.5 -1.5t-17 -9t-28.5 -22.5t-46 -42l-148 143q49 49 87 78t67.5 44.5t52.5 20t43 4.5q35 0 65.5 -13.5t59.5 -27.5q25 -14 51.5 -26t55.5 -12
q4 0 11.5 3t19.5 11t30 23.5t43 39.5z" />
    <glyph glyph-name="hungarumlaut" unicode="&#x2dd;" horiz-adv-x="1196" 
d="M766 1067h-248l232 389h299zM395 1067h-248l228 389h293z" />
    <glyph glyph-name="pi" unicode="&#x3c0;" horiz-adv-x="1280" 
d="M762 0v868h-221v-868h-226v868h-176v215h1002v-215h-154v-868h-225z" />
    <glyph glyph-name="endash" unicode="&#x2013;" horiz-adv-x="1174" 
d="M147 465v217h879v-217h-879z" />
    <glyph glyph-name="emdash" unicode="&#x2014;" horiz-adv-x="1636" 
d="M147 465v217h1342v-217h-1342z" />
    <glyph glyph-name="quoteleft" unicode="&#x2018;" horiz-adv-x="559" 
d="M346 1022h-301l311 500h176z" />
    <glyph glyph-name="quoteright" unicode="&#x2019;" horiz-adv-x="557" 
d="M217 1022h-172l184 500h301z" />
    <glyph glyph-name="quotesinglbase" unicode="&#x201a;" horiz-adv-x="532" 
d="M227 -227h-182l188 510h314z" />
    <glyph glyph-name="quotedblleft" unicode="&#x201c;" horiz-adv-x="958" 
d="M721 1081h-315l321 510h186zM358 1081h-313l320 510h182z" />
    <glyph glyph-name="quotedblright" unicode="&#x201d;" horiz-adv-x="956" 
d="M594 1081h-188l192 510h313zM227 1081h-182l188 510h314z" />
    <glyph glyph-name="quotedblbase" unicode="&#x201e;" horiz-adv-x="956" 
d="M594 -227h-188l192 510h313zM227 -227h-182l188 510h314z" />
    <glyph glyph-name="dagger" unicode="&#x2020;" horiz-adv-x="920" 
d="M350 -104v978h-211v216h211v419h213v-419h217v-216h-217v-978h-213z" />
    <glyph glyph-name="daggerdbl" unicode="&#x2021;" horiz-adv-x="920" 
d="M350 -104v421h-211v215h211v345h-211v215h211v417h213v-417h217v-215h-217v-345h217v-215h-217v-421h-213z" />
    <glyph glyph-name="bullet" unicode="&#x2022;" horiz-adv-x="793" 
d="M645 696q0 -51 -19 -96t-52.5 -78.5t-79 -53t-97.5 -19.5t-97.5 19.5t-79.5 53t-53.5 78.5t-19.5 96q0 53 19.5 99t53.5 80t79.5 53.5t97.5 19.5t97.5 -19.5t79 -53.5t52.5 -80t19 -99z" />
    <glyph glyph-name="ellipsis" unicode="&#x2026;" horiz-adv-x="1333" 
d="M930 0v283h264v-283h-264zM535 0v283h262v-283h-262zM139 0v283h267v-283h-267z" />
    <glyph glyph-name="perthousand" unicode="&#x2030;" horiz-adv-x="2249" 
d="M707 909q0 -63 -19.5 -113.5t-56 -85.5t-88 -54t-115.5 -19q-63 0 -113.5 19t-86.5 54t-55 85.5t-19 113.5v183q0 60 19.5 109.5t55.5 85t86.5 54.5t112.5 19q64 0 116 -19t88 -54.5t55.5 -85t19.5 -109.5v-183zM489 1092q0 8 -2.5 17.5t-9 17.5t-18.5 13t-31 5
q-28 0 -43.5 -14.5t-15.5 -38.5v-183q0 -10 2.5 -20.5t9.5 -19t18 -14t29 -5.5q29 0 45 15.5t16 43.5v183zM1497 256q0 -63 -19.5 -114t-55.5 -87t-87.5 -55.5t-115.5 -19.5t-115 19.5t-87 55.5t-55.5 87t-19.5 114v180q0 61 19.5 111t56 85.5t87.5 55t114 19.5
q64 0 115.5 -19.5t87.5 -55t55.5 -85.5t19.5 -111v-180zM1278 436q0 9 -2.5 18.5t-9 16.5t-18 11.5t-29.5 4.5q-26 0 -43 -12.5t-17 -38.5v-180q0 -10 2.5 -20.5t9.5 -19t18.5 -14t29.5 -5.5q27 0 43 15.5t16 43.5v180zM2101 256q0 -63 -19 -114t-55 -87t-87 -55.5
t-115 -19.5t-115 19.5t-87 55.5t-55.5 87t-19.5 114v180q0 61 19.5 111t55.5 85.5t87 55t115 19.5t115.5 -19.5t87 -55t54.5 -85.5t19 -111v-180zM1886 436q0 19 -12 35t-49 16q-28 0 -45 -12.5t-17 -38.5v-180q0 -10 3 -20.5t10.5 -19t19 -14t29.5 -5.5q28 0 44.5 15.5
t16.5 43.5v180zM686 -98h-235l528 1607h231z" />
    <glyph glyph-name="guilsinglleft" unicode="&#x2039;" horiz-adv-x="645" 
d="M45 537l473 477v-301l-172 -176l172 -172v-299z" />
    <glyph glyph-name="guilsinglright" unicode="&#x203a;" horiz-adv-x="643" 
d="M127 66v299l174 172l-174 176v301l471 -477z" />
    <glyph glyph-name="fraction" unicode="&#x2044;" horiz-adv-x="1196" 
d="M391 0h-244l660 1407h242z" />
    <glyph glyph-name="Euro" unicode="&#x20ac;" horiz-adv-x="1147" 
d="M1079 408q0 -35 -8 -80t-27.5 -92t-51.5 -92.5t-80.5 -81t-114.5 -57t-152 -21.5q-87 0 -151 21.5t-110 57t-75.5 80t-47 91.5t-24 92t-6.5 80v65h-153v219h153v88h-153v219h153v58q0 34 7 77.5t24.5 89.5t47.5 90t77 79t112.5 56t153.5 21t153.5 -21.5t112.5 -56.5
t77.5 -80t48 -91t24 -90t6.5 -78h-268q0 50 -16 80t-40 45.5t-50.5 20.5t-47.5 5t-47.5 -5t-50 -20.5t-39.5 -45.5t-16 -80v-54h252v-219h-252v-88h252v-219h-252v-63q0 -51 16 -82t39.5 -48t50 -22.5t47.5 -5.5t47.5 5.5t50.5 22.5t40 48t16 82h272z" />
    <glyph glyph-name="trademark" unicode="&#x2122;" horiz-adv-x="1452" 
d="M1130 618v426l-49 -237h-129l-49 237v-426h-174v801h213l76 -268l69 268h218v-801h-175zM504 1243v-625h-176v625h-181v176h537v-176h-180z" />
    <glyph glyph-name="product" unicode="&#x220f;" horiz-adv-x="1137" 
d="M772 0v1186h-410v-1186h-223v1407h858v-1407h-225z" />
    <glyph glyph-name="minus" unicode="&#x2212;" horiz-adv-x="1145" 
d="M178 465v217h789v-217h-789z" />
    <glyph glyph-name="radical" unicode="&#x221a;" horiz-adv-x="1251" 
d="M375 666l209 -760l415 1501h236l-508 -1815h-287l-301 1074h236z" />
    <glyph glyph-name="infinity" unicode="&#x221e;" horiz-adv-x="1686" 
d="M842 371q-27 -44 -62.5 -82t-77.5 -65.5t-89.5 -43.5t-98.5 -16q-81 0 -150 30t-119 84t-78 128.5t-28 164.5q0 88 28 162.5t78 128t119 83.5t150 30q51 0 99 -16.5t90 -44t77.5 -64.5t61.5 -78q27 44 61.5 81t76 64t89.5 42.5t102 15.5q82 0 150.5 -30t118.5 -83.5
t78 -128t28 -162.5q0 -90 -28 -164.5t-78 -128.5t-118.5 -84t-150.5 -30q-50 0 -97.5 16.5t-89.5 44.5t-78.5 66t-63.5 80zM969 569l55 -82q31 -46 65 -75t76 -29q39 0 69.5 15t51 40.5t31 60t10.5 72.5t-10.5 71.5t-31 58t-51 39t-69.5 14.5q-40 0 -74.5 -29t-66.5 -76z
M520 754q-38 0 -68 -14.5t-51 -39t-32 -58t-11 -71.5t11 -72.5t32 -60t51 -40.5t68 -15q42 0 76.5 29t65.5 75l55 82l-55 80q-33 47 -67.5 76t-74.5 29z" />
    <glyph glyph-name="integral" unicode="&#x222b;" horiz-adv-x="618" 
d="M391 -109q0 -81 -22 -137.5t-60 -92.5t-88.5 -52.5t-107.5 -16.5h-97v224h88q25 0 44.5 13.5t19.5 51.5v1204q0 74 18.5 133.5t56.5 101.5t95 64.5t135 22.5h129v-221h-145q-12 0 -23.5 -4t-21 -13t-15.5 -24t-6 -37v-1217z" />
    <glyph glyph-name="approxequal" unicode="&#x2248;" horiz-adv-x="1147" 
d="M147 300zM999 794q-56 -53 -96.5 -86t-73 -51.5t-61 -25t-59.5 -6.5q-39 0 -74 13t-69 28.5t-68 28.5t-70 13q-10 0 -20 -3t-23.5 -12t-32.5 -26.5t-47 -46.5l-158 129q53 53 92.5 86.5t71.5 52t60.5 25t60.5 6.5q39 0 73.5 -13.5t68 -29.5t67.5 -29.5t72 -13.5q8 0 17 3
t22.5 12.5t33 27t48.5 45.5zM999 474q-56 -53 -96.5 -86t-73 -51.5t-61 -25t-59.5 -6.5q-39 0 -74 13t-69 28.5t-68 28.5t-70 13q-10 0 -20 -3t-23.5 -12t-32.5 -26.5t-47 -46.5l-158 129q53 53 92.5 86.5t71.5 52t60.5 25t60.5 6.5q39 0 73.5 -13.5t68 -29.5t67.5 -29.5
t72 -13.5q8 0 17 3t22.5 12.5t33 27t48.5 45.5z" />
    <glyph glyph-name="notequal" unicode="&#x2260;" horiz-adv-x="1194" 
d="M588 309l-199 -432h-242l201 432h-149v215h252l61 133h-313v215h415l193 412h240l-193 -412h147v-215h-247l-66 -133h313v-215h-413z" />
    <glyph glyph-name="lessequal" unicode="&#x2264;" horiz-adv-x="1010" 
d="M559 268l-487 488l534 534h312l-535 -534l489 -488h-313zM119 0v219h792v-219h-792z" />
    <glyph glyph-name="greaterequal" unicode="&#x2265;" horiz-adv-x="1012" 
d="M449 268h-310l488 486l-535 536h311l537 -534zM98 0v219h791v-219h-791z" />
    <glyph glyph-name=".ttfautohint" horiz-adv-x="1145" 
d="M0 0z" />
    </font>
</defs>
</svg>
