<?xml version="1.0" standalone="no"?>
<!DOCTYPE svg PUBLIC "-//W3C//DTD SVG 1.1//EN" "http://www.w3.org/Graphics/SVG/1.1/DTD/svg11.dtd" >
<svg xmlns="http://www.w3.org/2000/svg" xmlns:xlink="http://www.w3.org/1999/xlink" version="1.1">
<metadata>
Created by FontForge 20170731 at Wed Nov  7 15:27:12 2012
 By Aleksey,,,
Published by Die Gestalten Verlag GmbH &#38; Co. KG, 2008
Copyright (c) by Binnenland, 2006, Designed by Mika Mischler / 2002-2006 All rights reserved. This software may not be reproduced, used, displayed, modified, disclosed or transferred without the express written approval of (Binnenland).
</metadata>
<defs>
<font id="TSTARPRO-Bold" horiz-adv-x="1116" >
  <font-face 
    font-family="TSTAR PRO"
    font-weight="700"
    font-stretch="normal"
    units-per-em="2048"
    panose-1="2 0 8 6 3 0 0 2 0 4"
    ascent="1585"
    descent="-463"
    x-height="1073"
    cap-height="1460"
    bbox="-109 -463 2146 2021"
    underline-thickness="104"
    underline-position="-389"
    unicode-range="U+0020-FB02"
  />
<missing-glyph horiz-adv-x="2048" 
 />
    <glyph glyph-name=".notdef" horiz-adv-x="2048" 
 />
    <glyph glyph-name=".null" horiz-adv-x="0" 
 />
    <glyph glyph-name="nonmarkingreturn" horiz-adv-x="451" 
 />
    <glyph glyph-name="space" unicode=" " horiz-adv-x="451" 
 />
    <glyph glyph-name="space" unicode="&#xa0;" horiz-adv-x="451" 
 />
    <glyph glyph-name="exclam" unicode="!" horiz-adv-x="557" 
d="M182 385v1075h195v-1075h-195zM156 0v246h245v-246h-245z" />
    <glyph glyph-name="quotedbl" unicode="&#x22;" horiz-adv-x="774" 
d="M156 1053v366h192v-366h-192zM428 1053v366h190v-366h-190z" />
    <glyph glyph-name="numbersign" unicode="#" horiz-adv-x="1348" 
d="M971 831l-35 -210h197v-177h-222l-67 -405h-180l59 405h-205l-69 -405h-183l64 405h-174v177h202l35 210h-176v175h199l65 372h185l-58 -372h205l66 372h180l-62 -372h195v-175h-221zM580 831l-37 -210h209l34 210h-206z" />
    <glyph glyph-name="dollar" unicode="$" horiz-adv-x="1073" 
d="M977 385q0 -75 -26 -141t-72 -117.5t-109.5 -86.5t-138.5 -50v-185h-191v183q-80 12 -143.5 47t-108 87.5t-68.5 119.5t-24 143h199q0 -50 17.5 -88.5t48.5 -65t73.5 -40t93.5 -13.5q58 0 104.5 15.5t79.5 43.5t50.5 67t17.5 85q0 71 -35.5 119t-91.5 80q-22 13 -52 29.5
t-70 37.5t-92.5 47.5t-119.5 59.5q-44 21 -80 55t-62.5 77t-41 93.5t-14.5 106.5q0 71 23 133t64.5 110.5t100.5 81t131 45.5v185h191v-185q73 -14 133.5 -48t103.5 -84.5t66.5 -115t23.5 -139.5h-200q0 48 -17 85.5t-47 63t-71.5 39t-90.5 13.5q-44 0 -83.5 -12.5
t-68.5 -36.5t-46 -59t-17 -80q0 -53 29.5 -94.5t83.5 -69.5q88 -45 167 -83.5t151 -78.5q112 -60 170.5 -157t58.5 -222z" />
    <glyph glyph-name="percent" unicode="%" horiz-adv-x="1731" 
d="M1575 293q0 -62 -20.5 -113t-57.5 -87t-89 -55.5t-116 -19.5t-116 19.5t-89 55t-57 86.5t-20 114v199q0 64 20 115.5t57 87.5t89 55.5t116 19.5t116 -19.5t89 -55.5t57.5 -87.5t20.5 -115.5v-199zM733 0h-198l464 1423h197zM719 930q0 -63 -20.5 -114t-57.5 -87.5
t-89 -56t-116 -19.5q-65 0 -116.5 19.5t-88 55.5t-56 87t-19.5 115v200q0 62 20 113t56.5 87.5t88 56.5t115.5 20t116.5 -19.5t89.5 -56t57 -87.5t20 -114v-200zM1386 492q0 16 -3.5 32.5t-14 29.5t-29 21.5t-47.5 8.5q-45 0 -69.5 -23.5t-24.5 -68.5v-199q0 -15 3.5 -31
t13.5 -29t28.5 -21.5t48.5 -8.5q45 0 69.5 23.5t24.5 66.5v199zM532 1130q0 15 -4 31t-14.5 29t-29 21t-48.5 8q-45 0 -68.5 -23.5t-23.5 -65.5v-200q0 -16 3.5 -32t13.5 -29t28 -21t47 -8q47 0 71.5 24t24.5 66v200z" />
    <glyph glyph-name="ampersand" unicode="&#x26;" horiz-adv-x="1335" 
d="M1057 201l-66 57q-25 -72 -70 -124t-100.5 -86t-118.5 -50t-124 -16q-51 0 -104 10t-102 31t-92.5 54.5t-75.5 81t-50.5 110t-18.5 141.5q0 62 17 117.5t48.5 103.5t75.5 88t97 72q-4 3 -9.5 7t-10.5 8t-8.5 6.5t-2.5 2.5q-40 34 -67 68t-44 69.5t-24.5 73.5t-7.5 80
q0 101 38 170.5t96.5 112.5t128 62t132.5 19q87 0 163.5 -30t133.5 -85t90 -133t33 -175h-197q0 54 -16.5 96.5t-46 72.5t-70.5 46t-90 16q-36 0 -72 -7t-64.5 -26t-46.5 -53.5t-18 -89.5q0 -32 6.5 -54.5t19 -40.5t30 -34.5t38.5 -34.5q82 -68 170.5 -143t178 -150.5
t176.5 -149.5t168 -141zM578 176q40 0 83 10.5t78.5 36t58.5 69t25 109.5q-77 66 -153.5 130t-153.5 131q-14 -7 -26.5 -13.5t-26.5 -15.5q-131 -84 -131 -225q0 -69 23 -113.5t58.5 -71t79 -37t85.5 -10.5z" />
    <glyph glyph-name="quotesingle" unicode="'" horiz-adv-x="506" 
d="M156 1055v364h194v-364h-194z" />
    <glyph glyph-name="parenleft" unicode="(" horiz-adv-x="633" 
d="M356 -184q-58 55 -98 97t-63 85q-23 45 -31 95t-8 100v1024q0 49 6.5 97.5t32.5 94.5q24 48 65 89.5t96 94.5l119 -139q-25 -29 -42 -48t-29 -33.5t-19.5 -26t-13.5 -23.5q-23 -48 -23 -117v-1003q0 -73 23 -121q7 -13 15 -25.5t20 -26.5t29.5 -31.5l41.5 -41.5z" />
    <glyph glyph-name="parenright" unicode=")" horiz-adv-x="637" 
d="M481 193q0 -51 -6.5 -98.5t-32.5 -96.5q-9 -18 -22 -36t-32 -39t-45 -47l-60 -60l-127 145q24 21 41.5 37.5t30.5 30t21.5 26t16.5 27.5q23 44 23 121v1003q0 38 -6.5 68t-16.5 49q-9 18 -18.5 31.5t-21.5 27.5t-28 30.5t-38 39.5l123 137q57 -55 97.5 -96.5t61.5 -83.5
q23 -45 31 -94.5t8 -97.5v-1024z" />
    <glyph glyph-name="asterisk" unicode="*" horiz-adv-x="1202" 
d="M850 805l-172 104l8 -202h-174l4 200l-168 -102l-86 147l172 95l-172 96l86 149l168 -102l-4 201h174l-8 -205l172 106l86 -151l-170 -92l174 -95z" />
    <glyph glyph-name="plus" unicode="+" horiz-adv-x="1147" 
d="M666 483v-348h-187v348h-336v185h336v325h187v-325h338v-185h-338z" />
    <glyph glyph-name="comma" unicode="," horiz-adv-x="659" 
d="M195 -236h-152l182 490h279z" />
    <glyph glyph-name="hyphen" unicode="-" horiz-adv-x="940" 
d="M156 483v185h628v-185h-628z" />
    <glyph glyph-name="period" unicode="." horiz-adv-x="557" 
d="M147 0v262h263v-262h-263z" />
    <glyph glyph-name="slash" unicode="/" horiz-adv-x="1038" 
d="M350 -102h-194l534 1632h193z" />
    <glyph glyph-name="zero" unicode="0" horiz-adv-x="1053" 
d="M918 373q0 -32 -6.5 -73.5t-23 -85t-45 -85.5t-72.5 -74.5t-106 -52.5t-145 -20q-80 0 -140 20t-103 53t-71 75t-44 85.5t-22.5 85.5t-6.5 74v710q0 32 6.5 73t23 84t45 84.5t72.5 74t105 52.5t143 20q81 0 142 -20t104 -52.5t71 -74t44 -85t22.5 -85t6.5 -73.5v-710z
M725 1081q0 65 -20.5 104.5t-51 60.5t-64.5 27.5t-61 6.5t-61.5 -6.5t-65 -27.5t-52 -60.5t-21.5 -104.5v-704q0 -65 21.5 -104.5t52 -61t65 -28.5t61.5 -7t61 7t64.5 28.5t51 61t20.5 104.5v704z" />
    <glyph glyph-name="one" unicode="1" horiz-adv-x="1061" 
d="M154 0v193h280v1073l-205 -17v189l398 32v-1277h286v-193h-759z" />
    <glyph glyph-name="two" unicode="2" horiz-adv-x="1042" 
d="M109 0v315q0 54 15 101t40.5 88t59 76.5t71.5 66.5q43 34 90 63t95 57.5t95.5 58.5t92.5 67q38 32 54.5 80t16.5 94q0 106 -58 159.5t-161 53.5q-28 0 -64.5 -8.5t-70 -33.5t-57.5 -71.5t-25 -122.5h-192q0 37 8 83t27 94t50 93t76.5 80.5t106.5 57t141 21.5
q91 0 167.5 -29.5t131 -82.5t85 -127.5t30.5 -164.5q0 -94 -34 -175.5t-103 -141.5q-44 -38 -93 -69t-100 -60.5t-101.5 -60.5t-96.5 -68q-47 -39 -76 -82t-29 -107v-112h633v-193h-825z" />
    <glyph glyph-name="three" unicode="3" horiz-adv-x="1049" 
d="M643 885q86 -20 142 -62t89 -93t46.5 -105.5t13.5 -100.5v-143q0 -33 -8 -75.5t-27 -87t-50 -87t-77 -75.5t-108 -53.5t-142 -20.5q-82 0 -144 18.5t-107.5 49t-75.5 71t-48.5 84t-26 88t-7.5 82.5h192q0 -63 23 -102t56 -60.5t70 -29t66 -7.5t66.5 7.5t71 29.5
t56.5 62.5t23 105.5v139q0 64 -24 102t-58.5 58t-72 26.5t-64.5 6.5h-102v153l256 402h-504v192h735v-176z" />
    <glyph glyph-name="four" unicode="4" horiz-adv-x="1069" 
d="M745 0v397h-618v178l328 885h194l-319 -868h415v524h197v-1116h-197z" />
    <glyph glyph-name="five" unicode="5" horiz-adv-x="1044" 
d="M942 389q0 -89 -34 -163.5t-91.5 -128.5t-134.5 -84.5t-162 -30.5q-86 0 -162.5 28t-133.5 79t-90.5 122.5t-33.5 157.5h195q0 -44 15.5 -79.5t45 -61t71 -39t93.5 -13.5q44 0 85.5 13.5t73.5 40.5t51.5 66.5t19.5 90.5v131q0 42 -14 81.5t-42 69.5t-70.5 48t-99.5 18
h-366v168l41 557h673v-192h-491q-3 -45 -6.5 -87t-7 -83.5t-7 -83.5t-6.5 -88h174q81 0 156 -29t132.5 -81.5t91.5 -127.5t34 -166v-133z" />
    <glyph glyph-name="six" unicode="6" horiz-adv-x="1049" 
d="M934 369q0 -31 -8 -72t-26.5 -84t-49 -84.5t-77 -74t-109.5 -52.5t-146 -20q-79 0 -140 19.5t-106 52t-75.5 73.5t-49 84t-26.5 83.5t-8 72.5v712q0 32 8 73.5t27 84.5t50 84.5t77 74t108 52.5t143 20q80 0 140 -21.5t103 -57.5t71 -81.5t44.5 -93.5t23 -94.5t7.5 -83.5
h-192q-1 77 -21 124t-49.5 73t-64 34.5t-62.5 8.5q-30 0 -68.5 -7t-72 -28.5t-57 -61t-23.5 -104.5v-207q43 31 102 52.5t119 21.5q80 0 142 -19.5t107 -51.5t75.5 -73t49 -84.5t26.5 -86t8 -76.5v-182zM737 549q0 65 -24 104.5t-58.5 61t-72 28.5t-64.5 7q-26 0 -62.5 -7
t-70 -28.5t-57 -61t-23.5 -104.5v-174q0 -64 23.5 -103.5t57 -61t70 -29t62.5 -7.5q27 0 64.5 7t72 28.5t58.5 61t24 104.5v174z" />
    <glyph glyph-name="seven" unicode="7" horiz-adv-x="1044" 
d="M485 0h-204l460 1268h-649v192h860v-164z" />
    <glyph glyph-name="eight" unicode="8" horiz-adv-x="1065" 
d="M969 416q0 -40 -8 -87.5t-27.5 -95.5t-51.5 -93.5t-80.5 -80.5t-115 -56t-154.5 -21q-86 0 -151.5 21t-113.5 56t-81 80.5t-53 93.5t-28.5 96t-8.5 87q0 36 9.5 81.5t31.5 91.5t57.5 88.5t88.5 72.5q-41 27 -73 64t-54 79t-33.5 86t-11.5 84q0 39 8 84.5t27 90.5t50 87
t78 74t110.5 51.5t147.5 19.5q82 0 145.5 -19.5t110.5 -51.5t79 -74t51 -87t27.5 -90.5t8.5 -84.5q0 -37 -11.5 -80.5t-34 -86.5t-57 -81.5t-79.5 -64.5q57 -30 95 -72t60.5 -88t32 -91.5t9.5 -82.5zM772 416q0 56 -18.5 99.5t-51 73.5t-76.5 46t-94 16q-51 0 -94.5 -16
t-75.5 -46.5t-50.5 -74t-18.5 -98.5q0 -77 27 -124t64.5 -73t78.5 -34.5t69 -8.5t69.5 8.5t79 34t64.5 72.5t27 125zM758 1063q0 69 -25 111t-61 65.5t-74.5 31t-65.5 7.5t-65.5 -7.5t-74.5 -31t-61.5 -65.5t-25.5 -111q0 -51 17 -92t47.5 -69t72 -43t90.5 -15q50 0 91.5 15
t71.5 43.5t46.5 69t16.5 91.5z" />
    <glyph glyph-name="nine" unicode="9" horiz-adv-x="1049" 
d="M934 373q0 -32 -7.5 -73.5t-26 -85t-49 -85.5t-76 -74.5t-108.5 -52.5t-145 -20q-79 0 -139 21.5t-104 57.5t-73.5 82t-47 94t-24.5 95t-7 84h197q0 -77 20.5 -124t51 -73t65.5 -34.5t63 -8.5q29 0 66 7t69.5 28.5t55 61t22.5 104.5v209q-21 -14 -47 -27t-55.5 -23.5
t-60 -17t-58.5 -6.5q-80 0 -141 20t-106 53t-75 75t-48 85.5t-25.5 85.5t-7.5 74v178q0 32 7.5 73t26 84t49 84t76.5 73.5t108 52.5t144 20q80 0 142 -19.5t107.5 -51.5t76.5 -73t49.5 -83.5t26.5 -83t8 -72.5v-714zM737 1079q0 65 -23 104.5t-56.5 60.5t-70 27.5t-63.5 6.5
q-26 0 -63.5 -6.5t-72 -27.5t-59 -60.5t-24.5 -104.5v-172q0 -66 24.5 -106t59 -61t72 -28t63.5 -7q27 0 63.5 7t70 28t56.5 61t23 106v172z" />
    <glyph glyph-name="colon" unicode=":" horiz-adv-x="557" 
d="M147 0v262h263v-262h-263zM147 618v263h263v-263h-263z" />
    <glyph glyph-name="semicolon" unicode=";" horiz-adv-x="588" 
d="M137 -236h-151l180 490h278zM166 618v263h262v-263h-262z" />
    <glyph glyph-name="less" unicode="&#x3c;" 
d="M694 0l-538 539l532 536h268l-532 -536l539 -539h-269z" />
    <glyph glyph-name="equal" unicode="=" horiz-adv-x="1217" 
d="M229 682v184h758v-184h-758zM229 324v184h758v-184h-758z" />
    <glyph glyph-name="greater" unicode="&#x3e;" horiz-adv-x="1120" 
d="M422 0h-266l538 539l-532 536h266l537 -538z" />
    <glyph glyph-name="question" unicode="?" horiz-adv-x="907" 
d="M864 1067q0 -74 -26 -138.5t-66 -109.5q-24 -27 -51 -51t-55.5 -48t-57.5 -49t-55 -53q-20 -21 -31.5 -53.5t-11.5 -83.5v-96h-195v90q0 45 8 84t21.5 72.5t30.5 60.5t35 47q23 27 51 50t57 46t57.5 47.5t51.5 53.5q18 22 31.5 54.5t13.5 74.5q0 106 -56 161.5t-159 55.5
q-26 0 -62.5 -8.5t-70.5 -34t-59 -73.5t-29 -126h-193q0 37 8.5 83.5t27.5 94.5t50.5 93.5t77.5 80.5t108 56.5t142 21.5q90 0 165 -29t129 -82.5t83.5 -127.5t29.5 -164zM295 0v246h244v-246h-244z" />
    <glyph glyph-name="at" unicode="@" horiz-adv-x="1321" 
d="M928 37v51q-8 -9 -21.5 -18.5t-30.5 -16.5t-36 -11.5t-37 -4.5q-59 0 -111.5 17t-91.5 52t-61.5 88t-22.5 125v373q0 72 24 125t64.5 88t93.5 52.5t111 17.5q31 0 61 -13t45 -30v127q0 65 -24 108.5t-60.5 69.5t-81.5 36.5t-87 10.5t-88 -11.5t-84.5 -38t-63.5 -70.5
t-25 -109v-1075q0 -64 28.5 -104t69 -62.5t85.5 -30.5t78 -8v-195q-91 0 -159.5 20t-119 52t-84 73t-53.5 84.5t-28.5 86t-8.5 77.5v1090q0 32 8 74.5t27.5 87.5t52.5 89t83.5 78.5t120 56t161.5 21.5q90 0 159 -21.5t119 -56t83 -78.5t53 -89.5t28 -88.5t8 -75v-1024h-184z
M915 690q0 27 -10 46t-26 31.5t-35.5 18t-38.5 5.5q-43 0 -74 -25t-31 -82v-356q0 -28 8.5 -48t22.5 -32.5t32.5 -18.5t39.5 -6q22 0 42.5 5.5t36 18.5t24.5 32.5t9 48.5v362z" />
    <glyph glyph-name="A" unicode="A" horiz-adv-x="1141" 
d="M895 0l-102 397h-441l-104 -397h-205l381 1460h287l387 -1460h-203zM573 1245l-174 -651h342z" />
    <glyph glyph-name="B" unicode="B" horiz-adv-x="1135" 
d="M1010 397q0 -32 -6.5 -74t-23.5 -86t-46 -86.5t-74 -76t-107.5 -54t-146.5 -20.5h-450v1460h440q84 0 146 -20t106 -52.5t71.5 -74.5t43 -85.5t21 -85t5.5 -73.5v-25q0 -27 -6.5 -65.5t-22.5 -79t-42 -79t-66 -66.5q48 -28 79 -69t48.5 -84.5t24 -85t6.5 -69.5v-49z
M788 1067q0 66 -20 104.5t-50 59t-64 26t-62 5.5h-238v-412h250q31 0 63.5 6.5t59.5 27.5t44 60t17 105v18zM813 444q0 67 -19.5 108t-49.5 63.5t-65.5 30t-66.5 7.5h-258v-454h248q28 0 65 6.5t69 27.5t54.5 61t22.5 107v43z" />
    <glyph glyph-name="C" unicode="C" horiz-adv-x="1081" 
d="M981 385q0 -33 -8 -76t-27 -87.5t-51 -87.5t-79 -77t-111 -54.5t-148 -20.5q-83 0 -146 21t-110 54.5t-79 77t-51 88.5t-27.5 88t-8.5 76v688q0 32 8 74t26.5 86t50 86t78.5 75t111.5 53.5t149.5 20.5q81 0 144 -20.5t110 -53.5t79 -75.5t52 -86.5t28.5 -86t8.5 -75h-201
q0 66 -24.5 106t-59.5 61.5t-73 28.5t-64 7q-28 0 -67 -7t-74.5 -29t-60.5 -62t-25 -107v-684q0 -68 25 -108.5t60.5 -62.5t74.5 -29t67 -7q26 0 64 7t73 28.5t59.5 62t24.5 107.5h201z" />
    <glyph glyph-name="D" unicode="D" horiz-adv-x="1135" 
d="M999 401q0 -33 -6.5 -75.5t-22.5 -87t-44.5 -87.5t-72.5 -76.5t-105.5 -54t-143.5 -20.5h-448v1462h440q84 0 147 -20.5t107.5 -54t73.5 -76.5t45.5 -87.5t23 -86.5t6.5 -74v-662zM803 1057q0 67 -21.5 108t-53.5 63t-68 29t-64 7h-242v-1067h246q28 0 63.5 7t66.5 29
t52 62.5t21 107.5v654z" />
    <glyph glyph-name="E" unicode="E" horiz-adv-x="1061" 
d="M156 0v1460h811v-198h-613v-394h568v-196h-568v-475h613v-197h-811z" />
    <glyph glyph-name="F" unicode="F" horiz-adv-x="1040" 
d="M354 1262v-396h568v-196h-568v-670h-198v1460h811v-198h-613z" />
    <glyph glyph-name="G" unicode="G" 
d="M981 385q0 -33 -8.5 -76t-28 -87.5t-52 -87.5t-79.5 -77t-111 -54.5t-147 -20.5t-146 21t-109.5 54.5t-78 77t-51 88.5t-27.5 88t-8 76v688q0 32 8 74t26.5 86t50 86t78.5 75t111.5 53.5t149.5 20.5q81 0 144 -19.5t110 -51.5t79 -73.5t52 -85.5t28.5 -87.5t8.5 -79.5
h-201q0 65 -24.5 104.5t-59.5 61t-73 28.5t-64 7q-28 0 -67 -7t-74.5 -28.5t-60.5 -61.5t-25 -106v-684q0 -67 25 -107.5t60.5 -62t74.5 -28.5t67 -7q26 0 64 7t73 28.5t59.5 62t24.5 107.5v240h-250v198h451v-440z" />
    <glyph glyph-name="H" unicode="H" horiz-adv-x="1184" 
d="M827 0v666h-473v-666h-198v1460h198v-596h473v596h201v-1460h-201z" />
    <glyph glyph-name="I" unicode="I" horiz-adv-x="512" 
d="M356 1460v-1460h-200v1460h200z" />
    <glyph glyph-name="J" unicode="J" horiz-adv-x="944" 
d="M799 383q0 -95 -25.5 -169t-74.5 -126t-120.5 -79t-162.5 -27t-162 29t-120 82t-75 127t-26 163h198q0 -65 18 -104.5t46 -61.5t61 -29.5t62 -7.5q30 0 62.5 7.5t59.5 28t44.5 58t17.5 97.5v891h-422v198h619v-1077z" />
    <glyph glyph-name="K" unicode="K" horiz-adv-x="1094" 
d="M823 0l-374 629l-95 -142v-487h-198v1460h198v-618q110 155 220.5 309t220.5 309h231l-461 -657l486 -803h-228z" />
    <glyph glyph-name="L" unicode="L" horiz-adv-x="987" 
d="M156 0v1460h198v-1263h611v-197h-809z" />
    <glyph glyph-name="M" unicode="M" horiz-adv-x="1360" 
d="M156 0v1460h229l295 -710l291 710h233v-1460h-200v1026l-244 -592h-160l-244 594v-1028h-200z" />
    <glyph glyph-name="N" unicode="N" horiz-adv-x="1165" 
d="M786 0l-432 1014v-1014h-198v1460h219l438 -1030v1030h197v-1460h-224z" />
    <glyph glyph-name="O" unicode="O" 
d="M981 385q0 -33 -8 -76t-27 -87.5t-51 -87.5t-79 -77t-111 -54.5t-148 -20.5q-83 0 -146 21t-110 54.5t-79 77t-51 88.5t-27.5 88t-8.5 76v688q0 32 8 74t26.5 86t50 86t78.5 75t111.5 53.5t149.5 20.5q81 0 144 -20.5t110 -53.5t79 -75.5t52 -86.5t28.5 -86t8.5 -75v-688
zM780 1071q0 67 -24.5 107t-59.5 62t-73 29t-64 7q-28 0 -67 -7t-74.5 -29t-60.5 -62t-25 -107v-684q0 -68 25 -108.5t60.5 -62.5t74.5 -29t67 -7q26 0 64 7t73 29t59.5 62.5t24.5 108.5v684z" />
    <glyph glyph-name="P" unicode="P" horiz-adv-x="1083" 
d="M999 958q0 -33 -6.5 -76t-22.5 -87.5t-44.5 -87t-72.5 -76t-105.5 -54t-143.5 -20.5h-250v-557h-198v1460h440q84 0 147 -20.5t107.5 -54t73.5 -76.5t45.5 -87.5t23 -86.5t6.5 -74v-103zM803 1057q0 67 -22.5 107t-54.5 62t-69 29t-65 7h-238v-508h242q28 0 64 7t68 28.5
t53.5 62.5t21.5 109v96z" />
    <glyph glyph-name="Q" unicode="Q" 
d="M461 -8q-87 21 -149 68.5t-101 105t-57.5 117t-18.5 104.5v688q0 32 8 74t26.5 86t50 86t78.5 75t111.5 53.5t149.5 20.5q81 0 144 -20.5t110 -53.5t79 -75.5t52 -86.5t28.5 -86t8.5 -75v-688q0 -30 -5.5 -68.5t-19 -80t-37.5 -81.5t-61 -74.5t-88.5 -59t-120.5 -33.5
v-197h-188v201zM780 1071q0 67 -24.5 107t-59.5 62t-73 29t-64 7q-28 0 -67 -7t-74.5 -29t-60.5 -62t-25 -107v-684q0 -45 11 -78t29.5 -56t41.5 -37t47 -21v258h188v-260q25 7 48.5 21t42 37.5t29.5 57t11 78.5v684z" />
    <glyph glyph-name="R" unicode="R" horiz-adv-x="1149" 
d="M825 0l-278 596h-193v-596h-198v1460h440q85 0 148.5 -20.5t108.5 -54t74.5 -76t46.5 -86.5t23.5 -86t6.5 -74v-68q0 -40 -10.5 -93.5t-38 -107.5t-75.5 -101.5t-122 -74.5l293 -618h-226zM803 1057q0 67 -22.5 107t-54.5 62t-69 29t-65 7h-238v-469h242q28 0 64 7
t68 28.5t53.5 61.5t21.5 107v60z" />
    <glyph glyph-name="S" unicode="S" horiz-adv-x="1073" 
d="M977 385q0 -87 -34.5 -161.5t-94.5 -128.5t-142 -84.5t-176 -30.5q-99 0 -179 31t-137 85.5t-87.5 128.5t-30.5 160h199q0 -50 17.5 -88.5t48.5 -65t73.5 -40t93.5 -13.5q58 0 104.5 15.5t79.5 43.5t50.5 67t17.5 85q0 71 -35.5 119t-91.5 80q-22 13 -52 29.5t-70 37.5
t-92.5 47.5t-119.5 59.5q-44 21 -80 55t-62.5 77t-41 93.5t-14.5 106.5q0 83 30.5 152.5t85 120t130 78.5t165.5 28q94 0 172.5 -29.5t135 -82t87.5 -125.5t31 -159h-200q0 48 -17 85.5t-47 63t-71.5 39t-90.5 13.5q-44 0 -83.5 -12.5t-68.5 -36.5t-46 -59t-17 -80
q0 -53 29.5 -94.5t83.5 -69.5q88 -45 167 -83.5t151 -78.5q112 -60 170.5 -157t58.5 -222z" />
    <glyph glyph-name="T" unicode="T" horiz-adv-x="979" 
d="M588 1260v-1260h-199v1260h-344v200h889v-200h-346z" />
    <glyph glyph-name="U" unicode="U" 
d="M981 385q0 -35 -7.5 -78.5t-26 -88.5t-50 -87.5t-78 -75.5t-111 -53t-149.5 -20t-149.5 20t-111.5 53.5t-78.5 76t-50 87.5t-26.5 89t-8 79v1073h199v-1073q0 -68 25 -108.5t60.5 -62.5t74 -29t65.5 -7t65 7t73.5 29t60 62.5t24.5 108.5v1073h199v-1075z" />
    <glyph glyph-name="V" unicode="V" horiz-adv-x="1106" 
d="M1061 1460l-363 -1460h-286l-367 1460h203l303 -1261l309 1261h201z" />
    <glyph glyph-name="W" unicode="W" horiz-adv-x="1620" 
d="M1270 0h-223l-236 1006l-240 -1006h-223l-303 1460h205l213 -1083l254 1081h186l250 -1077l215 1079h207z" />
    <glyph glyph-name="X" unicode="X" horiz-adv-x="1071" 
d="M797 0l-262 526l-261 -526h-229l377 731l-375 729h225l260 -526l269 526h221l-377 -725l381 -735h-229z" />
    <glyph glyph-name="Y" unicode="Y" horiz-adv-x="1057" 
d="M629 528v-528h-201v532l-383 928h217l266 -669l269 669h215z" />
    <glyph glyph-name="Z" unicode="Z" horiz-adv-x="942" 
d="M53 0v170l576 1092h-547v198h776v-166l-573 -1097h604v-197h-836z" />
    <glyph glyph-name="bracketleft" unicode="[" horiz-adv-x="662" 
d="M156 -158v1696h350v-182h-166v-1331h166v-183h-350z" />
    <glyph glyph-name="backslash" unicode="\" horiz-adv-x="1036" 
d="M690 -106l-534 1630h192l533 -1630h-191z" />
    <glyph glyph-name="bracketright" unicode="]" horiz-adv-x="662" 
d="M156 -158v183h166v1331h-166v182h350v-1696h-350z" />
    <glyph glyph-name="asciicircum" unicode="^" horiz-adv-x="1071" 
d="M707 813l-170 313l-166 -313h-215l303 563h162l294 -563h-208z" />
    <glyph glyph-name="underscore" unicode="_" horiz-adv-x="1049" 
d="M-16 -307v174h1081v-174h-1081z" />
    <glyph glyph-name="grave" unicode="`" horiz-adv-x="719" 
d="M375 1108l-219 365h229l178 -365h-188z" />
    <glyph glyph-name="a" unicode="a" horiz-adv-x="1063" 
d="M915 0h-196v82q-18 -24 -45 -42.5t-60 -31.5t-69.5 -19.5t-73.5 -6.5q-65 0 -130 21t-117 64.5t-85 111t-33 161.5q0 78 28 136.5t77 98.5t115.5 60t142.5 20h250v74q0 50 -13.5 82.5t-37.5 52t-57.5 27.5t-73.5 8q-35 0 -68 -8t-59.5 -26.5t-45 -48.5t-24.5 -73h-195
q9 95 48.5 161t96 107.5t121.5 60t124 18.5q70 0 138 -18.5t122 -60t87 -109.5t33 -167v-735zM719 469h-248q-36 0 -67.5 -7t-54.5 -23t-36.5 -40.5t-13.5 -58.5q0 -50 17 -83.5t45 -53.5t63.5 -28.5t71.5 -8.5q41 0 81 15t71.5 42t51 65t19.5 85v96z" />
    <glyph glyph-name="b" unicode="b" horiz-adv-x="1090" 
d="M954 375q0 -89 -28.5 -162t-80 -125t-125 -80t-163.5 -28q-27 0 -57 6.5t-58 18.5t-52.5 28.5t-39.5 36.5v-70h-194v1460h194v-459q16 20 40 36.5t52 28t57.5 18t57.5 6.5q91 0 164.5 -27t125.5 -78t79.5 -123.5t27.5 -163.5v-323zM762 698q0 34 -8.5 69.5t-31 64.5
t-62.5 48t-103 19q-99 0 -153 -52.5t-54 -148.5v-323q0 -35 8 -70.5t31 -64.5t63 -47.5t105 -18.5q97 0 151 53.5t54 147.5v323z" />
    <glyph glyph-name="c" unicode="c" horiz-adv-x="1042" 
d="M543 1090q84 0 153.5 -25.5t122 -73.5t85 -116.5t42.5 -155.5h-198q-6 34 -20 66t-38 57.5t-60 41t-87 15.5q-100 0 -156.5 -52.5t-56.5 -148.5v-323q0 -35 9.5 -70.5t33.5 -64.5t65 -47.5t105 -18.5q83 0 135.5 46.5t66.5 131.5h201q-11 -87 -44 -156t-85 -117
t-121.5 -73.5t-152.5 -25.5q-92 0 -167.5 27.5t-129 79t-82.5 124.5t-29 164v323q0 89 29.5 161.5t83.5 123.5t129 79t166 28z" />
    <glyph glyph-name="d" unicode="d" horiz-adv-x="1096" 
d="M332 375q0 -94 54 -147.5t151 -53.5q64 0 104 18.5t62.5 47.5t31 64.5t8.5 70.5v323q0 96 -54.5 148.5t-151.5 52.5q-63 0 -103 -19t-62.5 -48t-31 -64.5t-8.5 -69.5v-323zM135 698q0 91 28.5 163.5t81 123.5t126.5 78t166 27q32 0 63.5 -7.5t59 -20t49 -28.5t34.5 -33
v459h197v-1460h-197v66q-12 -15 -34.5 -30.5t-50.5 -28t-59.5 -20t-61.5 -7.5q-90 0 -164 28t-127 80t-82 125t-29 162v323z" />
    <glyph glyph-name="e" unicode="e" horiz-adv-x="1075" 
d="M950 467h-620v-92q0 -35 9.5 -70.5t33.5 -64.5t65 -47.5t105 -18.5q83 0 135.5 46.5t66.5 131.5h201q-11 -87 -44 -156t-85 -117t-121.5 -73.5t-152.5 -25.5q-92 0 -167.5 27.5t-129 79t-82.5 124.5t-29 164v323q0 89 29.5 161.5t83.5 123.5t129 79t166 28t166 -27
t128.5 -78t83 -123.5t29.5 -163.5v-231zM754 698q0 34 -9.5 69.5t-33 64.5t-64.5 48t-104 19q-100 0 -156.5 -52.5t-56.5 -148.5v-39h424v39z" />
    <glyph glyph-name="f" unicode="f" horiz-adv-x="682" 
d="M406 879v-879h-195v879h-176v194h176v72q0 72 18 130t55 99.5t93.5 63.5t132.5 22h117v-192h-133q-15 0 -30.5 -4.5t-28 -16t-21 -30.5t-8.5 -48v-96h241v-194h-241z" />
    <glyph glyph-name="g" unicode="g" horiz-adv-x="1092" 
d="M739 66q-14 -16 -35.5 -31.5t-48 -27.5t-57 -19.5t-61.5 -7.5q-92 0 -166.5 27.5t-127 79t-80.5 124.5t-28 164v323q0 89 29 161.5t81.5 123.5t126.5 79t165 28q30 0 61 -7t58 -18.5t48.5 -26.5t34.5 -30v67h197v-1155q0 -112 -34 -186t-90 -117.5t-127.5 -61.5
t-147.5 -18q-70 0 -132.5 20t-112 58t-83.5 92.5t-49 124.5h202q23 -51 68 -82t107 -31q35 0 71 7t65 29t47.5 61t18.5 104v146zM739 698q0 34 -8 69.5t-30 64.5t-61.5 48t-102.5 19q-97 0 -152 -52.5t-55 -148.5v-323q0 -35 8.5 -70.5t31.5 -64.5t63 -47.5t104 -18.5
q96 0 149 53.5t53 147.5v323z" />
    <glyph glyph-name="h" unicode="h" horiz-adv-x="1104" 
d="M764 0v698q0 34 -6 69.5t-25.5 64.5t-57 48t-100.5 19q-46 0 -87 -14.5t-71.5 -40.5t-48.5 -62t-18 -80v-702h-194v1460h194v-446q22 19 49.5 33.5t57 24t60 14t58.5 4.5q94 0 165.5 -27t119.5 -77.5t72 -123.5t24 -164v-698h-192z" />
    <glyph glyph-name="i" unicode="i" horiz-adv-x="539" 
d="M174 0v1075h193v-1075h-193zM156 1212v258h227v-258h-227z" />
    <glyph glyph-name="j" unicode="j" horiz-adv-x="514" 
d="M342 -172q0 -78 -21 -133.5t-57.5 -90.5t-85.5 -51t-104 -16h-82v193h71q35 0 59.5 18.5t24.5 69.5v1257h195v-1247zM133 1212v258h225v-258h-225z" />
    <glyph glyph-name="k" unicode="k" horiz-adv-x="1067" 
d="M776 0l-301 475l-125 -135v-340h-194v1460h194v-842l416 457h256l-420 -457l404 -618h-230z" />
    <glyph glyph-name="l" unicode="l" horiz-adv-x="532" 
d="M147 1460h195v-1179q0 -51 25 -69.5t59 -18.5h72v-193h-82q-56 0 -104.5 16t-85.5 51t-58 89.5t-21 132.5v1171z" />
    <glyph glyph-name="m" unicode="m" horiz-adv-x="1511" 
d="M1364 0h-193v756q0 28 -6.5 54t-21 45.5t-38.5 31.5t-58 12q-101 0 -146 -59.5t-45 -163.5v-676h-192v750q0 28 -7 55t-21.5 48t-37.5 33.5t-55 12.5q-101 0 -147 -59t-46 -166v-674h-194v1077h194v-51q45 32 98.5 48t104.5 16q78 0 133 -31t90 -80q31 31 66.5 52t72 34
t72.5 19t68 6q85 0 144 -30t95.5 -76.5t53 -103t16.5 -110.5v-770z" />
    <glyph glyph-name="n" unicode="n" horiz-adv-x="1104" 
d="M764 0v698q0 34 -6 69.5t-25.5 64.5t-57 48t-100.5 19q-46 0 -87 -14.5t-71.5 -40.5t-48.5 -62t-18 -80v-702h-194v1073h194v-59q47 37 108.5 56.5t116.5 19.5q94 0 165 -27t119 -77.5t72.5 -123.5t24.5 -164v-698h-192z" />
    <glyph glyph-name="o" unicode="o" horiz-adv-x="1085" 
d="M950 375q0 -89 -30 -162t-84 -125t-128.5 -80t-164.5 -28q-92 0 -167.5 27.5t-129 79t-82.5 124.5t-29 164v323q0 89 29.5 161.5t83.5 123.5t129 79t166 28t166 -27t128.5 -78t83 -123.5t29.5 -163.5v-323zM754 698q0 34 -9.5 69.5t-33 64.5t-64.5 48t-104 19
q-100 0 -156.5 -52.5t-56.5 -148.5v-323q0 -35 9.5 -70.5t33.5 -64.5t65 -47.5t105 -18.5q99 0 155 53.5t56 147.5v323z" />
    <glyph glyph-name="p" unicode="p" horiz-adv-x="1092" 
d="M956 375q0 -91 -28 -164t-79.5 -124.5t-125.5 -79t-166 -27.5q-31 0 -62 8t-58.5 20.5t-50 28.5t-36.5 31v-531h-194v1538h194v-69q32 35 86.5 59.5t120.5 24.5q91 0 164.5 -28t125.5 -79t80.5 -123.5t28.5 -161.5v-323zM764 698q0 96 -55 148.5t-152 52.5
q-64 0 -104 -19t-63 -48t-31.5 -64.5t-8.5 -69.5v-323q0 -94 55 -147.5t152 -53.5q64 0 104 18.5t63 47.5t31.5 64.5t8.5 70.5v323z" />
    <glyph glyph-name="q" unicode="q" horiz-adv-x="1092" 
d="M330 375q0 -35 8.5 -70.5t31.5 -64.5t63 -47.5t104 -18.5q96 0 149 53.5t53 147.5v323q0 34 -8 69.5t-30 64.5t-61.5 48t-102.5 19q-97 0 -152 -52.5t-55 -148.5v-323zM135 698q0 89 29 161.5t81.5 123.5t126.5 79t165 28q52 0 107 -17.5t95 -48.5v51h197v-1538h-197v531
q-14 -15 -35.5 -31t-48 -28.5t-57 -20.5t-61.5 -8q-92 0 -166.5 27.5t-127 79t-80.5 124.5t-28 164v323z" />
    <glyph glyph-name="r" unicode="r" horiz-adv-x="672" 
d="M508 879q-26 0 -53.5 -10.5t-51 -34.5t-38.5 -62.5t-15 -95.5v-676h-194v1073h194v-96q25 49 72.5 72.5t112.5 23.5h81v-194h-108z" />
    <glyph glyph-name="s" unicode="s" horiz-adv-x="1001" 
d="M905 328q0 -95 -33 -160.5t-88.5 -106t-129 -59t-154.5 -18.5q-86 0 -157.5 25t-125 72.5t-85 115.5t-36.5 155h195q9 -88 64 -131t145 -43q38 0 76 6t68.5 22.5t49.5 45.5t19 76q0 38 -29 65t-76 41q-66 22 -129.5 36.5t-128.5 31.5q-51 13 -94 36.5t-75 57t-50 76.5
t-18 96q0 87 31.5 147.5t84 98.5t121.5 55.5t144 17.5q81 0 150.5 -22.5t121.5 -66t84.5 -108t40.5 -147.5h-199q-12 75 -62 114.5t-141 39.5q-34 0 -67 -5.5t-59 -20t-42 -39.5t-16 -64q0 -31 25 -55.5t71 -36.5q30 -9 64.5 -17.5t70.5 -17.5t72 -18.5t68 -20.5
q47 -15 88.5 -39.5t73 -58.5t49.5 -78t18 -98z" />
    <glyph glyph-name="t" unicode="t" horiz-adv-x="737" 
d="M35 1073h194v387h195v-387h223v-194h-223v-598q0 -51 25 -69.5t59 -18.5h143v-193h-151q-57 0 -106.5 16t-86 51t-57.5 89.5t-21 132.5v590h-194v194z" />
    <glyph glyph-name="u" unicode="u" horiz-adv-x="1110" 
d="M758 0v70q-15 -16 -37.5 -32t-50 -28.5t-59 -20t-62.5 -7.5q-92 0 -166.5 27.5t-127 79t-80.5 124t-28 162.5v700h195v-700q0 -35 8.5 -70t31.5 -64t63 -47t104 -18q46 0 84.5 13t66 37.5t43 59.5t15.5 79v710h196v-1075h-196z" />
    <glyph glyph-name="v" unicode="v" horiz-adv-x="942" 
d="M240 1075l231 -842l234 842h202l-303 -1075h-266l-303 1075h205z" />
    <glyph glyph-name="w" unicode="w" horiz-adv-x="1413" 
d="M1085 0h-213l-165 678l-166 -678h-211l-254 1075h203l161 -717l176 717h181l176 -717l162 717h202z" />
    <glyph glyph-name="x" unicode="x" horiz-adv-x="983" 
d="M719 0l-225 365l-234 -365h-225l344 537l-344 538h225l232 -370l229 370h221l-342 -540l348 -535h-229z" />
    <glyph glyph-name="y" unicode="y" horiz-adv-x="930" 
d="M336 0l-301 1075h205l229 -839l221 839h205l-338 -1274q-23 -87 -55 -139.5t-74 -80t-95 -36t-118 -8.5h-92v193h117q23 0 42 4t34 14t26 27t18 43l48 182h-72z" />
    <glyph glyph-name="z" unicode="z" horiz-adv-x="915" 
d="M76 0v164l483 715h-467v194h707v-164l-486 -716h527v-193h-764z" />
    <glyph glyph-name="braceleft" unicode="{" horiz-adv-x="659" 
d="M414 -133q-72 0 -117.5 16.5t-77.5 48.5q-18 18 -30 36.5t-19.5 41t-10.5 50.5t-3 65v1159q0 37 3 65t10.5 50.5t19.5 41t30 36.5q32 32 77.5 47.5t117.5 15.5h90v-182h-82q-32 0 -47.5 -1t-20.5 -7q-9 -8 -11.5 -31t-2.5 -57v-1123q0 -37 2 -56t10 -26q5 -5 20.5 -5.5
t49.5 -0.5h82v-184h-90z" />
    <glyph glyph-name="bar" unicode="|" horiz-adv-x="496" 
d="M156 -106v1634h184v-1634h-184z" />
    <glyph glyph-name="braceright" unicode="}" horiz-adv-x="666" 
d="M510 123q0 -39 -3.5 -68t-11 -51.5t-19.5 -41t-30 -36.5q-30 -29 -76 -45t-120 -16h-94v184h96q59 0 63 4q7 6 9 26.5t2 55.5v1131q0 37 -2.5 56.5t-10.5 27.5h2q-5 5 -22 5.5t-51 0.5h-86v182h94q69 0 115.5 -16t80.5 -47q18 -17 30 -35.5t19.5 -41t11 -51t3.5 -65.5
v-1159z" />
    <glyph glyph-name="asciitilde" unicode="~" horiz-adv-x="1137" 
d="M981 575q-51 -47 -88 -77t-67.5 -47t-58 -23t-58.5 -6q-39 0 -74.5 13.5t-70.5 30t-70.5 30.5t-75.5 14q-13 0 -25 -3t-26.5 -12t-33.5 -26t-46 -45l-131 108q48 49 84.5 79.5t66.5 47.5t57 23t58 6q39 0 74.5 -14t70 -31t70.5 -31t76 -14q11 0 22 3t25 12t33.5 26
t48.5 45z" />
    <glyph glyph-name="exclamdown" unicode="&#xa1;" horiz-adv-x="557" 
d="M375 721v-1075h-195v1075h195zM401 1106v-246h-245v246h245z" />
    <glyph glyph-name="cent" unicode="&#xa2;" horiz-adv-x="1042" 
d="M748 719q-6 34 -20 66t-38 57.5t-60 41t-87 15.5v-2l-2 2q-99 0 -155 -52.5t-56 -148.5v-323q0 -35 9.5 -70.5t33.5 -64.5t65 -47.5t105 -18.5q83 0 135.5 46.5t66.5 131.5h201q-9 -74 -35 -136t-66 -108.5t-93 -77t-117 -42.5v-269h-184v269q-73 12 -131.5 44.5
t-99.5 82t-63 115.5t-22 145v323q0 78 22.5 142.5t64 114t99.5 81.5t130 45v2v271h184v-271l-2 -2q131 -26 213.5 -119t99.5 -243h-198z" />
    <glyph glyph-name="sterling" unicode="&#xa3;" horiz-adv-x="1044" 
d="M756 1083q0 62 -21 100.5t-52 59.5t-66.5 28t-63.5 7q-30 0 -63 -8t-61 -29.5t-46 -59t-18 -96.5v-233h409v-190h-409v-469h581v-193h-778v662h-72v190h72v231q0 85 27 155.5t77.5 121.5t121.5 79.5t159 28.5q87 0 159.5 -28.5t125 -79.5t81.5 -121.5t29 -155.5h-192z
" />
    <glyph glyph-name="yen" unicode="&#xa5;" horiz-adv-x="1106" 
d="M649 207v-207h-188v207h-279v180h279v113h-279v178h211l-317 782h207l268 -676l272 676h207l-321 -782h215v-178h-275v-113h275v-180h-275z" />
    <glyph glyph-name="brokenbar" unicode="&#xa6;" horiz-adv-x="496" 
d="M152 805v668h194v-668h-194zM152 -53v669h194v-669h-194z" />
    <glyph glyph-name="section" unicode="&#xa7;" horiz-adv-x="1135" 
d="M170 768q0 60 12 104t41 82q-20 31 -30.5 69t-10.5 83q0 87 31.5 148.5t85 100.5t122.5 57t144 18q88 0 161 -23.5t125.5 -68.5t82 -110.5t29.5 -150.5h-191q0 75 -52.5 117.5t-158.5 42.5q-34 0 -68 -6t-61.5 -20.5t-45 -40t-17.5 -64.5q0 -31 23 -56t61 -34
q71 -17 143 -31.5t143 -30.5q52 -11 96 -36t76 -61.5t50 -84t18 -104.5q0 -59 -12.5 -105t-38.5 -84q21 -31 29 -68.5t8 -82.5q0 -95 -33 -160.5t-88.5 -106t-129.5 -59t-155 -18.5q-88 0 -162 23.5t-127.5 68.5t-83.5 110.5t-30 149.5h194q0 -78 56.5 -118t152.5 -40
q39 0 78 6t70 22.5t50 45.5t19 76q0 19 -7.5 35.5t-19.5 29t-28 21.5t-33 14q-72 19 -145.5 35.5t-151.5 30.5q-47 8 -87.5 31.5t-70 59.5t-46.5 82.5t-17 100.5zM729 614q17 -3 29 -8t18 -8q15 30 15 70t-27.5 64.5t-63.5 35.5q-18 4 -39.5 8.5t-56 12.5t-89 20.5
t-138.5 30.5q-8 -13 -14.5 -33t-6.5 -39q0 -32 22 -56.5t62 -33.5z" />
    <glyph glyph-name="dieresis" unicode="&#xa8;" horiz-adv-x="940" 
d="M557 1176v260h227v-260h-227zM156 1176v260h227v-260h-227z" />
    <glyph glyph-name="copyright" unicode="&#xa9;" horiz-adv-x="1739" 
d="M1106 522q0 -20 -4 -46.5t-14.5 -54t-28.5 -54.5t-46.5 -48t-68 -34t-92.5 -13q-51 0 -89 13t-65 34t-44.5 48t-27.5 54.5t-14 54t-4 46.5v363q0 29 9.5 71t36.5 80.5t75.5 66t126.5 27.5t127 -27.5t76.5 -66.5t37 -81.5t9.5 -71.5h-178q0 24 -7.5 38.5t-18.5 21.5
t-23.5 9t-22.5 2t-22.5 -2.5t-23.5 -10.5t-18.5 -22t-7.5 -38v-357q0 -24 7.5 -38.5t18.5 -22.5t23.5 -11t22.5 -3t22.5 2.5t23.5 10t18.5 22t7.5 38.5h178zM1583 705q0 -99 -25.5 -190.5t-71.5 -171.5t-111 -145t-144 -112t-170.5 -72.5t-190.5 -25.5t-190.5 25.5
t-171 72.5t-144.5 112t-111 145t-71.5 171.5t-25.5 190.5t25.5 190t71.5 170.5t111 144.5t144.5 111.5t171 72t190.5 25.5t190.5 -25.5t170.5 -72t144 -111.5t111 -144.5t71.5 -170.5t25.5 -190zM1399 705q0 73 -19 140.5t-54 126.5t-83.5 107.5t-107 83t-126 53.5
t-139.5 19q-109 0 -205.5 -41.5t-168.5 -113.5t-114 -168.5t-42 -206.5q0 -111 42 -207.5t114 -168.5t168.5 -113.5t205.5 -41.5q108 0 204.5 41.5t168.5 113.5t114 168.5t42 207.5z" />
    <glyph glyph-name="ordfeminine" unicode="&#xaa;" horiz-adv-x="846" 
d="M698 696h-145v49q-25 -27 -67 -44t-87 -17q-50 0 -95.5 13.5t-80.5 43t-55.5 76t-20.5 111.5q0 53 18.5 93t50.5 67t76.5 41t96.5 14h164v41q0 31 -9.5 50.5t-25 31t-36.5 16t-44 4.5q-21 0 -40.5 -5.5t-35.5 -17.5t-27.5 -31.5t-15.5 -47.5h-147q7 66 34 113t65 77
t81.5 44t83.5 14q48 0 94.5 -13t84 -41.5t60.5 -75.5t23 -114v-492zM553 1006h-162q-45 0 -72.5 -18t-27.5 -60q0 -31 10 -50.5t26.5 -31t38.5 -15.5t46 -4q26 0 51 8t45 24t32.5 38t12.5 51v58z" />
    <glyph glyph-name="guillemotleft" unicode="&#xab;" horiz-adv-x="1010" 
d="M432 539l442 446v-258l-186 -188l186 -187v-256zM53 539l445 446v-256l-189 -190l189 -189v-256z" />
    <glyph glyph-name="logicalnot" unicode="&#xac;" horiz-adv-x="1147" 
d="M807 330v321h-660v189h852v-510h-192z" />
    <glyph glyph-name="uni00AD" unicode="&#xad;" horiz-adv-x="1186" 
d="M156 483v185h874v-185h-874z" />
    <glyph glyph-name="registered" unicode="&#xae;" horiz-adv-x="1739" 
d="M1147 823q0 -23 -6 -55t-22 -65t-44.5 -62t-73.5 -47l160 -318h-196l-152 302h-6v-302h-174v836h266q78 0 126.5 -27t75.5 -65.5t36.5 -80.5t9.5 -71v-45zM973 864q0 23 -7.5 37.5t-18.5 22.5t-24 11t-24 3h-92v-188h94q10 0 22.5 2.5t23.5 10.5t18.5 22t7.5 38v41z
M1583 705q0 -99 -25.5 -190.5t-71.5 -171.5t-111 -145t-144 -112t-170.5 -72.5t-190.5 -25.5t-190.5 25.5t-171 72.5t-144.5 112t-111 145t-71.5 171.5t-25.5 190.5t25.5 190t71.5 170.5t111 144.5t144.5 111.5t171 72t190.5 25.5t190.5 -25.5t170.5 -72t144 -111.5
t111 -144.5t71.5 -170.5t25.5 -190zM1399 705q0 110 -42 206.5t-114 168.5t-168.5 113.5t-204.5 41.5q-109 0 -205.5 -41.5t-168.5 -113.5t-114 -168.5t-42 -206.5q0 -111 42 -207.5t114 -168.5t168.5 -113.5t205.5 -41.5q108 0 204.5 41.5t168.5 113.5t114 168.5t42 207.5z
" />
    <glyph glyph-name="macron" unicode="&#xaf;" horiz-adv-x="954" 
d="M156 1145v186h643v-186h-643z" />
    <glyph glyph-name="degree" unicode="&#xb0;" horiz-adv-x="684" 
d="M598 1206q0 -52 -20 -98.5t-55 -81.5t-82 -55.5t-101 -20.5q-52 0 -98.5 20.5t-81 55.5t-54.5 81.5t-20 98.5q0 53 20 100t54.5 81.5t81 54.5t98.5 20q54 0 101 -20t82 -54.5t55 -81t20 -100.5zM461 1206q0 25 -9.5 46.5t-26 37.5t-38.5 25.5t-47 9.5q-24 0 -45.5 -9.5
t-38 -25.5t-26 -37.5t-9.5 -46.5q0 -24 9.5 -45t26 -36.5t38 -25t45.5 -9.5q25 0 47 9.5t38.5 25t26 36.5t9.5 45z" />
    <glyph glyph-name="plusminus" unicode="&#xb1;" horiz-adv-x="1153" 
d="M670 485v-233h-185v233h-338v183h338v305h185v-305h336v-183h-336zM147 0v182h859v-182h-859z" />
    <glyph glyph-name="twosuperior" unicode="&#xb2;" horiz-adv-x="758" 
d="M610 1235q0 -60 -21 -100.5t-57 -71.5q-18 -16 -47 -34t-55 -32q-23 -13 -47 -28t-43.5 -32t-32 -37t-12.5 -42v-14h313v-148h-461v168q0 62 29 106.5t74 78.5q19 13 55 33.5t71.5 44.5t62 51t26.5 55q0 40 -22 61t-64 21q-34 0 -59 -30.5t-25 -90.5h-148
q0 59 17.5 108.5t48.5 85t73.5 55t92.5 19.5q52 0 94.5 -16.5t73 -46.5t47 -71.5t16.5 -92.5z" />
    <glyph glyph-name="threesuperior" unicode="&#xb3;" horiz-adv-x="754" 
d="M479 1159q37 -15 61.5 -38t39 -50.5t20.5 -57t6 -55.5v-47q0 -28 -10.5 -66.5t-36.5 -74t-69.5 -60t-110.5 -24.5q-69 0 -114 27.5t-71 68t-36.5 87.5t-10.5 85h146q0 -38 9 -61.5t22 -36.5t27.5 -17.5t25.5 -4.5t25.5 2.5t27.5 11t22 23.5t9 40v45q0 25 -9.5 40t-23 23
t-27.5 10.5t-24 2.5h-78v107l109 168h-232v145h418v-123z" />
    <glyph glyph-name="acute" unicode="&#xb4;" horiz-adv-x="717" 
d="M340 1108h-184l176 365h229z" />
    <glyph glyph-name="mu" unicode="&#xb5;" 
d="M156 -362v1437h194v-700q0 -35 8.5 -70t31.5 -64t63.5 -47t105.5 -18q45 0 83.5 13t66.5 37.5t43.5 59.5t15.5 79v710h193v-1075h-193v70q-14 -16 -32 -32t-43 -28.5t-58 -20t-76 -7.5q-34 0 -66 8t-60 19.5t-49.5 25t-33.5 24.5v-421h-194z" />
    <glyph glyph-name="paragraph" unicode="&#xb6;" horiz-adv-x="1137" 
d="M788 0v1241h-102v-1241h-192v748q-79 4 -142 32t-106.5 72t-66.5 102.5t-23 124.5q0 180 100.5 266.5t280.5 86.5h444v-1432h-193z" />
    <glyph glyph-name="periodcentered" unicode="&#xb7;" horiz-adv-x="565" 
d="M156 416v256h254v-256h-254z" />
    <glyph glyph-name="cedilla" unicode="&#xb8;" horiz-adv-x="668" 
d="M373 -346h-217l168 358h188z" />
    <glyph glyph-name="onesuperior" unicode="&#xb9;" horiz-adv-x="723" 
d="M147 696v146h140v463l-103 -11v146l246 20v-618h145v-146h-428z" />
    <glyph glyph-name="ordmasculine" unicode="&#xba;" horiz-adv-x="850" 
d="M702 948q0 -62 -20 -112t-56.5 -84.5t-88 -53t-113.5 -18.5q-63 0 -114 18t-87.5 52.5t-56 84.5t-19.5 113v213q0 61 20 111t57 85t87.5 54t112.5 19q63 0 114.5 -18.5t87.5 -53.5t56 -85t20 -112v-213zM555 1161q0 22 -5.5 44t-20 39.5t-40 28.5t-65.5 11
q-62 0 -97.5 -31.5t-35.5 -91.5v-213q0 -21 5.5 -43.5t20 -40.5t40.5 -29.5t67 -11.5q60 0 95.5 33t35.5 92v213z" />
    <glyph glyph-name="guillemotright" unicode="&#xbb;" horiz-adv-x="1010" 
d="M514 98v254l188 189l-188 188v258l442 -446zM135 98v254l191 189l-191 188v258l443 -446z" />
    <glyph glyph-name="onequarter" unicode="&#xbc;" horiz-adv-x="1458" 
d="M147 696v146h140v463l-103 -11v146l250 20v-618h141v-146h-428zM549 -104h-156l543 1652h154zM1165 0v193h-299v114l168 453h146l-154 -422h139v256h146v-594h-146z" />
    <glyph glyph-name="onehalf" unicode="&#xbd;" horiz-adv-x="1522" 
d="M147 696v146h140v463l-103 -9v144l248 20v-618h143v-146h-428zM1374 539q0 -60 -21.5 -100.5t-56.5 -71.5q-18 -16 -47 -34t-55 -32q-23 -13 -47 -28t-43.5 -32.5t-32 -37t-12.5 -41.5v-15h313v-147h-461v168q0 62 29 106t74 78q19 14 55 34t71.5 44.5t62 51.5t26.5 55
q0 40 -22 60.5t-64 20.5q-34 0 -59 -30t-25 -90h-148q0 59 17.5 108t48.5 84.5t73.5 55.5t92.5 20q52 0 94.5 -16.5t73 -46.5t47 -71.5t16.5 -92.5zM549 -104h-158l543 1652h153z" />
    <glyph glyph-name="threequarters" unicode="&#xbe;" horiz-adv-x="1479" 
d="M1186 0v193h-301v114l168 453h147l-153 -422h139v256h145v-594h-145zM479 1159q37 -15 62 -38t40 -50.5t21 -57t6 -55.5v-47q0 -28 -11 -66.5t-37 -74t-70 -60t-111 -24.5q-69 0 -114 27.5t-71 68t-36.5 87.5t-10.5 85h146q0 -38 9 -61.5t22 -36.5t27.5 -17.5t25.5 -4.5
t25.5 2.5t27.5 11t22 23.5t9 40v45q0 25 -9.5 40t-23 23t-27.5 10.5t-24 2.5h-78v107l109 168h-230v145h416v-123zM569 -104h-157l544 1652h152z" />
    <glyph glyph-name="questiondown" unicode="&#xbf;" horiz-adv-x="866" 
d="M43 20q0 75 26 139t66 109q24 27 51.5 51.5t56 48.5t57 48.5t54.5 52.5q20 22 31.5 54t11.5 83v96h195v-90q0 -44 -8 -83.5t-21.5 -73t-30 -60.5t-34.5 -47q-23 -27 -51.5 -50t-57.5 -46t-57 -47t-51 -53q-19 -23 -32 -55t-13 -74q0 -107 55.5 -162.5t159.5 -55.5
q26 0 62.5 8.5t70.5 34t59 73.5t29 126h192q0 -37 -8.5 -83.5t-27.5 -94t-50 -93t-77 -81t-108 -57t-142 -21.5q-91 0 -166 29.5t-129 82.5t-83.5 127t-29.5 164zM612 1087v-245h-243v245h243z" />
    <glyph glyph-name="Agrave" unicode="&#xc0;" horiz-adv-x="1141" 
d="M43 0zM895 0l-102 397h-441l-104 -397h-205l381 1460h287l387 -1460h-203zM573 1245l-174 -651h342zM496 1600l-219 365h229l178 -365h-188z" />
    <glyph glyph-name="Aacute" unicode="&#xc1;" horiz-adv-x="1141" 
d="M43 0zM895 0l-102 397h-441l-104 -397h-205l381 1460h287l387 -1460h-203zM573 1245l-174 -651h342zM639 1600h-184l176 365h229z" />
    <glyph glyph-name="Acircumflex" unicode="&#xc2;" horiz-adv-x="1141" 
d="M43 0zM895 0l-102 397h-441l-104 -397h-205l381 1460h287l387 -1460h-203zM573 1245l-174 -651h342zM704 1624l-127 132l-127 -132h-206l260 324h147l256 -324h-203z" />
    <glyph glyph-name="Atilde" unicode="&#xc3;" horiz-adv-x="1141" 
d="M43 0zM895 0l-102 397h-441l-104 -397h-205l381 1460h287l387 -1460h-203zM573 1245l-174 -651h342zM913 1731q-45 -43 -79.5 -69t-61.5 -39.5t-49 -18t-41 -4.5q-33 0 -62 13t-57.5 29t-57.5 29t-63 13q-8 0 -16 -2t-20 -9t-29 -21.5t-43 -39.5l-125 121
q44 44 78.5 70.5t62 40.5t49.5 18t41 4q33 0 62 -13t57.5 -29t57.5 -29t63 -13q7 0 15.5 3t21.5 11t30 22.5t41 37.5z" />
    <glyph glyph-name="Adieresis" unicode="&#xc4;" horiz-adv-x="1141" 
d="M43 0zM895 0l-102 397h-441l-104 -397h-205l381 1460h287l387 -1460h-203zM573 1245l-174 -651h342zM663 1625v260h227v-260h-227zM262 1625v260h227v-260h-227z" />
    <glyph glyph-name="Aring" unicode="&#xc5;" horiz-adv-x="1141" 
d="M43 0zM895 0l-102 397h-441l-104 -397h-205l381 1460h287l387 -1460h-203zM573 1245l-174 -651h342zM811 1788q0 -46 -18 -88t-49.5 -74.5t-74.5 -51.5t-92 -19q-48 0 -90 19t-73.5 51.5t-49.5 74.5t-18 88q0 48 18 90.5t49.5 74t73.5 50t90 18.5q49 0 92 -18t74.5 -49.5
t49.5 -74t18 -91.5zM680 1788q0 20 -8.5 38t-22.5 32t-32.5 22t-39.5 8t-38.5 -8t-31 -22t-21 -32t-7.5 -38t7.5 -37.5t21 -31t31 -21.5t38.5 -8t39.5 8t32.5 21.5t22.5 31t8.5 37.5z" />
    <glyph glyph-name="AE" unicode="&#xc6;" horiz-adv-x="1608" 
d="M702 0v397h-352q-25 -97 -53 -198.5t-51 -198.5h-203l381 1460h1089v-198h-612v-394h563v-196h-563v-475h612v-197h-811zM399 596h303v666h-127z" />
    <glyph glyph-name="Ccedilla" unicode="&#xc7;" horiz-adv-x="1071" 
d="M126 0zM972 385q0 -33 -8 -76t-27 -87.5t-51 -87.5t-79 -77t-111 -54.5t-148 -20.5q-83 0 -146 21t-110 54.5t-79 77t-51 88.5t-27.5 88t-8.5 76v688q0 32 8 74t26.5 86t50 86t78.5 75t111.5 53.5t149.5 20.5q81 0 144 -20.5t110 -53.5t79 -75.5t52 -86.5t28.5 -86
t8.5 -75h-201q0 66 -24.5 106t-59.5 61.5t-73 28.5t-64 7q-28 0 -67 -7t-74.5 -29t-60.5 -62t-25 -107v-684q0 -68 25 -108.5t60.5 -62.5t74.5 -29t67 -7q26 0 64 7t73 28.5t59.5 62t24.5 107.5h201zM520 -445h-217l168 358h188z" />
    <glyph glyph-name="Egrave" unicode="&#xc8;" horiz-adv-x="1061" 
d="M156 0zM156 0v1460h811v-198h-613v-394h568v-196h-568v-475h613v-197h-811zM533 1600l-219 365h229l178 -365h-188z" />
    <glyph glyph-name="Eacute" unicode="&#xc9;" horiz-adv-x="1061" 
d="M156 0zM156 0v1460h811v-198h-613v-394h568v-196h-568v-475h613v-197h-811zM588 1600h-184l176 365h229z" />
    <glyph glyph-name="Ecircumflex" unicode="&#xca;" horiz-adv-x="1061" 
d="M156 0zM156 0v1460h811v-198h-613v-394h568v-196h-568v-475h613v-197h-811zM675 1624l-127 132l-127 -132h-206l260 324h147l256 -324h-203z" />
    <glyph glyph-name="Edieresis" unicode="&#xcb;" horiz-adv-x="1061" 
d="M156 0zM156 0v1460h811v-198h-613v-394h568v-196h-568v-475h613v-197h-811zM649 1625v260h227v-260h-227zM248 1625v260h227v-260h-227z" />
    <glyph glyph-name="Igrave" unicode="&#xcc;" horiz-adv-x="514" 
d="M0 0zM356 1460v-1460h-200v1460h200zM163 1600l-219 365h229l178 -365h-188z" />
    <glyph glyph-name="Iacute" unicode="&#xcd;" horiz-adv-x="512" 
d="M156 0zM356 1460v-1460h-200v1460h200zM350 1600h-184l176 365h229z" />
    <glyph glyph-name="Icircumflex" unicode="&#xce;" horiz-adv-x="512" 
d="M0 0zM356 1460v-1460h-200v1460h200zM381 1624l-127 132l-127 -132h-206l260 324h147l256 -324h-203z" />
    <glyph glyph-name="Idieresis" unicode="&#xcf;" horiz-adv-x="512" 
d="M0 0zM356 1460v-1460h-200v1460h200zM343 1625v260h227v-260h-227zM-58 1625v260h227v-260h-227z" />
    <glyph glyph-name="Eth" unicode="&#xd0;" horiz-adv-x="1313" 
d="M1165 401q0 -33 -6.5 -75.5t-22.5 -87t-44.5 -87.5t-72.5 -76.5t-105 -54t-144 -20.5h-448v668h-175v184h175v610h440q84 0 147 -20.5t107.5 -54t73.5 -76.5t45.5 -87.5t23 -86.5t6.5 -74v-662zM520 668v-471h246q28 0 63.5 7t66.5 29t52 62.5t21 107.5v654
q0 67 -21.5 108t-53.5 63t-68 29t-64 7h-242v-412h256v-184h-256z" />
    <glyph glyph-name="Ntilde" unicode="&#xd1;" horiz-adv-x="1165" 
d="M156 0zM786 0l-432 1014v-1014h-198v1460h219l438 -1030v1030h197v-1460h-224zM926 1731q-45 -43 -79.5 -69t-61.5 -39.5t-49 -18t-41 -4.5q-33 0 -62 13t-57.5 29t-57.5 29t-63 13q-8 0 -16 -2t-20 -9t-29 -21.5t-43 -39.5l-125 121q44 44 78.5 70.5t62 40.5t49.5 18
t41 4q33 0 62 -13t57.5 -29t57.5 -29t63 -13q7 0 15.5 3t21.5 11t30 22.5t41 37.5z" />
    <glyph glyph-name="Ograve" unicode="&#xd2;" 
d="M135 0zM981 385q0 -33 -8 -76t-27 -87.5t-51 -87.5t-79 -77t-111 -54.5t-148 -20.5q-83 0 -146 21t-110 54.5t-79 77t-51 88.5t-27.5 88t-8.5 76v688q0 32 8 74t26.5 86t50 86t78.5 75t111.5 53.5t149.5 20.5q81 0 144 -20.5t110 -53.5t79 -75.5t52 -86.5t28.5 -86
t8.5 -75v-688zM780 1071q0 67 -24.5 107t-59.5 62t-73 29t-64 7q-28 0 -67 -7t-74.5 -29t-60.5 -62t-25 -107v-684q0 -68 25 -108.5t60.5 -62.5t74.5 -29t67 -7q26 0 64 7t73 29t59.5 62.5t24.5 108.5v684zM514 1600l-219 365h229l178 -365h-188z" />
    <glyph glyph-name="Oacute" unicode="&#xd3;" 
d="M135 0zM981 385q0 -33 -8 -76t-27 -87.5t-51 -87.5t-79 -77t-111 -54.5t-148 -20.5q-83 0 -146 21t-110 54.5t-79 77t-51 88.5t-27.5 88t-8.5 76v688q0 32 8 74t26.5 86t50 86t78.5 75t111.5 53.5t149.5 20.5q81 0 144 -20.5t110 -53.5t79 -75.5t52 -86.5t28.5 -86
t8.5 -75v-688zM780 1071q0 67 -24.5 107t-59.5 62t-73 29t-64 7q-28 0 -67 -7t-74.5 -29t-60.5 -62t-25 -107v-684q0 -68 25 -108.5t60.5 -62.5t74.5 -29t67 -7q26 0 64 7t73 29t59.5 62.5t24.5 108.5v684zM604 1600h-184l176 365h229z" />
    <glyph glyph-name="Ocircumflex" unicode="&#xd4;" 
d="M135 0zM981 385q0 -33 -8 -76t-27 -87.5t-51 -87.5t-79 -77t-111 -54.5t-148 -20.5q-83 0 -146 21t-110 54.5t-79 77t-51 88.5t-27.5 88t-8.5 76v688q0 32 8 74t26.5 86t50 86t78.5 75t111.5 53.5t149.5 20.5q81 0 144 -20.5t110 -53.5t79 -75.5t52 -86.5t28.5 -86
t8.5 -75v-688zM780 1071q0 67 -24.5 107t-59.5 62t-73 29t-64 7q-28 0 -67 -7t-74.5 -29t-60.5 -62t-25 -107v-684q0 -68 25 -108.5t60.5 -62.5t74.5 -29t67 -7q26 0 64 7t73 29t59.5 62.5t24.5 108.5v684zM686 1624l-127 132l-127 -132h-206l260 324h147l256 -324h-203z
" />
    <glyph glyph-name="Otilde" unicode="&#xd5;" 
d="M135 0zM981 385q0 -33 -8 -76t-27 -87.5t-51 -87.5t-79 -77t-111 -54.5t-148 -20.5q-83 0 -146 21t-110 54.5t-79 77t-51 88.5t-27.5 88t-8.5 76v688q0 32 8 74t26.5 86t50 86t78.5 75t111.5 53.5t149.5 20.5q81 0 144 -20.5t110 -53.5t79 -75.5t52 -86.5t28.5 -86
t8.5 -75v-688zM780 1071q0 67 -24.5 107t-59.5 62t-73 29t-64 7q-28 0 -67 -7t-74.5 -29t-60.5 -62t-25 -107v-684q0 -68 25 -108.5t60.5 -62.5t74.5 -29t67 -7q26 0 64 7t73 29t59.5 62.5t24.5 108.5v684zM895 1729q-45 -43 -79.5 -69t-61.5 -39.5t-49 -18t-41 -4.5
q-33 0 -62 13t-57.5 29t-57.5 29t-63 13q-8 0 -16 -2t-20 -9t-29 -21.5t-43 -39.5l-125 121q44 44 78.5 70.5t62 40.5t49.5 18t41 4q33 0 62 -13t57.5 -29t57.5 -29t63 -13q7 0 15.5 3t21.5 11t30 22.5t41 37.5z" />
    <glyph glyph-name="Odieresis" unicode="&#xd6;" 
d="M135 0zM981 385q0 -33 -8 -76t-27 -87.5t-51 -87.5t-79 -77t-111 -54.5t-148 -20.5q-83 0 -146 21t-110 54.5t-79 77t-51 88.5t-27.5 88t-8.5 76v688q0 32 8 74t26.5 86t50 86t78.5 75t111.5 53.5t149.5 20.5q81 0 144 -20.5t110 -53.5t79 -75.5t52 -86.5t28.5 -86
t8.5 -75v-688zM780 1071q0 67 -24.5 107t-59.5 62t-73 29t-64 7q-28 0 -67 -7t-74.5 -29t-60.5 -62t-25 -107v-684q0 -68 25 -108.5t60.5 -62.5t74.5 -29t67 -7q26 0 64 7t73 29t59.5 62.5t24.5 108.5v684zM637 1625v260h227v-260h-227zM236 1625v260h227v-260h-227z" />
    <glyph glyph-name="multiply" unicode="&#xd7;" horiz-adv-x="1192" 
d="M848 170l-254 252l-252 -252l-127 125l254 254l-254 254l127 127l252 -254l254 254l127 -127l-254 -254l256 -256z" />
    <glyph glyph-name="Oslash" unicode="&#xd8;" 
d="M981 385q0 -33 -8 -76t-27 -87.5t-51 -87.5t-79 -77t-111 -54.5t-148 -20.5q-72 0 -133 18l-37 -102h-201l68 198q-29 34 -51.5 73t-37.5 78.5t-22.5 75.5t-7.5 64v688q0 32 8 74t26.5 86t50 86t78.5 75t111.5 53.5t149.5 20.5q37 0 71.5 -4t65.5 -12l41 117h197
l-72 -217q29 -31 51.5 -68t37.5 -75.5t22.5 -74t7.5 -63.5v-688zM475 782q40 122 80 241t80 243q-20 5 -41 7.5t-35 2.5q-28 0 -67 -7t-74.5 -29t-60.5 -62t-25 -107v-723zM780 1071q0 19 2 19q-2 2 -2 6q-74 -231 -147.5 -453.5t-149.5 -456.5q20 -5 39 -5.5t37 -0.5
q26 0 64 7t73 29t59.5 62.5t24.5 108.5v684z" />
    <glyph glyph-name="Ugrave" unicode="&#xd9;" 
d="M135 0zM981 385q0 -35 -7.5 -78.5t-26 -88.5t-50 -87.5t-78 -75.5t-111 -53t-149.5 -20t-149.5 20t-111.5 53.5t-78.5 76t-50 87.5t-26.5 89t-8 79v1073h199v-1073q0 -68 25 -108.5t60.5 -62.5t74 -29t65.5 -7t65 7t73.5 29t60 62.5t24.5 108.5v1073h199v-1075zM504 1600
l-219 365h229l178 -365h-188z" />
    <glyph glyph-name="Uacute" unicode="&#xda;" 
d="M135 0zM981 385q0 -35 -7.5 -78.5t-26 -88.5t-50 -87.5t-78 -75.5t-111 -53t-149.5 -20t-149.5 20t-111.5 53.5t-78.5 76t-50 87.5t-26.5 89t-8 79v1073h199v-1073q0 -68 25 -108.5t60.5 -62.5t74 -29t65.5 -7t65 7t73.5 29t60 62.5t24.5 108.5v1073h199v-1075zM598 1600
h-184l176 365h229z" />
    <glyph glyph-name="Ucircumflex" unicode="&#xdb;" 
d="M135 0zM981 385q0 -35 -7.5 -78.5t-26 -88.5t-50 -87.5t-78 -75.5t-111 -53t-149.5 -20t-149.5 20t-111.5 53.5t-78.5 76t-50 87.5t-26.5 89t-8 79v1073h199v-1073q0 -68 25 -108.5t60.5 -62.5t74 -29t65.5 -7t65 7t73.5 29t60 62.5t24.5 108.5v1073h199v-1075zM690 1624
l-127 132l-127 -132h-206l260 324h147l256 -324h-203z" />
    <glyph glyph-name="Udieresis" unicode="&#xdc;" 
d="M135 0zM981 385q0 -35 -7.5 -78.5t-26 -88.5t-50 -87.5t-78 -75.5t-111 -53t-149.5 -20t-149.5 20t-111.5 53.5t-78.5 76t-50 87.5t-26.5 89t-8 79v1073h199v-1073q0 -68 25 -108.5t60.5 -62.5t74 -29t65.5 -7t65 7t73.5 29t60 62.5t24.5 108.5v1073h199v-1075zM647 1625
v260h227v-260h-227zM246 1625v260h227v-260h-227z" />
    <glyph glyph-name="Yacute" unicode="&#xdd;" horiz-adv-x="1057" 
d="M45 0zM629 528v-528h-201v532l-383 928h217l266 -669l269 669h215zM573 1600h-184l176 365h229z" />
    <glyph glyph-name="Thorn" unicode="&#xde;" horiz-adv-x="1163" 
d="M352 1460v-309h283q92 0 166.5 -30t127 -84t81 -130.5t28.5 -169.5q0 -95 -28 -172.5t-80.5 -132.5t-127 -85t-167.5 -30h-283v-317h-196v1460h196zM352 954v-440h283q36 0 73.5 9.5t68 34.5t50 68t19.5 111q0 102 -56 159.5t-155 57.5h-283z" />
    <glyph glyph-name="germandbls" unicode="&#xdf;" horiz-adv-x="1130" 
d="M604 193q28 0 64 7.5t67 30t52.5 63t21.5 107.5v99q0 68 -19 109.5t-47 64t-60.5 30t-59.5 7.5h-91v190h89q69 0 104 45t35 123q0 67 -21.5 108t-52 63t-65.5 29t-62 7q-28 0 -64 -7t-68.5 -29t-54.5 -63t-22 -108v-1069h-194v1075q0 32 6.5 74t23.5 85.5t45.5 85.5
t73.5 75t107.5 53t146.5 20q83 0 144.5 -20.5t106 -53.5t72.5 -75.5t44.5 -86.5t23 -86t6.5 -75q0 -34 -8.5 -71.5t-24.5 -73t-38.5 -64.5t-50.5 -45q51 -24 84 -64.5t52.5 -86t27.5 -89t8 -71.5v-105q0 -33 -6.5 -76t-23 -87.5t-45 -87t-72.5 -76t-106 -54t-145 -20.5h-145
v193h141z" />
    <glyph glyph-name="agrave" unicode="&#xe0;" horiz-adv-x="1063" 
d="M106 0zM915 0h-196v82q-18 -24 -45 -42.5t-60 -31.5t-69.5 -19.5t-73.5 -6.5q-65 0 -130 21t-117 64.5t-85 111t-33 161.5q0 78 28 136.5t77 98.5t115.5 60t142.5 20h250v74q0 50 -13.5 82.5t-37.5 52t-57.5 27.5t-73.5 8q-35 0 -68 -8t-59.5 -26.5t-45 -48.5t-24.5 -73
h-195q9 95 48.5 161t96 107.5t121.5 60t124 18.5q70 0 138 -18.5t122 -60t87 -109.5t33 -167v-735zM719 469h-248q-36 0 -67.5 -7t-54.5 -23t-36.5 -40.5t-13.5 -58.5q0 -50 17 -83.5t45 -53.5t63.5 -28.5t71.5 -8.5q41 0 81 15t71.5 42t51 65t19.5 85v96zM498 1217
l-219 365h229l178 -365h-188z" />
    <glyph glyph-name="aacute" unicode="&#xe1;" horiz-adv-x="1063" 
d="M106 0zM915 0h-196v82q-18 -24 -45 -42.5t-60 -31.5t-69.5 -19.5t-73.5 -6.5q-65 0 -130 21t-117 64.5t-85 111t-33 161.5q0 78 28 136.5t77 98.5t115.5 60t142.5 20h250v74q0 50 -13.5 82.5t-37.5 52t-57.5 27.5t-73.5 8q-35 0 -68 -8t-59.5 -26.5t-45 -48.5t-24.5 -73
h-195q9 95 48.5 161t96 107.5t121.5 60t124 18.5q70 0 138 -18.5t122 -60t87 -109.5t33 -167v-735zM719 469h-248q-36 0 -67.5 -7t-54.5 -23t-36.5 -40.5t-13.5 -58.5q0 -50 17 -83.5t45 -53.5t63.5 -28.5t71.5 -8.5q41 0 81 15t71.5 42t51 65t19.5 85v96zM559 1217h-184
l176 365h229z" />
    <glyph glyph-name="acircumflex" unicode="&#xe2;" horiz-adv-x="1063" 
d="M106 0zM915 0h-196v82q-18 -24 -45 -42.5t-60 -31.5t-69.5 -19.5t-73.5 -6.5q-65 0 -130 21t-117 64.5t-85 111t-33 161.5q0 78 28 136.5t77 98.5t115.5 60t142.5 20h250v74q0 50 -13.5 82.5t-37.5 52t-57.5 27.5t-73.5 8q-35 0 -68 -8t-59.5 -26.5t-45 -48.5t-24.5 -73
h-195q9 95 48.5 161t96 107.5t121.5 60t124 18.5q70 0 138 -18.5t122 -60t87 -109.5t33 -167v-735zM719 469h-248q-36 0 -67.5 -7t-54.5 -23t-36.5 -40.5t-13.5 -58.5q0 -50 17 -83.5t45 -53.5t63.5 -28.5t71.5 -8.5q41 0 81 15t71.5 42t51 65t19.5 85v96zM675 1216
l-127 132l-127 -132h-206l260 324h147l256 -324h-203z" />
    <glyph glyph-name="atilde" unicode="&#xe3;" horiz-adv-x="1063" 
d="M106 0zM915 0h-196v82q-18 -24 -45 -42.5t-60 -31.5t-69.5 -19.5t-73.5 -6.5q-65 0 -130 21t-117 64.5t-85 111t-33 161.5q0 78 28 136.5t77 98.5t115.5 60t142.5 20h250v74q0 50 -13.5 82.5t-37.5 52t-57.5 27.5t-73.5 8q-35 0 -68 -8t-59.5 -26.5t-45 -48.5t-24.5 -73
h-195q9 95 48.5 161t96 107.5t121.5 60t124 18.5q70 0 138 -18.5t122 -60t87 -109.5t33 -167v-735zM719 469h-248q-36 0 -67.5 -7t-54.5 -23t-36.5 -40.5t-13.5 -58.5q0 -50 17 -83.5t45 -53.5t63.5 -28.5t71.5 -8.5q41 0 81 15t71.5 42t51 65t19.5 85v96zM903 1391
q-45 -43 -79.5 -69t-61.5 -39.5t-49 -18t-41 -4.5q-33 0 -62 13t-57.5 29t-57.5 29t-63 13q-8 0 -16 -2t-20 -9t-29 -21.5t-43 -39.5l-125 121q44 44 78.5 70.5t62 40.5t49.5 18t41 4q33 0 62 -13t57.5 -29t57.5 -29t63 -13q7 0 15.5 3t21.5 11t30 22.5t41 37.5z" />
    <glyph glyph-name="adieresis" unicode="&#xe4;" horiz-adv-x="1063" 
d="M106 0zM915 0h-196v82q-18 -24 -45 -42.5t-60 -31.5t-69.5 -19.5t-73.5 -6.5q-65 0 -130 21t-117 64.5t-85 111t-33 161.5q0 78 28 136.5t77 98.5t115.5 60t142.5 20h250v74q0 50 -13.5 82.5t-37.5 52t-57.5 27.5t-73.5 8q-35 0 -68 -8t-59.5 -26.5t-45 -48.5t-24.5 -73
h-195q9 95 48.5 161t96 107.5t121.5 60t124 18.5q70 0 138 -18.5t122 -60t87 -109.5t33 -167v-735zM719 469h-248q-36 0 -67.5 -7t-54.5 -23t-36.5 -40.5t-13.5 -58.5q0 -50 17 -83.5t45 -53.5t63.5 -28.5t71.5 -8.5q41 0 81 15t71.5 42t51 65t19.5 85v96zM637 1293v260h227
v-260h-227zM236 1293v260h227v-260h-227z" />
    <glyph glyph-name="aring" unicode="&#xe5;" horiz-adv-x="1063" 
d="M106 0zM915 0h-196v82q-18 -24 -45 -42.5t-60 -31.5t-69.5 -19.5t-73.5 -6.5q-65 0 -130 21t-117 64.5t-85 111t-33 161.5q0 78 28 136.5t77 98.5t115.5 60t142.5 20h250v74q0 50 -13.5 82.5t-37.5 52t-57.5 27.5t-73.5 8q-35 0 -68 -8t-59.5 -26.5t-45 -48.5t-24.5 -73
h-195q9 95 48.5 161t96 107.5t121.5 60t124 18.5q70 0 138 -18.5t122 -60t87 -109.5t33 -167v-735zM719 469h-248q-36 0 -67.5 -7t-54.5 -23t-36.5 -40.5t-13.5 -58.5q0 -50 17 -83.5t45 -53.5t63.5 -28.5t71.5 -8.5q41 0 81 15t71.5 42t51 65t19.5 85v96zM775 1432
q0 -46 -18 -88t-49.5 -74.5t-74.5 -51.5t-92 -19q-48 0 -90 19t-73.5 51.5t-49.5 74.5t-18 88q0 48 18 90.5t49.5 74t73.5 50t90 18.5q49 0 92 -18t74.5 -49.5t49.5 -74t18 -91.5zM644 1432q0 20 -8.5 38t-22.5 32t-32.5 22t-39.5 8t-38.5 -8t-31 -22t-21 -32t-7.5 -38
t7.5 -37.5t21 -31t31 -21.5t38.5 -8t39.5 8t32.5 21.5t22.5 31t8.5 37.5z" />
    <glyph glyph-name="ae" unicode="&#xe6;" horiz-adv-x="1661" 
d="M1526 467h-608v-92q0 -35 8.5 -70t31 -64t62.5 -47t104 -18q82 0 134 45.5t67 130.5h197q-10 -86 -42.5 -154.5t-84.5 -116.5t-120.5 -73.5t-150.5 -25.5q-44 0 -89.5 11t-87 31.5t-76.5 48.5t-58 62q-26 -34 -63.5 -62t-82.5 -48.5t-95 -31.5t-101 -11q-71 0 -136.5 21
t-116.5 64.5t-81.5 111t-30.5 161.5q0 78 27 137t74.5 99t112 60.5t139.5 20.5h264v74q0 50 -15 82.5t-41 51.5t-61 26.5t-76 7.5q-30 0 -60 -7.5t-55 -25.5t-43.5 -48t-25.5 -75h-196q5 64 24.5 114.5t49.5 89t67.5 66t78 44.5t82 25t78.5 8q42 0 84 -8.5t81 -25
t72.5 -40.5t57.5 -55q23 27 56 50.5t72 41t82.5 27.5t88.5 10q92 0 166.5 -27t127 -78t80.5 -123.5t28 -163.5v-231zM723 471h-258q-74 0 -118 -30.5t-44 -100.5q0 -48 15 -80t40.5 -50.5t60.5 -26t75 -7.5q58 0 101 18t71.5 46t42.5 62.5t14 68.5v100zM1331 698
q0 34 -8.5 69.5t-31.5 64.5t-63 48t-104 19q-97 0 -150.5 -49.5t-55.5 -140.5v-52h413v41z" />
    <glyph glyph-name="ccedilla" unicode="&#xe7;" horiz-adv-x="1042" 
d="M135 0zM543 1090q84 0 153.5 -25.5t122 -73.5t85 -116.5t42.5 -155.5h-198q-6 34 -20 66t-38 57.5t-60 41t-87 15.5q-100 0 -156.5 -52.5t-56.5 -148.5v-323q0 -35 9.5 -70.5t33.5 -64.5t65 -47.5t105 -18.5q83 0 135.5 46.5t66.5 131.5h201q-11 -87 -44 -156t-85 -117
t-121.5 -73.5t-152.5 -25.5q-92 0 -167.5 27.5t-129 79t-82.5 124.5t-29 164v323q0 89 29.5 161.5t83.5 123.5t129 79t166 28zM502 -445h-217l168 358h188z" />
    <glyph glyph-name="egrave" unicode="&#xe8;" horiz-adv-x="1075" 
d="M135 0zM950 467h-620v-92q0 -35 9.5 -70.5t33.5 -64.5t65 -47.5t105 -18.5q83 0 135.5 46.5t66.5 131.5h201q-11 -87 -44 -156t-85 -117t-121.5 -73.5t-152.5 -25.5q-92 0 -167.5 27.5t-129 79t-82.5 124.5t-29 164v323q0 89 29.5 161.5t83.5 123.5t129 79t166 28
t166 -27t128.5 -78t83 -123.5t29.5 -163.5v-231zM754 698q0 34 -9.5 69.5t-33 64.5t-64.5 48t-104 19q-100 0 -156.5 -52.5t-56.5 -148.5v-39h424v39zM502 1217l-219 365h229l178 -365h-188z" />
    <glyph glyph-name="eacute" unicode="&#xe9;" horiz-adv-x="1075" 
d="M135 0zM950 467h-620v-92q0 -35 9.5 -70.5t33.5 -64.5t65 -47.5t105 -18.5q83 0 135.5 46.5t66.5 131.5h201q-11 -87 -44 -156t-85 -117t-121.5 -73.5t-152.5 -25.5q-92 0 -167.5 27.5t-129 79t-82.5 124.5t-29 164v323q0 89 29.5 161.5t83.5 123.5t129 79t166 28
t166 -27t128.5 -78t83 -123.5t29.5 -163.5v-231zM754 698q0 34 -9.5 69.5t-33 64.5t-64.5 48t-104 19q-100 0 -156.5 -52.5t-56.5 -148.5v-39h424v39zM578 1217h-184l176 365h229z" />
    <glyph glyph-name="ecircumflex" unicode="&#xea;" horiz-adv-x="1075" 
d="M135 0zM950 467h-620v-92q0 -35 9.5 -70.5t33.5 -64.5t65 -47.5t105 -18.5q83 0 135.5 46.5t66.5 131.5h201q-11 -87 -44 -156t-85 -117t-121.5 -73.5t-152.5 -25.5q-92 0 -167.5 27.5t-129 79t-82.5 124.5t-29 164v323q0 89 29.5 161.5t83.5 123.5t129 79t166 28
t166 -27t128.5 -78t83 -123.5t29.5 -163.5v-231zM754 698q0 34 -9.5 69.5t-33 64.5t-64.5 48t-104 19q-100 0 -156.5 -52.5t-56.5 -148.5v-39h424v39zM673 1216l-127 132l-127 -132h-206l260 324h147l256 -324h-203z" />
    <glyph glyph-name="edieresis" unicode="&#xeb;" horiz-adv-x="1075" 
d="M135 0zM950 467h-620v-92q0 -35 9.5 -70.5t33.5 -64.5t65 -47.5t105 -18.5q83 0 135.5 46.5t66.5 131.5h201q-11 -87 -44 -156t-85 -117t-121.5 -73.5t-152.5 -25.5q-92 0 -167.5 27.5t-129 79t-82.5 124.5t-29 164v323q0 89 29.5 161.5t83.5 123.5t129 79t166 28
t166 -27t128.5 -78t83 -123.5t29.5 -163.5v-231zM754 698q0 34 -9.5 69.5t-33 64.5t-64.5 48t-104 19q-100 0 -156.5 -52.5t-56.5 -148.5v-39h424v39zM637 1293v260h227v-260h-227zM236 1293v260h227v-260h-227z" />
    <glyph glyph-name="igrave" unicode="&#xec;" horiz-adv-x="504" 
d="M0 0zM156 0v1075h192v-1075h-192zM157 1217l-219 365h229l178 -365h-188z" />
    <glyph glyph-name="iacute" unicode="&#xed;" horiz-adv-x="500" 
d="M155 0zM155 0v1075h192v-1075h-192zM342 1217h-184l176 365h229z" />
    <glyph glyph-name="icircumflex" unicode="&#xee;" horiz-adv-x="508" 
d="M0 0zM158 0v1075h192v-1075h-192zM371 1216l-127 132l-127 -132h-206l260 324h147l256 -324h-203z" />
    <glyph glyph-name="idieresis" unicode="&#xef;" horiz-adv-x="500" 
d="M0 0zM155 0v1075h192v-1075h-192zM331 1293v260h227v-260h-227zM-70 1293v260h227v-260h-227z" />
    <glyph glyph-name="eth" unicode="&#xf0;" horiz-adv-x="1157" 
d="M926 1243q18 -43 27.5 -86.5t9.5 -75.5v-716q0 -32 -8 -72.5t-26.5 -83t-48.5 -83t-75.5 -72t-106.5 -51t-141 -19.5q-82 0 -144 20t-107.5 52t-76.5 73.5t-49.5 84t-26.5 83.5t-8 72v159q0 32 7.5 73.5t26 85.5t48.5 85.5t75 74.5t106 53t141 20q141 0 233 -68v201
q0 18 -0.5 25.5t-3.5 17.5l-100 -101l-121 119l141 139q-20 11 -44 18.5t-48.5 12t-48.5 6.5t-45 2v178q109 0 186 -25.5t125 -66.5l156 160l121 -119zM782 526q0 69 -25 111.5t-60 65.5t-73.5 30.5t-66.5 7.5q-29 0 -68.5 -7.5t-75.5 -30.5t-61.5 -65.5t-25.5 -111.5v-153
q0 -46 12 -79.5t31 -56.5t44 -38t50.5 -23t50 -11t43.5 -3q28 0 66.5 7t73.5 29.5t60 64t25 110.5v153z" />
    <glyph glyph-name="ntilde" unicode="&#xf1;" horiz-adv-x="1104" 
d="M156 0zM764 0v698q0 34 -6 69.5t-25.5 64.5t-57 48t-100.5 19q-46 0 -87 -14.5t-71.5 -40.5t-48.5 -62t-18 -80v-702h-194v1073h194v-59q47 37 108.5 56.5t116.5 19.5q94 0 165 -27t119 -77.5t72.5 -123.5t24.5 -164v-698h-192zM921 1389q-45 -43 -79.5 -69t-61.5 -39.5
t-49 -18t-41 -4.5q-33 0 -62 13t-57.5 29t-57.5 29t-63 13q-8 0 -16 -2t-20 -9t-29 -21.5t-43 -39.5l-125 121q44 44 78.5 70.5t62 40.5t49.5 18t41 4q33 0 62 -13t57.5 -29t57.5 -29t63 -13q7 0 15.5 3t21.5 11t30 22.5t41 37.5z" />
    <glyph glyph-name="ograve" unicode="&#xf2;" horiz-adv-x="1085" 
d="M135 0zM950 375q0 -89 -30 -162t-84 -125t-128.5 -80t-164.5 -28q-92 0 -167.5 27.5t-129 79t-82.5 124.5t-29 164v323q0 89 29.5 161.5t83.5 123.5t129 79t166 28t166 -27t128.5 -78t83 -123.5t29.5 -163.5v-323zM754 698q0 34 -9.5 69.5t-33 64.5t-64.5 48t-104 19
q-100 0 -156.5 -52.5t-56.5 -148.5v-323q0 -35 9.5 -70.5t33.5 -64.5t65 -47.5t105 -18.5q99 0 155 53.5t56 147.5v323zM502 1217l-219 365h229l178 -365h-188z" />
    <glyph glyph-name="oacute" unicode="&#xf3;" horiz-adv-x="1085" 
d="M135 0zM950 375q0 -89 -30 -162t-84 -125t-128.5 -80t-164.5 -28q-92 0 -167.5 27.5t-129 79t-82.5 124.5t-29 164v323q0 89 29.5 161.5t83.5 123.5t129 79t166 28t166 -27t128.5 -78t83 -123.5t29.5 -163.5v-323zM754 698q0 34 -9.5 69.5t-33 64.5t-64.5 48t-104 19
q-100 0 -156.5 -52.5t-56.5 -148.5v-323q0 -35 9.5 -70.5t33.5 -64.5t65 -47.5t105 -18.5q99 0 155 53.5t56 147.5v323zM580 1217h-184l176 365h229z" />
    <glyph glyph-name="ocircumflex" unicode="&#xf4;" horiz-adv-x="1085" 
d="M135 0zM950 375q0 -89 -30 -162t-84 -125t-128.5 -80t-164.5 -28q-92 0 -167.5 27.5t-129 79t-82.5 124.5t-29 164v323q0 89 29.5 161.5t83.5 123.5t129 79t166 28t166 -27t128.5 -78t83 -123.5t29.5 -163.5v-323zM754 698q0 34 -9.5 69.5t-33 64.5t-64.5 48t-104 19
q-100 0 -156.5 -52.5t-56.5 -148.5v-323q0 -35 9.5 -70.5t33.5 -64.5t65 -47.5t105 -18.5q99 0 155 53.5t56 147.5v323zM669 1216l-127 132l-127 -132h-206l260 324h147l256 -324h-203z" />
    <glyph glyph-name="otilde" unicode="&#xf5;" horiz-adv-x="1085" 
d="M135 0zM950 375q0 -89 -30 -162t-84 -125t-128.5 -80t-164.5 -28q-92 0 -167.5 27.5t-129 79t-82.5 124.5t-29 164v323q0 89 29.5 161.5t83.5 123.5t129 79t166 28t166 -27t128.5 -78t83 -123.5t29.5 -163.5v-323zM754 698q0 34 -9.5 69.5t-33 64.5t-64.5 48t-104 19
q-100 0 -156.5 -52.5t-56.5 -148.5v-323q0 -35 9.5 -70.5t33.5 -64.5t65 -47.5t105 -18.5q99 0 155 53.5t56 147.5v323zM897 1391q-45 -43 -79.5 -69t-61.5 -39.5t-49 -18t-41 -4.5q-33 0 -62 13t-57.5 29t-57.5 29t-63 13q-8 0 -16 -2t-20 -9t-29 -21.5t-43 -39.5l-125 121
q44 44 78.5 70.5t62 40.5t49.5 18t41 4q33 0 62 -13t57.5 -29t57.5 -29t63 -13q7 0 15.5 3t21.5 11t30 22.5t41 37.5z" />
    <glyph glyph-name="odieresis" unicode="&#xf6;" horiz-adv-x="1085" 
d="M135 0zM950 375q0 -89 -30 -162t-84 -125t-128.5 -80t-164.5 -28q-92 0 -167.5 27.5t-129 79t-82.5 124.5t-29 164v323q0 89 29.5 161.5t83.5 123.5t129 79t166 28t166 -27t128.5 -78t83 -123.5t29.5 -163.5v-323zM754 698q0 34 -9.5 69.5t-33 64.5t-64.5 48t-104 19
q-100 0 -156.5 -52.5t-56.5 -148.5v-323q0 -35 9.5 -70.5t33.5 -64.5t65 -47.5t105 -18.5q99 0 155 53.5t56 147.5v323zM629 1293v260h227v-260h-227zM228 1293v260h227v-260h-227z" />
    <glyph glyph-name="divide" unicode="&#xf7;" horiz-adv-x="1096" 
d="M408 0v262h264v-262h-264zM408 618v263h264v-263h-264zM150 350v187h782v-187h-782z" />
    <glyph glyph-name="oslash" unicode="&#xf8;" horiz-adv-x="1085" 
d="M950 375q0 -89 -30 -162t-84 -125t-128.5 -80t-164.5 -28q-22 0 -41 0.5t-37 3.5l-90 -287h-199l115 352q-33 25 -61.5 60t-49.5 77t-33 90t-12 99v323q0 89 29.5 161.5t83.5 123.5t129 79t166 28q26 0 43.5 -0.5t40.5 -2.5l80 242h198l-104 -317q149 -100 149 -314v-323
zM330 375q0 -25 8 -58t20 -59l209 641h-24q-100 0 -156.5 -52.5t-56.5 -148.5v-323zM754 698q0 28 -4 56t-15 53q-35 -107 -61.5 -186.5t-46.5 -140t-34.5 -104.5t-26 -79t-21 -64t-19.5 -59h17q99 0 155 53.5t56 147.5v323z" />
    <glyph glyph-name="ugrave" unicode="&#xf9;" horiz-adv-x="1110" 
d="M147 0zM758 0v70q-15 -16 -37.5 -32t-50 -28.5t-59 -20t-62.5 -7.5q-92 0 -166.5 27.5t-127 79t-80.5 124t-28 162.5v700h195v-700q0 -35 8.5 -70t31.5 -64t63 -47t104 -18q46 0 84.5 13t66 37.5t43 59.5t15.5 79v710h196v-1075h-196zM508 1217l-219 365h229l178 -365
h-188z" />
    <glyph glyph-name="uacute" unicode="&#xfa;" horiz-adv-x="1110" 
d="M147 0zM758 0v70q-15 -16 -37.5 -32t-50 -28.5t-59 -20t-62.5 -7.5q-92 0 -166.5 27.5t-127 79t-80.5 124t-28 162.5v700h195v-700q0 -35 8.5 -70t31.5 -64t63 -47t104 -18q46 0 84.5 13t66 37.5t43 59.5t15.5 79v710h196v-1075h-196zM594 1217h-184l176 365h229z" />
    <glyph glyph-name="ucircumflex" unicode="&#xfb;" horiz-adv-x="1110" 
d="M147 0zM758 0v70q-15 -16 -37.5 -32t-50 -28.5t-59 -20t-62.5 -7.5q-92 0 -166.5 27.5t-127 79t-80.5 124t-28 162.5v700h195v-700q0 -35 8.5 -70t31.5 -64t63 -47t104 -18q46 0 84.5 13t66 37.5t43 59.5t15.5 79v710h196v-1075h-196zM665 1216l-127 132l-127 -132h-206
l260 324h147l256 -324h-203z" />
    <glyph glyph-name="udieresis" unicode="&#xfc;" horiz-adv-x="1110" 
d="M147 0zM758 0v70q-15 -16 -37.5 -32t-50 -28.5t-59 -20t-62.5 -7.5q-92 0 -166.5 27.5t-127 79t-80.5 124t-28 162.5v700h195v-700q0 -35 8.5 -70t31.5 -64t63 -47t104 -18q46 0 84.5 13t66 37.5t43 59.5t15.5 79v710h196v-1075h-196zM633 1293v260h227v-260h-227z
M232 1293v260h227v-260h-227z" />
    <glyph glyph-name="yacute" unicode="&#xfd;" horiz-adv-x="930" 
d="M35 0zM336 0l-301 1075h205l229 -839l221 839h205l-338 -1274q-23 -87 -55 -139.5t-74 -80t-95 -36t-118 -8.5h-92v193h117q23 0 42 4t34 14t26 27t18 43l48 182h-72zM518 1217h-184l176 365h229z" />
    <glyph glyph-name="thorn" unicode="&#xfe;" horiz-adv-x="1090" 
d="M954 375q0 -89 -28.5 -162t-80 -125t-125 -80t-163.5 -28q-27 0 -57 6.5t-58 18.5t-52.5 28.5t-39.5 36.5v-533h-194v1882h194v-418q16 20 40 36.5t52 28t57.5 18t57.5 6.5q91 0 164.5 -27t125.5 -78t79.5 -123.5t27.5 -163.5v-323zM762 698q0 34 -8.5 69.5t-31 64.5
t-62.5 48t-103 19q-99 0 -153 -52.5t-54 -148.5v-323q0 -35 8 -70.5t31 -64.5t63 -47.5t105 -18.5q97 0 151 53.5t54 147.5v323z" />
    <glyph glyph-name="ydieresis" unicode="&#xff;" horiz-adv-x="930" 
d="M35 0zM336 0l-301 1075h205l229 -839l221 839h205l-338 -1274q-23 -87 -55 -139.5t-74 -80t-95 -36t-118 -8.5h-92v193h117q23 0 42 4t34 14t26 27t18 43l48 182h-72zM561 1293v260h227v-260h-227zM160 1293v260h227v-260h-227z" />
    <glyph glyph-name="Amacron" unicode="&#x100;" horiz-adv-x="1141" 
d="M43 0zM895 0l-102 397h-441l-104 -397h-205l381 1460h287l387 -1460h-203zM573 1245l-174 -651h342zM256 1624v186h643v-186h-643z" />
    <glyph glyph-name="amacron" unicode="&#x101;" horiz-adv-x="1063" 
d="M106 0zM915 0h-196v82q-18 -24 -45 -42.5t-60 -31.5t-69.5 -19.5t-73.5 -6.5q-65 0 -130 21t-117 64.5t-85 111t-33 161.5q0 78 28 136.5t77 98.5t115.5 60t142.5 20h250v74q0 50 -13.5 82.5t-37.5 52t-57.5 27.5t-73.5 8q-35 0 -68 -8t-59.5 -26.5t-45 -48.5t-24.5 -73
h-195q9 95 48.5 161t96 107.5t121.5 60t124 18.5q70 0 138 -18.5t122 -60t87 -109.5t33 -167v-735zM719 469h-248q-36 0 -67.5 -7t-54.5 -23t-36.5 -40.5t-13.5 -58.5q0 -50 17 -83.5t45 -53.5t63.5 -28.5t71.5 -8.5q41 0 81 15t71.5 42t51 65t19.5 85v96zM224 1278v186h643
v-186h-643z" />
    <glyph glyph-name="Abreve" unicode="&#x102;" horiz-adv-x="1194" 
d="M96 0zM948 0l-102 397h-441l-104 -397h-205l381 1460h287l387 -1460h-203zM626 1245l-174 -651h342zM977 1921q-10 -88 -40.5 -149.5t-76.5 -100.5t-105.5 -56.5t-127.5 -17.5q-72 0 -132.5 19t-106 59t-75 101t-38.5 145h172q12 -84 55.5 -126t124.5 -42q156 0 180 168
h170z" />
    <glyph glyph-name="abreve" unicode="&#x103;" horiz-adv-x="1063" 
d="M106 0zM915 0h-196v82q-18 -24 -45 -42.5t-60 -31.5t-69.5 -19.5t-73.5 -6.5q-65 0 -130 21t-117 64.5t-85 111t-33 161.5q0 78 28 136.5t77 98.5t115.5 60t142.5 20h250v74q0 50 -13.5 82.5t-37.5 52t-57.5 27.5t-73.5 8q-35 0 -68 -8t-59.5 -26.5t-45 -48.5t-24.5 -73
h-195q9 95 48.5 161t96 107.5t121.5 60t124 18.5q70 0 138 -18.5t122 -60t87 -109.5t33 -167v-735zM719 469h-248q-36 0 -67.5 -7t-54.5 -23t-36.5 -40.5t-13.5 -58.5q0 -50 17 -83.5t45 -53.5t63.5 -28.5t71.5 -8.5q41 0 81 15t71.5 42t51 65t19.5 85v96zM903 1561
q-10 -88 -40.5 -149.5t-76.5 -100.5t-105.5 -56.5t-127.5 -17.5q-72 0 -132.5 19t-106 59t-75 101t-38.5 145h172q12 -84 55.5 -126t124.5 -42q156 0 180 168h170z" />
    <glyph glyph-name="Aogonek" unicode="&#x104;" horiz-adv-x="1235" 
d="M96 0zM948 0l-102 397h-441l-104 -397h-205l381 1460h287l387 -1460h-203zM626 1245l-174 -651h342zM1163 -447l-190 358h211l219 -358h-240z" />
    <glyph glyph-name="aogonek" unicode="&#x105;" horiz-adv-x="1071" 
d="M106 0zM915 0h-196v82q-18 -24 -45 -42.5t-60 -31.5t-69.5 -19.5t-73.5 -6.5q-65 0 -130 21t-117 64.5t-85 111t-33 161.5q0 78 28 136.5t77 98.5t115.5 60t142.5 20h250v74q0 50 -13.5 82.5t-37.5 52t-57.5 27.5t-73.5 8q-35 0 -68 -8t-59.5 -26.5t-45 -48.5t-24.5 -73
h-195q9 95 48.5 161t96 107.5t121.5 60t124 18.5q70 0 138 -18.5t122 -60t87 -109.5t33 -167v-735zM719 469h-248q-36 0 -67.5 -7t-54.5 -23t-36.5 -40.5t-13.5 -58.5q0 -50 17 -83.5t45 -53.5t63.5 -28.5t71.5 -8.5q41 0 81 15t71.5 42t51 65t19.5 85v96zM913 -445
l-190 358h211l219 -358h-240z" />
    <glyph glyph-name="Cacute" unicode="&#x106;" horiz-adv-x="1071" 
d="M126 0zM972 385q0 -33 -8 -76t-27 -87.5t-51 -87.5t-79 -77t-111 -54.5t-148 -20.5q-83 0 -146 21t-110 54.5t-79 77t-51 88.5t-27.5 88t-8.5 76v688q0 32 8 74t26.5 86t50 86t78.5 75t111.5 53.5t149.5 20.5q81 0 144 -20.5t110 -53.5t79 -75.5t52 -86.5t28.5 -86
t8.5 -75h-201q0 66 -24.5 106t-59.5 61.5t-73 28.5t-64 7q-28 0 -67 -7t-74.5 -29t-60.5 -62t-25 -107v-684q0 -68 25 -108.5t60.5 -62.5t74.5 -29t67 -7q26 0 64 7t73 28.5t59.5 62t24.5 107.5h201zM590 1600h-184l176 365h229z" />
    <glyph glyph-name="cacute" unicode="&#x107;" horiz-adv-x="1042" 
d="M135 0zM543 1090q84 0 153.5 -25.5t122 -73.5t85 -116.5t42.5 -155.5h-198q-6 34 -20 66t-38 57.5t-60 41t-87 15.5q-100 0 -156.5 -52.5t-56.5 -148.5v-323q0 -35 9.5 -70.5t33.5 -64.5t65 -47.5t105 -18.5q83 0 135.5 46.5t66.5 131.5h201q-11 -87 -44 -156t-85 -117
t-121.5 -73.5t-152.5 -25.5q-92 0 -167.5 27.5t-129 79t-82.5 124.5t-29 164v323q0 89 29.5 161.5t83.5 123.5t129 79t166 28zM576 1217h-184l176 365h229z" />
    <glyph glyph-name="Ccircumflex" unicode="&#x108;" horiz-adv-x="1071" 
d="M126 0zM972 385q0 -33 -8 -76t-27 -87.5t-51 -87.5t-79 -77t-111 -54.5t-148 -20.5q-83 0 -146 21t-110 54.5t-79 77t-51 88.5t-27.5 88t-8.5 76v688q0 32 8 74t26.5 86t50 86t78.5 75t111.5 53.5t149.5 20.5q81 0 144 -20.5t110 -53.5t79 -75.5t52 -86.5t28.5 -86
t8.5 -75h-201q0 66 -24.5 106t-59.5 61.5t-73 28.5t-64 7q-28 0 -67 -7t-74.5 -29t-60.5 -62t-25 -107v-684q0 -68 25 -108.5t60.5 -62.5t74.5 -29t67 -7q26 0 64 7t73 28.5t59.5 62t24.5 107.5h201zM684 1624l-127 132l-127 -132h-206l260 324h147l256 -324h-203z" />
    <glyph glyph-name="ccircumflex" unicode="&#x109;" horiz-adv-x="1042" 
d="M135 0zM543 1090q84 0 153.5 -25.5t122 -73.5t85 -116.5t42.5 -155.5h-198q-6 34 -20 66t-38 57.5t-60 41t-87 15.5q-100 0 -156.5 -52.5t-56.5 -148.5v-323q0 -35 9.5 -70.5t33.5 -64.5t65 -47.5t105 -18.5q83 0 135.5 46.5t66.5 131.5h201q-11 -87 -44 -156t-85 -117
t-121.5 -73.5t-152.5 -25.5q-92 0 -167.5 27.5t-129 79t-82.5 124.5t-29 164v323q0 89 29.5 161.5t83.5 123.5t129 79t166 28zM665 1216l-127 132l-127 -132h-206l260 324h147l256 -324h-203z" />
    <glyph glyph-name="Cdotaccent" unicode="&#x10a;" horiz-adv-x="1071" 
d="M126 0zM972 385q0 -33 -8 -76t-27 -87.5t-51 -87.5t-79 -77t-111 -54.5t-148 -20.5q-83 0 -146 21t-110 54.5t-79 77t-51 88.5t-27.5 88t-8.5 76v688q0 32 8 74t26.5 86t50 86t78.5 75t111.5 53.5t149.5 20.5q81 0 144 -20.5t110 -53.5t79 -75.5t52 -86.5t28.5 -86
t8.5 -75h-201q0 66 -24.5 106t-59.5 61.5t-73 28.5t-64 7q-28 0 -67 -7t-74.5 -29t-60.5 -62t-25 -107v-684q0 -68 25 -108.5t60.5 -62.5t74.5 -29t67 -7q26 0 64 7t73 28.5t59.5 62t24.5 107.5h201zM430 1624v219h229v-219h-229z" />
    <glyph glyph-name="cdotaccent" unicode="&#x10b;" horiz-adv-x="1042" 
d="M135 0zM543 1090q84 0 153.5 -25.5t122 -73.5t85 -116.5t42.5 -155.5h-198q-6 34 -20 66t-38 57.5t-60 41t-87 15.5q-100 0 -156.5 -52.5t-56.5 -148.5v-323q0 -35 9.5 -70.5t33.5 -64.5t65 -47.5t105 -18.5q83 0 135.5 46.5t66.5 131.5h201q-11 -87 -44 -156t-85 -117
t-121.5 -73.5t-152.5 -25.5q-92 0 -167.5 27.5t-129 79t-82.5 124.5t-29 164v323q0 89 29.5 161.5t83.5 123.5t129 79t166 28zM406 1293v219h229v-219h-229z" />
    <glyph glyph-name="Ccaron" unicode="&#x10c;" horiz-adv-x="1071" 
d="M126 0zM972 385q0 -33 -8 -76t-27 -87.5t-51 -87.5t-79 -77t-111 -54.5t-148 -20.5q-83 0 -146 21t-110 54.5t-79 77t-51 88.5t-27.5 88t-8.5 76v688q0 32 8 74t26.5 86t50 86t78.5 75t111.5 53.5t149.5 20.5q81 0 144 -20.5t110 -53.5t79 -75.5t52 -86.5t28.5 -86
t8.5 -75h-201q0 66 -24.5 106t-59.5 61.5t-73 28.5t-64 7q-28 0 -67 -7t-74.5 -29t-60.5 -62t-25 -107v-684q0 -68 25 -108.5t60.5 -62.5t74.5 -29t67 -7q26 0 64 7t73 28.5t59.5 62t24.5 107.5h201zM411 1948l125 -129l127 129h205l-256 -324h-147l-260 324h206z" />
    <glyph glyph-name="ccaron" unicode="&#x10d;" horiz-adv-x="1042" 
d="M135 0zM543 1090q84 0 153.5 -25.5t122 -73.5t85 -116.5t42.5 -155.5h-198q-6 34 -20 66t-38 57.5t-60 41t-87 15.5q-100 0 -156.5 -52.5t-56.5 -148.5v-323q0 -35 9.5 -70.5t33.5 -64.5t65 -47.5t105 -18.5q83 0 135.5 46.5t66.5 131.5h201q-11 -87 -44 -156t-85 -117
t-121.5 -73.5t-152.5 -25.5q-92 0 -167.5 27.5t-129 79t-82.5 124.5t-29 164v323q0 89 29.5 161.5t83.5 123.5t129 79t166 28zM403 1540l125 -129l127 129h205l-256 -324h-147l-260 324h206z" />
    <glyph glyph-name="Dcaron" unicode="&#x10e;" horiz-adv-x="1135" 
d="M156 0zM999 401q0 -33 -6.5 -75.5t-22.5 -87t-44.5 -87.5t-72.5 -76.5t-105.5 -54t-143.5 -20.5h-448v1462h440q84 0 147 -20.5t107.5 -54t73.5 -76.5t45.5 -87.5t23 -86.5t6.5 -74v-662zM803 1057q0 67 -21.5 108t-53.5 63t-68 29t-64 7h-242v-1067h246q28 0 63.5 7
t66.5 29t52 62.5t21 107.5v654zM411 1948l125 -129l127 129h205l-256 -324h-147l-260 324h206z" />
    <glyph glyph-name="dcaron" unicode="&#x10f;" horiz-adv-x="1227" 
d="M135 0zM332 375q0 -94 54 -147.5t151 -53.5q64 0 104 18.5t62.5 47.5t31 64.5t8.5 70.5v323q0 96 -54.5 148.5t-151.5 52.5q-63 0 -103 -19t-62.5 -48t-31 -64.5t-8.5 -69.5v-323zM135 698q0 91 28.5 163.5t81 123.5t126.5 78t166 27q32 0 63.5 -7.5t59 -20t49 -28.5
t34.5 -33v459h197v-1460h-197v66q-12 -15 -34.5 -30.5t-50.5 -28t-59.5 -20t-61.5 -7.5q-90 0 -164 28t-127 80t-82 125t-29 162v323zM1210 1097h-184l176 365h229z" />
    <glyph glyph-name="Dcroat" unicode="&#x110;" horiz-adv-x="1128" 
d="M993 401q0 -33 -6.5 -75.5t-23 -87t-44.5 -87.5t-72.5 -76.5t-106 -54t-144.5 -20.5h-449v647h-110v189h110v626h443q84 0 146.5 -20.5t107.5 -54t73.5 -76.5t45.5 -87.5t23.5 -86.5t6.5 -74v-662zM795 1057q0 67 -22 108t-53.5 63t-67 29t-62.5 7h-244v-428h350v-189
h-350v-450h246q28 0 63 7t66 29t52.5 62.5t21.5 107.5v654z" />
    <glyph glyph-name="dcroat" unicode="&#x111;" horiz-adv-x="1079" 
d="M455 1333h288v86h195v-86h143v-184h-143v-1149h-195v37q-45 -29 -97 -43t-109 -14q-91 0 -165 28t-126.5 80t-81.5 125t-29 162v323q0 91 28.5 163.5t81 123.5t126.5 78t166 27q57 0 109 -12.5t97 -41.5v113h-288v184zM330 375q0 -94 55 -147.5t152 -53.5q64 0 104 18.5
t62.5 47.5t31 64.5t8.5 70.5v323q0 96 -54.5 148.5t-151.5 52.5q-64 0 -104 -19t-63 -48t-31.5 -64.5t-8.5 -69.5v-323z" />
    <glyph glyph-name="Emacron" unicode="&#x112;" horiz-adv-x="1061" 
d="M156 0zM156 0v1460h811v-198h-613v-394h568v-196h-568v-475h613v-197h-811zM234 1624v186h643v-186h-643z" />
    <glyph glyph-name="emacron" unicode="&#x113;" horiz-adv-x="1075" 
d="M135 0zM950 467h-620v-92q0 -35 9.5 -70.5t33.5 -64.5t65 -47.5t105 -18.5q83 0 135.5 46.5t66.5 131.5h201q-11 -87 -44 -156t-85 -117t-121.5 -73.5t-152.5 -25.5q-92 0 -167.5 27.5t-129 79t-82.5 124.5t-29 164v323q0 89 29.5 161.5t83.5 123.5t129 79t166 28
t166 -27t128.5 -78t83 -123.5t29.5 -163.5v-231zM754 698q0 34 -9.5 69.5t-33 64.5t-64.5 48t-104 19q-100 0 -156.5 -52.5t-56.5 -148.5v-39h424v39zM217 1278v186h643v-186h-643z" />
    <glyph glyph-name="Ebreve" unicode="&#x114;" horiz-adv-x="1061" 
d="M156 0zM156 0v1460h811v-198h-613v-394h568v-196h-568v-475h613v-197h-811zM901 1923q-10 -88 -40.5 -149.5t-76.5 -100.5t-105.5 -56.5t-127.5 -17.5q-72 0 -132.5 19t-106 59t-75 101t-38.5 145h172q12 -84 55.5 -126t124.5 -42q156 0 180 168h170z" />
    <glyph glyph-name="ebreve" unicode="&#x115;" horiz-adv-x="1075" 
d="M135 0zM950 467h-620v-92q0 -35 9.5 -70.5t33.5 -64.5t65 -47.5t105 -18.5q83 0 135.5 46.5t66.5 131.5h201q-11 -87 -44 -156t-85 -117t-121.5 -73.5t-152.5 -25.5q-92 0 -167.5 27.5t-129 79t-82.5 124.5t-29 164v323q0 89 29.5 161.5t83.5 123.5t129 79t166 28
t166 -27t128.5 -78t83 -123.5t29.5 -163.5v-231zM754 698q0 34 -9.5 69.5t-33 64.5t-64.5 48t-104 19q-100 0 -156.5 -52.5t-56.5 -148.5v-39h424v39zM903 1559q-10 -88 -40.5 -149.5t-76.5 -100.5t-105.5 -56.5t-127.5 -17.5q-72 0 -132.5 19t-106 59t-75 101t-38.5 145
h172q12 -84 55.5 -126t124.5 -42q156 0 180 168h170z" />
    <glyph glyph-name="Edotaccent" unicode="&#x116;" horiz-adv-x="1061" 
d="M156 0zM156 0v1460h811v-198h-613v-394h568v-196h-568v-475h613v-197h-811zM451 1624v219h229v-219h-229z" />
    <glyph glyph-name="edotaccent" unicode="&#x117;" horiz-adv-x="1075" 
d="M135 0zM950 467h-620v-92q0 -35 9.5 -70.5t33.5 -64.5t65 -47.5t105 -18.5q83 0 135.5 46.5t66.5 131.5h201q-11 -87 -44 -156t-85 -117t-121.5 -73.5t-152.5 -25.5q-92 0 -167.5 27.5t-129 79t-82.5 124.5t-29 164v323q0 89 29.5 161.5t83.5 123.5t129 79t166 28
t166 -27t128.5 -78t83 -123.5t29.5 -163.5v-231zM754 698q0 34 -9.5 69.5t-33 64.5t-64.5 48t-104 19q-100 0 -156.5 -52.5t-56.5 -148.5v-39h424v39zM437 1293v219h229v-219h-229z" />
    <glyph glyph-name="Eogonek" unicode="&#x118;" horiz-adv-x="1061" 
d="M156 0zM156 0v1460h811v-198h-613v-394h568v-196h-568v-475h613v-197h-811zM635 -445l-190 358h211l219 -358h-240z" />
    <glyph glyph-name="eogonek" unicode="&#x119;" horiz-adv-x="1075" 
d="M135 0zM950 467h-620v-92q0 -35 9.5 -70.5t33.5 -64.5t65 -47.5t105 -18.5q83 0 135.5 46.5t66.5 131.5h201q-11 -87 -44 -156t-85 -117t-121.5 -73.5t-152.5 -25.5q-92 0 -167.5 27.5t-129 79t-82.5 124.5t-29 164v323q0 89 29.5 161.5t83.5 123.5t129 79t166 28
t166 -27t128.5 -78t83 -123.5t29.5 -163.5v-231zM754 698q0 34 -9.5 69.5t-33 64.5t-64.5 48t-104 19q-100 0 -156.5 -52.5t-56.5 -148.5v-39h424v39zM643 -447l-190 358h211l219 -358h-240z" />
    <glyph glyph-name="Ecaron" unicode="&#x11a;" horiz-adv-x="1061" 
d="M156 0zM156 0v1460h811v-198h-613v-394h568v-196h-568v-475h613v-197h-811zM419 1948l125 -129l127 129h205l-256 -324h-147l-260 324h206z" />
    <glyph glyph-name="ecaron" unicode="&#x11b;" horiz-adv-x="1075" 
d="M135 0zM950 467h-620v-92q0 -35 9.5 -70.5t33.5 -64.5t65 -47.5t105 -18.5q83 0 135.5 46.5t66.5 131.5h201q-11 -87 -44 -156t-85 -117t-121.5 -73.5t-152.5 -25.5q-92 0 -167.5 27.5t-129 79t-82.5 124.5t-29 164v323q0 89 29.5 161.5t83.5 123.5t129 79t166 28
t166 -27t128.5 -78t83 -123.5t29.5 -163.5v-231zM754 698q0 34 -9.5 69.5t-33 64.5t-64.5 48t-104 19q-100 0 -156.5 -52.5t-56.5 -148.5v-39h424v39zM428 1540l125 -129l127 129h205l-256 -324h-147l-260 324h206z" />
    <glyph glyph-name="Gcircumflex" unicode="&#x11c;" 
d="M135 0zM981 385q0 -33 -8.5 -76t-28 -87.5t-52 -87.5t-79.5 -77t-111 -54.5t-147 -20.5t-146 21t-109.5 54.5t-78 77t-51 88.5t-27.5 88t-8 76v688q0 32 8 74t26.5 86t50 86t78.5 75t111.5 53.5t149.5 20.5q81 0 144 -19.5t110 -51.5t79 -73.5t52 -85.5t28.5 -87.5
t8.5 -79.5h-201q0 65 -24.5 104.5t-59.5 61t-73 28.5t-64 7q-28 0 -67 -7t-74.5 -28.5t-60.5 -61.5t-25 -106v-684q0 -67 25 -107.5t60.5 -62t74.5 -28.5t67 -7q26 0 64 7t73 28.5t59.5 62t24.5 107.5v240h-250v198h451v-440zM688 1624l-127 132l-127 -132h-206l260 324h147
l256 -324h-203z" />
    <glyph glyph-name="gcircumflex" unicode="&#x11d;" horiz-adv-x="1092" 
d="M135 0zM739 66q-14 -16 -35.5 -31.5t-48 -27.5t-57 -19.5t-61.5 -7.5q-92 0 -166.5 27.5t-127 79t-80.5 124.5t-28 164v323q0 89 29 161.5t81.5 123.5t126.5 79t165 28q30 0 61 -7t58 -18.5t48.5 -26.5t34.5 -30v67h197v-1155q0 -112 -34 -186t-90 -117.5t-127.5 -61.5
t-147.5 -18q-70 0 -132.5 20t-112 58t-83.5 92.5t-49 124.5h202q23 -51 68 -82t107 -31q35 0 71 7t65 29t47.5 61t18.5 104v146zM739 698q0 34 -8 69.5t-30 64.5t-61.5 48t-102.5 19q-97 0 -152 -52.5t-55 -148.5v-323q0 -35 8.5 -70.5t31.5 -64.5t63 -47.5t104 -18.5
q96 0 149 53.5t53 147.5v323zM677 1216l-127 132l-127 -132h-206l260 324h147l256 -324h-203z" />
    <glyph glyph-name="Gbreve" unicode="&#x11e;" 
d="M135 0zM981 385q0 -33 -8.5 -76t-28 -87.5t-52 -87.5t-79.5 -77t-111 -54.5t-147 -20.5t-146 21t-109.5 54.5t-78 77t-51 88.5t-27.5 88t-8 76v688q0 32 8 74t26.5 86t50 86t78.5 75t111.5 53.5t149.5 20.5q81 0 144 -19.5t110 -51.5t79 -73.5t52 -85.5t28.5 -87.5
t8.5 -79.5h-201q0 65 -24.5 104.5t-59.5 61t-73 28.5t-64 7q-28 0 -67 -7t-74.5 -28.5t-60.5 -61.5t-25 -106v-684q0 -67 25 -107.5t60.5 -62t74.5 -28.5t67 -7q26 0 64 7t73 28.5t59.5 62t24.5 107.5v240h-250v198h451v-440zM907 1921q-10 -88 -40.5 -149.5t-76.5 -100.5
t-105.5 -56.5t-127.5 -17.5q-72 0 -132.5 19t-106 59t-75 101t-38.5 145h172q12 -84 55.5 -126t124.5 -42q156 0 180 168h170z" />
    <glyph glyph-name="gbreve" unicode="&#x11f;" horiz-adv-x="1092" 
d="M135 0zM739 66q-14 -16 -35.5 -31.5t-48 -27.5t-57 -19.5t-61.5 -7.5q-92 0 -166.5 27.5t-127 79t-80.5 124.5t-28 164v323q0 89 29 161.5t81.5 123.5t126.5 79t165 28q30 0 61 -7t58 -18.5t48.5 -26.5t34.5 -30v67h197v-1155q0 -112 -34 -186t-90 -117.5t-127.5 -61.5
t-147.5 -18q-70 0 -132.5 20t-112 58t-83.5 92.5t-49 124.5h202q23 -51 68 -82t107 -31q35 0 71 7t65 29t47.5 61t18.5 104v146zM739 698q0 34 -8 69.5t-30 64.5t-61.5 48t-102.5 19q-97 0 -152 -52.5t-55 -148.5v-323q0 -35 8.5 -70.5t31.5 -64.5t63 -47.5t104 -18.5
q96 0 149 53.5t53 147.5v323zM897 1561q-10 -88 -40.5 -149.5t-76.5 -100.5t-105.5 -56.5t-127.5 -17.5q-72 0 -132.5 19t-106 59t-75 101t-38.5 145h172q12 -84 55.5 -126t124.5 -42q156 0 180 168h170z" />
    <glyph glyph-name="Gdotaccent" unicode="&#x120;" 
d="M135 0zM981 385q0 -33 -8.5 -76t-28 -87.5t-52 -87.5t-79.5 -77t-111 -54.5t-147 -20.5t-146 21t-109.5 54.5t-78 77t-51 88.5t-27.5 88t-8 76v688q0 32 8 74t26.5 86t50 86t78.5 75t111.5 53.5t149.5 20.5q81 0 144 -19.5t110 -51.5t79 -73.5t52 -85.5t28.5 -87.5
t8.5 -79.5h-201q0 65 -24.5 104.5t-59.5 61t-73 28.5t-64 7q-28 0 -67 -7t-74.5 -28.5t-60.5 -61.5t-25 -106v-684q0 -67 25 -107.5t60.5 -62t74.5 -28.5t67 -7q26 0 64 7t73 28.5t59.5 62t24.5 107.5v240h-250v198h451v-440zM432 1624v219h229v-219h-229z" />
    <glyph glyph-name="gdotaccent" unicode="&#x121;" horiz-adv-x="1092" 
d="M135 0zM739 66q-14 -16 -35.5 -31.5t-48 -27.5t-57 -19.5t-61.5 -7.5q-92 0 -166.5 27.5t-127 79t-80.5 124.5t-28 164v323q0 89 29 161.5t81.5 123.5t126.5 79t165 28q30 0 61 -7t58 -18.5t48.5 -26.5t34.5 -30v67h197v-1155q0 -112 -34 -186t-90 -117.5t-127.5 -61.5
t-147.5 -18q-70 0 -132.5 20t-112 58t-83.5 92.5t-49 124.5h202q23 -51 68 -82t107 -31q35 0 71 7t65 29t47.5 61t18.5 104v146zM739 698q0 34 -8 69.5t-30 64.5t-61.5 48t-102.5 19q-97 0 -152 -52.5t-55 -148.5v-323q0 -35 8.5 -70.5t31.5 -64.5t63 -47.5t104 -18.5
q96 0 149 53.5t53 147.5v323zM430 1293v219h229v-219h-229z" />
    <glyph glyph-name="Gcommaaccent" unicode="&#x122;" 
d="M135 0zM981 385q0 -33 -8.5 -76t-28 -87.5t-52 -87.5t-79.5 -77t-111 -54.5t-147 -20.5t-146 21t-109.5 54.5t-78 77t-51 88.5t-27.5 88t-8 76v688q0 32 8 74t26.5 86t50 86t78.5 75t111.5 53.5t149.5 20.5q81 0 144 -19.5t110 -51.5t79 -73.5t52 -85.5t28.5 -87.5
t8.5 -79.5h-201q0 65 -24.5 104.5t-59.5 61t-73 28.5t-64 7q-28 0 -67 -7t-74.5 -28.5t-60.5 -61.5t-25 -106v-684q0 -67 25 -107.5t60.5 -62t74.5 -28.5t67 -7q26 0 64 7t73 28.5t59.5 62t24.5 107.5v240h-250v198h451v-440zM518 -445h-217l168 358h188z" />
    <glyph glyph-name="gcommaaccent" unicode="&#x123;" horiz-adv-x="1092" 
d="M135 0zM739 66q-14 -16 -35.5 -31.5t-48 -27.5t-57 -19.5t-61.5 -7.5q-92 0 -166.5 27.5t-127 79t-80.5 124.5t-28 164v323q0 89 29 161.5t81.5 123.5t126.5 79t165 28q30 0 61 -7t58 -18.5t48.5 -26.5t34.5 -30v67h197v-1155q0 -112 -34 -186t-90 -117.5t-127.5 -61.5
t-147.5 -18q-70 0 -132.5 20t-112 58t-83.5 92.5t-49 124.5h202q23 -51 68 -82t107 -31q35 0 71 7t65 29t47.5 61t18.5 104v146zM739 698q0 34 -8 69.5t-30 64.5t-61.5 48t-102.5 19q-97 0 -152 -52.5t-55 -148.5v-323q0 -35 8.5 -70.5t31.5 -64.5t63 -47.5t104 -18.5
q96 0 149 53.5t53 147.5v323zM594 1219h-184l176 365h229z" />
    <glyph glyph-name="Hcircumflex" unicode="&#x124;" horiz-adv-x="1184" 
d="M156 0zM827 0v666h-473v-666h-198v1460h198v-596h473v596h201v-1460h-201zM720 1624l-127 132l-127 -132h-206l260 324h147l256 -324h-203z" />
    <glyph glyph-name="hcircumflex" unicode="&#x125;" horiz-adv-x="1090" 
d="M155 0zM763 0v698q0 34 -6 69.5t-25.5 64.5t-57 48t-100.5 19q-46 0 -87 -14.5t-71.5 -40.5t-48.5 -62t-18 -80v-702h-194v1460h194v-446q22 19 49.5 33.5t57 24t60 14t58.5 4.5q94 0 165.5 -27t119.5 -77.5t72 -123.5t24 -164v-698h-192zM682 1624l-127 132l-127 -132
h-206l260 324h147l256 -324h-203z" />
    <glyph glyph-name="Hbar" unicode="&#x126;" horiz-adv-x="1178" 
d="M831 0v666h-475v-666h-198v1157h-105v191h105v112h198v-112h475v112h199v-112h96v-191h-96v-1157h-199zM831 864v293h-475v-293h475z" />
    <glyph glyph-name="hbar" unicode="&#x127;" horiz-adv-x="1079" 
d="M336 1128v-106q51 38 108.5 53t116.5 15q94 0 165.5 -27t120 -77.5t73 -123.5t24.5 -164v-698h-196v698q0 34 -5.5 69.5t-25 64.5t-56.5 48t-100 19q-46 0 -87 -14.5t-71.5 -40.5t-48.5 -62t-18 -80v-702h-195v1128h-129v185h129v106h195v-106h303v-185h-303z" />
    <glyph glyph-name="Itilde" unicode="&#x128;" horiz-adv-x="514" 
d="M0 0zM356 1460v-1460h-200v1460h200zM605 1731q-45 -43 -79.5 -69t-61.5 -39.5t-49 -18t-41 -4.5q-33 0 -62 13t-57.5 29t-57.5 29t-63 13q-8 0 -16 -2t-20 -9t-29 -21.5t-43 -39.5l-125 121q44 44 78.5 70.5t62 40.5t49.5 18t41 4q33 0 62 -13t57.5 -29t57.5 -29t63 -13
q7 0 15.5 3t21.5 11t30 22.5t41 37.5z" />
    <glyph glyph-name="itilde" unicode="&#x129;" horiz-adv-x="504" 
d="M0 0zM156 0v1075h192v-1075h-192zM595 1391q-45 -43 -79.5 -69t-61.5 -39.5t-49 -18t-41 -4.5q-33 0 -62 13t-57.5 29t-57.5 29t-63 13q-8 0 -16 -2t-20 -9t-29 -21.5t-43 -39.5l-125 121q44 44 78.5 70.5t62 40.5t49.5 18t41 4q33 0 62 -13t57.5 -29t57.5 -29t63 -13
q7 0 15.5 3t21.5 11t30 22.5t41 37.5z" />
    <glyph glyph-name="uni012A" unicode="&#x12a;" horiz-adv-x="512" 
d="M0 0zM356 1460v-1460h-200v1460h200zM-70 1624v186h643v-186h-643z" />
    <glyph glyph-name="imacron" unicode="&#x12b;" horiz-adv-x="502" 
d="M0 0zM155 0v1075h192v-1075h-192zM-74 1354v186h643v-186h-643z" />
    <glyph glyph-name="Ibreve" unicode="&#x12c;" horiz-adv-x="512" 
d="M0 0zM356 1460v-1460h-200v1460h200zM607 1921q-10 -88 -40.5 -149.5t-76.5 -100.5t-105.5 -56.5t-127.5 -17.5q-72 0 -132.5 19t-106 59t-75 101t-38.5 145h172q12 -84 55.5 -126t124.5 -42q156 0 180 168h170z" />
    <glyph glyph-name="uni012D" unicode="&#x12d;" horiz-adv-x="502" 
d="M0 0zM595 1559q-10 -88 -40.5 -149.5t-76.5 -100.5t-105.5 -56.5t-127.5 -17.5q-72 0 -132.5 19t-106 59t-75 101t-38.5 145h172q12 -84 55.5 -126t124.5 -42q156 0 180 168h170zM156 0v1075h192v-1075h-192z" />
    <glyph glyph-name="Iogonek" unicode="&#x12e;" horiz-adv-x="514" 
d="M156 0zM356 1460v-1460h-200v1460h200zM358 -445l-190 358h211l219 -358h-240z" />
    <glyph glyph-name="iogonek" unicode="&#x12f;" horiz-adv-x="506" 
d="M141 0zM159 0v1075h193v-1075h-193zM141 1212v258h227v-258h-227zM354 -445l-190 358h211l219 -358h-240z" />
    <glyph glyph-name="Idotaccent" unicode="&#x130;" horiz-adv-x="514" 
d="M143 0zM358 1460v-1460h-200v1460h200zM143 1624v219h229v-219h-229z" />
    <glyph glyph-name="dotlessi" unicode="&#x131;" horiz-adv-x="504" 
d="M156 0v1075h192v-1075h-192z" />
    <glyph glyph-name="IJ" unicode="&#x132;" horiz-adv-x="1366" 
d="M155 0zM355 1460v-1460h-200v1460h200zM1221 383q0 -95 -25.5 -169t-74.5 -126t-120.5 -79t-162.5 -27t-162 29t-120 82t-75 127t-26 163h198q0 -65 18 -104.5t46 -61.5t61 -29.5t62 -7.5q30 0 62.5 7.5t59.5 28t44.5 58t17.5 97.5v891h-422v198h619v-1077z" />
    <glyph glyph-name="ij" unicode="&#x133;" horiz-adv-x="1020" 
d="M155 0zM173 0v1075h193v-1075h-193zM155 1212v258h227v-258h-227zM848 -172q0 -78 -21 -133.5t-57.5 -90.5t-85.5 -51t-104 -16h-82v193h71q35 0 59.5 18.5t24.5 69.5v1257h195v-1247zM639 1212v258h225v-258h-225z" />
    <glyph glyph-name="Jcircumflex" unicode="&#x134;" horiz-adv-x="944" 
d="M33 0zM799 383q0 -95 -25.5 -169t-74.5 -126t-120.5 -79t-162.5 -27t-162 29t-120 82t-75 127t-26 163h198q0 -65 18 -104.5t46 -61.5t61 -29.5t62 -7.5q30 0 62.5 7.5t59.5 28t44.5 58t17.5 97.5v891h-422v198h619v-1077zM592 1624l-127 132l-127 -132h-206l260 324h147
l256 -324h-203z" />
    <glyph glyph-name="jcircumflex" unicode="&#x135;" horiz-adv-x="600" 
d="M408 -131q0 -78 -21 -133.5t-57.5 -90.5t-85.5 -51t-105 -16h-80v193h72q34 0 59 18.5t25 69.5v1216h193v-1206zM430 1216l-127 132l-127 -132h-206l260 324h147l256 -324h-203z" />
    <glyph glyph-name="Kcommaaccent" unicode="&#x136;" horiz-adv-x="1124" 
d="M156 0zM823 0l-374 629l-95 -142v-487h-198v1460h198v-618q110 155 220.5 309t220.5 309h231l-461 -657l486 -803h-228zM1046 -445l-190 358h211l219 -358h-240z" />
    <glyph glyph-name="kcommaaccent" unicode="&#x137;" 
d="M156 0zM776 0l-301 475l-125 -135v-340h-194v1460h194v-842l416 457h256l-420 -457l404 -618h-230zM1016 -447l-190 358h211l219 -358h-240z" />
    <glyph glyph-name="Lacute" unicode="&#x139;" horiz-adv-x="987" 
d="M156 0zM156 0v1460h198v-1263h611v-197h-809zM348 1600h-184l176 365h229z" />
    <glyph glyph-name="lacute" unicode="&#x13a;" horiz-adv-x="532" 
d="M147 0zM147 1460h195v-1179q0 -51 25 -69.5t59 -18.5h72v-193h-82q-56 0 -104.5 16t-85.5 51t-58 89.5t-21 132.5v1171zM344 1600h-184l176 365h229z" />
    <glyph glyph-name="Lcommaaccent" unicode="&#x13b;" horiz-adv-x="987" 
d="M156 0zM156 0v1460h198v-1263h611v-197h-809zM563 -445h-217l168 358h188z" />
    <glyph glyph-name="lcommaaccent" unicode="&#x13c;" horiz-adv-x="541" 
d="M139 0zM155 1460h195v-1179q0 -51 25 -69.5t59 -18.5h72v-193h-82q-56 0 -104.5 16t-85.5 51t-58 89.5t-21 132.5v1171zM356 -445h-217l168 358h188z" />
    <glyph glyph-name="Lcaron" unicode="&#x13d;" horiz-adv-x="1038" 
d="M156 0zM156 0v1460h198v-1263h611v-197h-809zM735 1097h-184l176 365h229z" />
    <glyph glyph-name="lcaron" unicode="&#x13e;" horiz-adv-x="639" 
d="M147 0zM147 1460h195v-1179q0 -51 25 -69.5t59 -18.5h72v-193h-82q-56 0 -104.5 16t-85.5 51t-58 89.5t-21 132.5v1171zM643 1097h-184l176 365h229z" />
    <glyph glyph-name="Ldot" unicode="&#x13f;" horiz-adv-x="987" 
d="M156 0zM156 0v1460h198v-1263h611v-197h-809zM502 416v256h254v-256h-254z" />
    <glyph glyph-name="ldot" unicode="&#x140;" horiz-adv-x="887" 
d="M147 0zM147 1460h195v-1179q0 -51 25 -69.5t59 -18.5h72v-193h-82q-56 0 -104.5 16t-85.5 51t-58 89.5t-21 132.5v1171zM527 416v256h254v-256h-254z" />
    <glyph glyph-name="Lslash" unicode="&#x141;" horiz-adv-x="975" 
d="M147 0v496h-108v190h108v774h199v-774h594v-190h-594v-299h606v-197h-805z" />
    <glyph glyph-name="lslash" unicode="&#x142;" horiz-adv-x="489" 
d="M123 502h-211v184h211v735h194v-735h220v-184h-220v-221q0 -51 25 -69.5t59 -18.5h72v-193h-80q-56 0 -105 16t-86 51t-58 89.5t-21 132.5v213z" />
    <glyph glyph-name="Nacute" unicode="&#x143;" horiz-adv-x="1165" 
d="M156 0zM786 0l-432 1014v-1014h-198v1460h219l438 -1030v1030h197v-1460h-224zM629 1600h-184l176 365h229z" />
    <glyph glyph-name="nacute" unicode="&#x144;" horiz-adv-x="1104" 
d="M156 0zM764 0v698q0 34 -6 69.5t-25.5 64.5t-57 48t-100.5 19q-46 0 -87 -14.5t-71.5 -40.5t-48.5 -62t-18 -80v-702h-194v1073h194v-59q47 37 108.5 56.5t116.5 19.5q94 0 165 -27t119 -77.5t72.5 -123.5t24.5 -164v-698h-192zM600 1217h-184l176 365h229z" />
    <glyph glyph-name="Ncommaaccent" unicode="&#x145;" horiz-adv-x="1245" 
d="M156 0zM786 0l-432 1014v-1014h-198v1460h219l438 -1030v1030h197v-1460h-224zM1020 -445l-190 358h211l219 -358h-240z" />
    <glyph glyph-name="ncommaaccent" unicode="&#x146;" horiz-adv-x="1135" 
d="M156 0zM764 0v698q0 34 -6 69.5t-25.5 64.5t-57 48t-100.5 19q-46 0 -87 -14.5t-71.5 -40.5t-48.5 -62t-18 -80v-702h-194v1073h194v-59q47 37 108.5 56.5t116.5 19.5q94 0 165 -27t119 -77.5t72.5 -123.5t24.5 -164v-698h-192zM967 -447l-190 358h211l219 -358h-240z
" />
    <glyph glyph-name="Ncaron" unicode="&#x147;" horiz-adv-x="1165" 
d="M156 0zM786 0l-432 1014v-1014h-198v1460h219l438 -1030v1030h197v-1460h-224zM456 1948l125 -129l127 129h205l-256 -324h-147l-260 324h206z" />
    <glyph glyph-name="ncaron" unicode="&#x148;" horiz-adv-x="1102" 
d="M156 0zM764 0v698q0 34 -6 69.5t-25.5 64.5t-57 48t-100.5 19q-46 0 -87 -14.5t-71.5 -40.5t-48.5 -62t-18 -80v-702h-194v1073h194v-59q47 37 108.5 56.5t116.5 19.5q94 0 165 -27t119 -77.5t72.5 -123.5t24.5 -164v-698h-192zM428 1540l125 -129l127 129h205l-256 -324
h-147l-260 324h206z" />
    <glyph glyph-name="napostrophe" unicode="&#x149;" horiz-adv-x="1364" 
d="M141 0zM1030 0v698q0 34 -6 69.5t-25.5 64.5t-57 48t-100.5 19q-46 0 -87 -14.5t-71.5 -40.5t-48.5 -62t-18 -80v-702h-194v1073h194v-59q47 37 108.5 56.5t116.5 19.5q94 0 165 -27t119 -77.5t72.5 -123.5t24.5 -164v-698h-192zM283 1063h-142l176 479h267z" />
    <glyph glyph-name="Eng" unicode="&#x14a;" horiz-adv-x="1165" 
d="M449 -88q9 -46 28.5 -75t45 -45t53 -22t53.5 -6q30 0 62.5 7.5t59.5 28t44.5 58t17.5 97.5v45h-27l-432 1014v-1014h-198v1460h219l438 -1030v1030h197v-1493q0 -95 -25.5 -169t-74.5 -126t-120.5 -79t-162.5 -27q-82 0 -148 25t-114.5 70.5t-78 109t-38.5 141.5h201z
M449 -88h-201h201z" />
    <glyph glyph-name="eng" unicode="&#x14b;" horiz-adv-x="1092" 
d="M956 -131q0 -78 -21 -133.5t-57 -90.5t-85 -51t-105 -16h-78v193h70q34 0 59 18.5t25 69.5v839q0 34 -6 69.5t-25.5 64.5t-57 48t-100.5 19q-46 0 -87 -14.5t-71.5 -40.5t-48.5 -62t-18 -80v-702h-194v1073h194v-49q50 35 107.5 50.5t117.5 15.5q94 0 165 -27t119 -77.5
t72.5 -123.5t24.5 -164v-829z" />
    <glyph glyph-name="Omacron" unicode="&#x14c;" 
d="M135 0zM981 385q0 -33 -8 -76t-27 -87.5t-51 -87.5t-79 -77t-111 -54.5t-148 -20.5q-83 0 -146 21t-110 54.5t-79 77t-51 88.5t-27.5 88t-8.5 76v688q0 32 8 74t26.5 86t50 86t78.5 75t111.5 53.5t149.5 20.5q81 0 144 -20.5t110 -53.5t79 -75.5t52 -86.5t28.5 -86
t8.5 -75v-688zM780 1071q0 67 -24.5 107t-59.5 62t-73 29t-64 7q-28 0 -67 -7t-74.5 -29t-60.5 -62t-25 -107v-684q0 -68 25 -108.5t60.5 -62.5t74.5 -29t67 -7q26 0 64 7t73 29t59.5 62.5t24.5 108.5v684zM230 1624v186h643v-186h-643z" />
    <glyph glyph-name="omacron" unicode="&#x14d;" horiz-adv-x="1085" 
d="M135 0zM950 375q0 -89 -30 -162t-84 -125t-128.5 -80t-164.5 -28q-92 0 -167.5 27.5t-129 79t-82.5 124.5t-29 164v323q0 89 29.5 161.5t83.5 123.5t129 79t166 28t166 -27t128.5 -78t83 -123.5t29.5 -163.5v-323zM754 698q0 34 -9.5 69.5t-33 64.5t-64.5 48t-104 19
q-100 0 -156.5 -52.5t-56.5 -148.5v-323q0 -35 9.5 -70.5t33.5 -64.5t65 -47.5t105 -18.5q99 0 155 53.5t56 147.5v323zM217 1278v186h643v-186h-643z" />
    <glyph glyph-name="Obreve" unicode="&#x14e;" 
d="M135 0zM981 385q0 -33 -8 -76t-27 -87.5t-51 -87.5t-79 -77t-111 -54.5t-148 -20.5q-83 0 -146 21t-110 54.5t-79 77t-51 88.5t-27.5 88t-8.5 76v688q0 32 8 74t26.5 86t50 86t78.5 75t111.5 53.5t149.5 20.5q81 0 144 -20.5t110 -53.5t79 -75.5t52 -86.5t28.5 -86
t8.5 -75v-688zM780 1071q0 67 -24.5 107t-59.5 62t-73 29t-64 7q-28 0 -67 -7t-74.5 -29t-60.5 -62t-25 -107v-684q0 -68 25 -108.5t60.5 -62.5t74.5 -29t67 -7q26 0 64 7t73 29t59.5 62.5t24.5 108.5v684zM905 1921q-10 -88 -40.5 -149.5t-76.5 -100.5t-105.5 -56.5
t-127.5 -17.5q-72 0 -132.5 19t-106 59t-75 101t-38.5 145h172q12 -84 55.5 -126t124.5 -42q156 0 180 168h170z" />
    <glyph glyph-name="obreve" unicode="&#x14f;" horiz-adv-x="1085" 
d="M135 0zM950 375q0 -89 -30 -162t-84 -125t-128.5 -80t-164.5 -28q-92 0 -167.5 27.5t-129 79t-82.5 124.5t-29 164v323q0 89 29.5 161.5t83.5 123.5t129 79t166 28t166 -27t128.5 -78t83 -123.5t29.5 -163.5v-323zM754 698q0 34 -9.5 69.5t-33 64.5t-64.5 48t-104 19
q-100 0 -156.5 -52.5t-56.5 -148.5v-323q0 -35 9.5 -70.5t33.5 -64.5t65 -47.5t105 -18.5q99 0 155 53.5t56 147.5v323zM893 1561q-10 -88 -40.5 -149.5t-76.5 -100.5t-105.5 -56.5t-127.5 -17.5q-72 0 -132.5 19t-106 59t-75 101t-38.5 145h172q12 -84 55.5 -126t124.5 -42
q156 0 180 168h170z" />
    <glyph glyph-name="Ohungarumlaut" unicode="&#x150;" horiz-adv-x="1135" 
d="M135 0zM981 385q0 -33 -8 -76t-27 -87.5t-51 -87.5t-79 -77t-111 -54.5t-148 -20.5q-83 0 -146 21t-110 54.5t-79 77t-51 88.5t-27.5 88t-8.5 76v688q0 32 8 74t26.5 86t50 86t78.5 75t111.5 53.5t149.5 20.5q81 0 144 -20.5t110 -53.5t79 -75.5t52 -86.5t28.5 -86
t8.5 -75v-688zM780 1071q0 67 -24.5 107t-59.5 62t-73 29t-64 7q-28 0 -67 -7t-74.5 -29t-60.5 -62t-25 -107v-684q0 -68 25 -108.5t60.5 -62.5t74.5 -29t67 -7q26 0 64 7t73 29t59.5 62.5t24.5 108.5v684zM738 1599h-211l217 363h256zM437 1599h-211l213 363h254z" />
    <glyph glyph-name="ohungarumlaut" unicode="&#x151;" horiz-adv-x="1098" 
d="M135 0zM950 375q0 -89 -30 -162t-84 -125t-128.5 -80t-164.5 -28q-92 0 -167.5 27.5t-129 79t-82.5 124.5t-29 164v323q0 89 29.5 161.5t83.5 123.5t129 79t166 28t166 -27t128.5 -78t83 -123.5t29.5 -163.5v-323zM754 698q0 34 -9.5 69.5t-33 64.5t-64.5 48t-104 19
q-100 0 -156.5 -52.5t-56.5 -148.5v-323q0 -35 9.5 -70.5t33.5 -64.5t65 -47.5t105 -18.5q99 0 155 53.5t56 147.5v323zM701 1216h-211l217 363h256zM400 1216h-211l213 363h254z" />
    <glyph glyph-name="OE" unicode="&#x152;" horiz-adv-x="1688" 
d="M782 0v35q-45 -23 -101 -38t-124 -15q-82 0 -144.5 21t-109.5 54.5t-79 77t-52 88.5t-28.5 88t-8.5 76v688q0 32 8 74t27 86t51 86t79 75t111 53.5t148 20.5q68 0 123 -14t100 -39v43h811v-198h-612v-394h567v-196h-567v-475h612v-197h-811zM559 180q27 0 64.5 7
t72.5 27.5t59.5 58.5t26.5 100v698q0 67 -24.5 107t-59.5 62t-73 29t-66 7q-27 0 -65 -7t-73.5 -29t-60 -62t-24.5 -107v-684q0 -68 24.5 -108.5t60 -62.5t73.5 -29t65 -7z" />
    <glyph glyph-name="oe" unicode="&#x153;" horiz-adv-x="1681" 
d="M938 360q0 -32 9.5 -65t33 -60t63.5 -44t101 -17q80 0 132.5 46.5t68.5 131.5h196q-10 -86 -42.5 -155t-84 -117t-120 -74t-150.5 -26q-100 0 -177 29.5t-128 88.5q-103 -118 -301 -118q-94 0 -168.5 27.5t-127 79t-80.5 124.5t-28 164v323q0 89 28.5 161.5t81 123.5
t127.5 79t167 28q96 0 172.5 -32t130.5 -89q54 60 130.5 90.5t172.5 30.5q92 0 166.5 -27t126.5 -78t80 -123.5t28 -163.5v-231h-608v-107zM743 711q-2 34 -12.5 67.5t-33.5 60.5t-61.5 43.5t-96.5 16.5q-99 0 -154 -52.5t-55 -148.5v-323q0 -35 8.5 -70.5t31.5 -64.5
t63.5 -47.5t105.5 -18.5q96 0 150 51t54 142v344zM1352 698q0 34 -8.5 69.5t-32 64.5t-63.5 48t-103 19q-97 0 -151 -49.5t-56 -140.5v-52h414v41z" />
    <glyph glyph-name="Racute" unicode="&#x154;" horiz-adv-x="1145" 
d="M156 0zM825 0l-278 596h-193v-596h-198v1460h440q85 0 148.5 -20.5t108.5 -54t74.5 -76t46.5 -86.5t23.5 -86t6.5 -74v-68q0 -40 -10.5 -93.5t-38 -107.5t-75.5 -101.5t-122 -74.5l293 -618h-226zM803 1057q0 67 -22.5 107t-54.5 62t-69 29t-65 7h-238v-469h242
q28 0 64 7t68 28.5t53.5 61.5t21.5 107v60zM586 1600h-184l176 365h229z" />
    <glyph glyph-name="racute" unicode="&#x155;" horiz-adv-x="672" 
d="M156 0zM508 879q-26 0 -53.5 -10.5t-51 -34.5t-38.5 -62.5t-15 -95.5v-676h-194v1073h194v-96q25 49 72.5 72.5t112.5 23.5h81v-194h-108zM354 1217h-184l176 365h229z" />
    <glyph glyph-name="Rcommaaccent" unicode="&#x156;" horiz-adv-x="1145" 
d="M156 0zM825 0l-278 596h-193v-596h-198v1460h440q85 0 148.5 -20.5t108.5 -54t74.5 -76t46.5 -86.5t23.5 -86t6.5 -74v-68q0 -40 -10.5 -93.5t-38 -107.5t-75.5 -101.5t-122 -74.5l293 -618h-226zM803 1057q0 67 -22.5 107t-54.5 62t-69 29t-65 7h-238v-469h242
q28 0 64 7t68 28.5t53.5 61.5t21.5 107v60zM523 -443h-217l168 358h188z" />
    <glyph glyph-name="rcommaaccent" unicode="&#x157;" horiz-adv-x="711" 
d="M28 0zM539 879q-26 0 -53.5 -10.5t-51 -34.5t-38.5 -62.5t-15 -95.5v-676h-194v1073h194v-96q25 49 72.5 72.5t112.5 23.5h81v-194h-108zM245 -443h-217l168 358h188z" />
    <glyph glyph-name="Rcaron" unicode="&#x158;" horiz-adv-x="1145" 
d="M156 0zM825 0l-278 596h-193v-596h-198v1460h440q85 0 148.5 -20.5t108.5 -54t74.5 -76t46.5 -86.5t23.5 -86t6.5 -74v-68q0 -40 -10.5 -93.5t-38 -107.5t-75.5 -101.5t-122 -74.5l293 -618h-226zM803 1057q0 67 -22.5 107t-54.5 62t-69 29t-65 7h-238v-469h242
q28 0 64 7t68 28.5t53.5 61.5t21.5 107v60zM405 1948l125 -129l127 129h205l-256 -324h-147l-260 324h206z" />
    <glyph glyph-name="rcaron" unicode="&#x159;" horiz-adv-x="760" 
d="M51 0zM533 879q-26 0 -53.5 -10.5t-51 -34.5t-38.5 -62.5t-15 -95.5v-676h-194v1073h194v-96q25 49 72.5 72.5t112.5 23.5h81v-194h-108zM257 1540l125 -129l127 129h205l-256 -324h-147l-260 324h206z" />
    <glyph glyph-name="Sacute" unicode="&#x15a;" horiz-adv-x="1073" 
d="M96 0zM977 385q0 -87 -34.5 -161.5t-94.5 -128.5t-142 -84.5t-176 -30.5q-99 0 -179 31t-137 85.5t-87.5 128.5t-30.5 160h199q0 -50 17.5 -88.5t48.5 -65t73.5 -40t93.5 -13.5q58 0 104.5 15.5t79.5 43.5t50.5 67t17.5 85q0 71 -35.5 119t-91.5 80q-22 13 -52 29.5
t-70 37.5t-92.5 47.5t-119.5 59.5q-44 21 -80 55t-62.5 77t-41 93.5t-14.5 106.5q0 83 30.5 152.5t85 120t130 78.5t165.5 28q94 0 172.5 -29.5t135 -82t87.5 -125.5t31 -159h-200q0 48 -17 85.5t-47 63t-71.5 39t-90.5 13.5q-44 0 -83.5 -12.5t-68.5 -36.5t-46 -59t-17 -80
q0 -53 29.5 -94.5t83.5 -69.5q88 -45 167 -83.5t151 -78.5q112 -60 170.5 -157t58.5 -222zM594 1600h-184l176 365h229z" />
    <glyph glyph-name="sacute" unicode="&#x15b;" horiz-adv-x="1001" 
d="M96 0zM905 328q0 -95 -33 -160.5t-88.5 -106t-129 -59t-154.5 -18.5q-86 0 -157.5 25t-125 72.5t-85 115.5t-36.5 155h195q9 -88 64 -131t145 -43q38 0 76 6t68.5 22.5t49.5 45.5t19 76q0 38 -29 65t-76 41q-66 22 -129.5 36.5t-128.5 31.5q-51 13 -94 36.5t-75 57
t-50 76.5t-18 96q0 87 31.5 147.5t84 98.5t121.5 55.5t144 17.5q81 0 150.5 -22.5t121.5 -66t84.5 -108t40.5 -147.5h-199q-12 75 -62 114.5t-141 39.5q-34 0 -67 -5.5t-59 -20t-42 -39.5t-16 -64q0 -31 25 -55.5t71 -36.5q30 -9 64.5 -17.5t70.5 -17.5t72 -18.5t68 -20.5
q47 -15 88.5 -39.5t73 -58.5t49.5 -78t18 -98zM547 1217h-184l176 365h229z" />
    <glyph glyph-name="Scircumflex" unicode="&#x15c;" horiz-adv-x="1073" 
d="M96 0zM977 385q0 -87 -34.5 -161.5t-94.5 -128.5t-142 -84.5t-176 -30.5q-99 0 -179 31t-137 85.5t-87.5 128.5t-30.5 160h199q0 -50 17.5 -88.5t48.5 -65t73.5 -40t93.5 -13.5q58 0 104.5 15.5t79.5 43.5t50.5 67t17.5 85q0 71 -35.5 119t-91.5 80q-22 13 -52 29.5
t-70 37.5t-92.5 47.5t-119.5 59.5q-44 21 -80 55t-62.5 77t-41 93.5t-14.5 106.5q0 83 30.5 152.5t85 120t130 78.5t165.5 28q94 0 172.5 -29.5t135 -82t87.5 -125.5t31 -159h-200q0 48 -17 85.5t-47 63t-71.5 39t-90.5 13.5q-44 0 -83.5 -12.5t-68.5 -36.5t-46 -59t-17 -80
q0 -53 29.5 -94.5t83.5 -69.5q88 -45 167 -83.5t151 -78.5q112 -60 170.5 -157t58.5 -222zM677 1624l-127 132l-127 -132h-206l260 324h147l256 -324h-203z" />
    <glyph glyph-name="scircumflex" unicode="&#x15d;" horiz-adv-x="1001" 
d="M96 0zM905 328q0 -95 -33 -160.5t-88.5 -106t-129 -59t-154.5 -18.5q-86 0 -157.5 25t-125 72.5t-85 115.5t-36.5 155h195q9 -88 64 -131t145 -43q38 0 76 6t68.5 22.5t49.5 45.5t19 76q0 38 -29 65t-76 41q-66 22 -129.5 36.5t-128.5 31.5q-51 13 -94 36.5t-75 57
t-50 76.5t-18 96q0 87 31.5 147.5t84 98.5t121.5 55.5t144 17.5q81 0 150.5 -22.5t121.5 -66t84.5 -108t40.5 -147.5h-199q-12 75 -62 114.5t-141 39.5q-34 0 -67 -5.5t-59 -20t-42 -39.5t-16 -64q0 -31 25 -55.5t71 -36.5q30 -9 64.5 -17.5t70.5 -17.5t72 -18.5t68 -20.5
q47 -15 88.5 -39.5t73 -58.5t49.5 -78t18 -98zM639 1216l-127 132l-127 -132h-206l260 324h147l256 -324h-203z" />
    <glyph glyph-name="Scedilla" unicode="&#x15e;" horiz-adv-x="1073" 
d="M96 0zM977 385q0 -87 -34.5 -161.5t-94.5 -128.5t-142 -84.5t-176 -30.5q-99 0 -179 31t-137 85.5t-87.5 128.5t-30.5 160h199q0 -50 17.5 -88.5t48.5 -65t73.5 -40t93.5 -13.5q58 0 104.5 15.5t79.5 43.5t50.5 67t17.5 85q0 71 -35.5 119t-91.5 80q-22 13 -52 29.5
t-70 37.5t-92.5 47.5t-119.5 59.5q-44 21 -80 55t-62.5 77t-41 93.5t-14.5 106.5q0 83 30.5 152.5t85 120t130 78.5t165.5 28q94 0 172.5 -29.5t135 -82t87.5 -125.5t31 -159h-200q0 48 -17 85.5t-47 63t-71.5 39t-90.5 13.5q-44 0 -83.5 -12.5t-68.5 -36.5t-46 -59t-17 -80
q0 -53 29.5 -94.5t83.5 -69.5q88 -45 167 -83.5t151 -78.5q112 -60 170.5 -157t58.5 -222zM484 -445h-217l168 358h188z" />
    <glyph glyph-name="scedilla" unicode="&#x15f;" horiz-adv-x="1001" 
d="M96 0zM905 328q0 -95 -33 -160.5t-88.5 -106t-129 -59t-154.5 -18.5q-86 0 -157.5 25t-125 72.5t-85 115.5t-36.5 155h195q9 -88 64 -131t145 -43q38 0 76 6t68.5 22.5t49.5 45.5t19 76q0 38 -29 65t-76 41q-66 22 -129.5 36.5t-128.5 31.5q-51 13 -94 36.5t-75 57
t-50 76.5t-18 96q0 87 31.5 147.5t84 98.5t121.5 55.5t144 17.5q81 0 150.5 -22.5t121.5 -66t84.5 -108t40.5 -147.5h-199q-12 75 -62 114.5t-141 39.5q-34 0 -67 -5.5t-59 -20t-42 -39.5t-16 -64q0 -31 25 -55.5t71 -36.5q30 -9 64.5 -17.5t70.5 -17.5t72 -18.5t68 -20.5
q47 -15 88.5 -39.5t73 -58.5t49.5 -78t18 -98zM447 -443h-217l168 358h188z" />
    <glyph glyph-name="Scaron" unicode="&#x160;" horiz-adv-x="1073" 
d="M96 0zM977 385q0 -87 -34.5 -161.5t-94.5 -128.5t-142 -84.5t-176 -30.5q-99 0 -179 31t-137 85.5t-87.5 128.5t-30.5 160h199q0 -50 17.5 -88.5t48.5 -65t73.5 -40t93.5 -13.5q58 0 104.5 15.5t79.5 43.5t50.5 67t17.5 85q0 71 -35.5 119t-91.5 80q-22 13 -52 29.5
t-70 37.5t-92.5 47.5t-119.5 59.5q-44 21 -80 55t-62.5 77t-41 93.5t-14.5 106.5q0 83 30.5 152.5t85 120t130 78.5t165.5 28q94 0 172.5 -29.5t135 -82t87.5 -125.5t31 -159h-200q0 48 -17 85.5t-47 63t-71.5 39t-90.5 13.5q-44 0 -83.5 -12.5t-68.5 -36.5t-46 -59t-17 -80
q0 -53 29.5 -94.5t83.5 -69.5q88 -45 167 -83.5t151 -78.5q112 -60 170.5 -157t58.5 -222zM407 1948l125 -129l127 129h205l-256 -324h-147l-260 324h206z" />
    <glyph glyph-name="scaron" unicode="&#x161;" horiz-adv-x="1001" 
d="M96 0zM905 328q0 -95 -33 -160.5t-88.5 -106t-129 -59t-154.5 -18.5q-86 0 -157.5 25t-125 72.5t-85 115.5t-36.5 155h195q9 -88 64 -131t145 -43q38 0 76 6t68.5 22.5t49.5 45.5t19 76q0 38 -29 65t-76 41q-66 22 -129.5 36.5t-128.5 31.5q-51 13 -94 36.5t-75 57
t-50 76.5t-18 96q0 87 31.5 147.5t84 98.5t121.5 55.5t144 17.5q81 0 150.5 -22.5t121.5 -66t84.5 -108t40.5 -147.5h-199q-12 75 -62 114.5t-141 39.5q-34 0 -67 -5.5t-59 -20t-42 -39.5t-16 -64q0 -31 25 -55.5t71 -36.5q30 -9 64.5 -17.5t70.5 -17.5t72 -18.5t68 -20.5
q47 -15 88.5 -39.5t73 -58.5t49.5 -78t18 -98zM370 1540l125 -129l127 129h205l-256 -324h-147l-260 324h206z" />
    <glyph glyph-name="Tcommaaccent" unicode="&#x162;" horiz-adv-x="979" 
d="M45 0zM588 1260v-1260h-199v1260h-344v200h889v-200h-346zM443 -443h-217l168 358h188z" />
    <glyph glyph-name="tcommaaccent" unicode="&#x163;" horiz-adv-x="737" 
d="M35 0zM35 1073h194v387h195v-387h223v-194h-223v-598q0 -51 25 -69.5t59 -18.5h143v-193h-151q-57 0 -106.5 16t-86 51t-57.5 89.5t-21 132.5v590h-194v194zM453 -443h-217l168 358h188z" />
    <glyph glyph-name="Tcaron" unicode="&#x164;" horiz-adv-x="979" 
d="M45 0zM588 1260v-1260h-199v1260h-344v200h889v-200h-346zM361 1948l125 -129l127 129h205l-256 -324h-147l-260 324h206z" />
    <glyph glyph-name="tcaron" unicode="&#x165;" horiz-adv-x="807" 
d="M35 0zM35 1073h194v387h195v-387h223v-194h-223v-598q0 -51 25 -69.5t59 -18.5h143v-193h-151q-57 0 -106.5 16t-86 51t-57.5 89.5t-21 132.5v590h-194v194zM852 1097h-184l176 365h229z" />
    <glyph glyph-name="Tbar" unicode="&#x166;" horiz-adv-x="979" 
d="M588 1260v-574h227v-190h-227v-496h-199v496h-219v190h219v574h-344v200h889v-200h-346z" />
    <glyph glyph-name="tbar" unicode="&#x167;" horiz-adv-x="684" 
d="M-4 1073h194v346h195v-346h225v-194h-225v-211h233v-185h-233v-202q0 -26 7 -42.5t18.5 -27t27 -14.5t33.5 -4h141v-193h-151q-56 0 -105.5 16t-86.5 51t-58 89.5t-21 132.5v194h-196v185h196v211h-194v194z" />
    <glyph glyph-name="Utilde" unicode="&#x168;" 
d="M135 0zM981 385q0 -35 -7.5 -78.5t-26 -88.5t-50 -87.5t-78 -75.5t-111 -53t-149.5 -20t-149.5 20t-111.5 53.5t-78.5 76t-50 87.5t-26.5 89t-8 79v1073h199v-1073q0 -68 25 -108.5t60.5 -62.5t74 -29t65.5 -7t65 7t73.5 29t60 62.5t24.5 108.5v1073h199v-1075zM915 1731
q-45 -43 -79.5 -69t-61.5 -39.5t-49 -18t-41 -4.5q-33 0 -62 13t-57.5 29t-57.5 29t-63 13q-8 0 -16 -2t-20 -9t-29 -21.5t-43 -39.5l-125 121q44 44 78.5 70.5t62 40.5t49.5 18t41 4q33 0 62 -13t57.5 -29t57.5 -29t63 -13q7 0 15.5 3t21.5 11t30 22.5t41 37.5z" />
    <glyph glyph-name="utilde" unicode="&#x169;" horiz-adv-x="1108" 
d="M146 0zM757 0v70q-15 -16 -37.5 -32t-50 -28.5t-59 -20t-62.5 -7.5q-92 0 -166.5 27.5t-127 79t-80.5 124t-28 162.5v700h195v-700q0 -35 8.5 -70t31.5 -64t63 -47t104 -18q46 0 84.5 13t66 37.5t43 59.5t15.5 79v710h196v-1075h-196zM880 1391q-45 -43 -79.5 -69
t-61.5 -39.5t-49 -18t-41 -4.5q-33 0 -62 13t-57.5 29t-57.5 29t-63 13q-8 0 -16 -2t-20 -9t-29 -21.5t-43 -39.5l-125 121q44 44 78.5 70.5t62 40.5t49.5 18t41 4q33 0 62 -13t57.5 -29t57.5 -29t63 -13q7 0 15.5 3t21.5 11t30 22.5t41 37.5z" />
    <glyph glyph-name="Umacron" unicode="&#x16a;" 
d="M135 0zM981 385q0 -35 -7.5 -78.5t-26 -88.5t-50 -87.5t-78 -75.5t-111 -53t-149.5 -20t-149.5 20t-111.5 53.5t-78.5 76t-50 87.5t-26.5 89t-8 79v1073h199v-1073q0 -68 25 -108.5t60.5 -62.5t74 -29t65.5 -7t65 7t73.5 29t60 62.5t24.5 108.5v1073h199v-1075zM244 1624
v186h643v-186h-643z" />
    <glyph glyph-name="umacron" unicode="&#x16b;" horiz-adv-x="1108" 
d="M146 0zM757 0v70q-15 -16 -37.5 -32t-50 -28.5t-59 -20t-62.5 -7.5q-92 0 -166.5 27.5t-127 79t-80.5 124t-28 162.5v700h195v-700q0 -35 8.5 -70t31.5 -64t63 -47t104 -18q46 0 84.5 13t66 37.5t43 59.5t15.5 79v710h196v-1075h-196zM215 1278v186h643v-186h-643z" />
    <glyph glyph-name="Ubreve" unicode="&#x16c;" 
d="M135 0zM981 385q0 -35 -7.5 -78.5t-26 -88.5t-50 -87.5t-78 -75.5t-111 -53t-149.5 -20t-149.5 20t-111.5 53.5t-78.5 76t-50 87.5t-26.5 89t-8 79v1073h199v-1073q0 -68 25 -108.5t60.5 -62.5t74 -29t65.5 -7t65 7t73.5 29t60 62.5t24.5 108.5v1073h199v-1075zM919 1921
q-10 -88 -40.5 -149.5t-76.5 -100.5t-105.5 -56.5t-127.5 -17.5q-72 0 -132.5 19t-106 59t-75 101t-38.5 145h172q12 -84 55.5 -126t124.5 -42q156 0 180 168h170z" />
    <glyph glyph-name="ubreve" unicode="&#x16d;" horiz-adv-x="1108" 
d="M146 0zM757 0v70q-15 -16 -37.5 -32t-50 -28.5t-59 -20t-62.5 -7.5q-92 0 -166.5 27.5t-127 79t-80.5 124t-28 162.5v700h195v-700q0 -35 8.5 -70t31.5 -64t63 -47t104 -18q46 0 84.5 13t66 37.5t43 59.5t15.5 79v710h196v-1075h-196zM893 1559q-10 -88 -40.5 -149.5
t-76.5 -100.5t-105.5 -56.5t-127.5 -17.5q-72 0 -132.5 19t-106 59t-75 101t-38.5 145h172q12 -84 55.5 -126t124.5 -42q156 0 180 168h170z" />
    <glyph glyph-name="Uring" unicode="&#x16e;" 
d="M135 0zM981 385q0 -35 -7.5 -78.5t-26 -88.5t-50 -87.5t-78 -75.5t-111 -53t-149.5 -20t-149.5 20t-111.5 53.5t-78.5 76t-50 87.5t-26.5 89t-8 79v1073h199v-1073q0 -68 25 -108.5t60.5 -62.5t74 -29t65.5 -7t65 7t73.5 29t60 62.5t24.5 108.5v1073h199v-1075zM807 1784
q0 -46 -18 -88t-49.5 -74.5t-74.5 -51.5t-92 -19q-48 0 -90 19t-73.5 51.5t-49.5 74.5t-18 88q0 48 18 90.5t49.5 74t73.5 50t90 18.5q49 0 92 -18t74.5 -49.5t49.5 -74t18 -91.5zM676 1784q0 20 -8.5 38t-22.5 32t-32.5 22t-39.5 8t-38.5 -8t-31 -22t-21 -32t-7.5 -38
t7.5 -37.5t21 -31t31 -21.5t38.5 -8t39.5 8t32.5 21.5t22.5 31t8.5 37.5z" />
    <glyph glyph-name="uring" unicode="&#x16f;" horiz-adv-x="1108" 
d="M146 0zM757 0v70q-15 -16 -37.5 -32t-50 -28.5t-59 -20t-62.5 -7.5q-92 0 -166.5 27.5t-127 79t-80.5 124t-28 162.5v700h195v-700q0 -35 8.5 -70t31.5 -64t63 -47t104 -18q46 0 84.5 13t66 37.5t43 59.5t15.5 79v710h196v-1075h-196zM791 1434q0 -46 -18 -88
t-49.5 -74.5t-74.5 -51.5t-92 -19q-48 0 -90 19t-73.5 51.5t-49.5 74.5t-18 88q0 48 18 90.5t49.5 74t73.5 50t90 18.5q49 0 92 -18t74.5 -49.5t49.5 -74t18 -91.5zM660 1434q0 20 -8.5 38t-22.5 32t-32.5 22t-39.5 8t-38.5 -8t-31 -22t-21 -32t-7.5 -38t7.5 -37.5t21 -31
t31 -21.5t38.5 -8t39.5 8t32.5 21.5t22.5 31t8.5 37.5z" />
    <glyph glyph-name="Uhungarumlaut" unicode="&#x170;" 
d="M135 0zM981 385q0 -35 -7.5 -78.5t-26 -88.5t-50 -87.5t-78 -75.5t-111 -53t-149.5 -20t-149.5 20t-111.5 53.5t-78.5 76t-50 87.5t-26.5 89t-8 79v1073h199v-1073q0 -68 25 -108.5t60.5 -62.5t74 -29t65.5 -7t65 7t73.5 29t60 62.5t24.5 108.5v1073h199v-1075zM709 1599
h-211l217 363h256zM408 1599h-211l213 363h254z" />
    <glyph glyph-name="uhungarumlaut" unicode="&#x171;" horiz-adv-x="1108" 
d="M146 0zM757 0v70q-15 -16 -37.5 -32t-50 -28.5t-59 -20t-62.5 -7.5q-92 0 -166.5 27.5t-127 79t-80.5 124t-28 162.5v700h195v-700q0 -35 8.5 -70t31.5 -64t63 -47t104 -18q46 0 84.5 13t66 37.5t43 59.5t15.5 79v710h196v-1075h-196zM680 1216h-211l217 363h256z
M379 1216h-211l213 363h254z" />
    <glyph glyph-name="Uogonek" unicode="&#x172;" horiz-adv-x="1137" 
d="M135 0zM981 385q0 -35 -7.5 -78.5t-26 -88.5t-50 -87.5t-78 -75.5t-111 -53t-149.5 -20t-149.5 20t-111.5 53.5t-78.5 76t-50 87.5t-26.5 89t-8 79v1073h199v-1073q0 -68 25 -108.5t60.5 -62.5t74 -29t65.5 -7t65 7t73.5 29t60 62.5t24.5 108.5v1073h199v-1075zM631 -445
l-190 358h211l219 -358h-240z" />
    <glyph glyph-name="uogonek" unicode="&#x173;" horiz-adv-x="1108" 
d="M146 0zM757 0v70q-15 -16 -37.5 -32t-50 -28.5t-59 -20t-62.5 -7.5q-92 0 -166.5 27.5t-127 79t-80.5 124t-28 162.5v700h195v-700q0 -35 8.5 -70t31.5 -64t63 -47t104 -18q46 0 84.5 13t66 37.5t43 59.5t15.5 79v710h196v-1075h-196zM946 -445l-190 358h211l219 -358
h-240z" />
    <glyph glyph-name="Wcircumflex" unicode="&#x174;" horiz-adv-x="1620" 
d="M45 0zM1270 0h-223l-236 1006l-240 -1006h-223l-303 1460h205l213 -1083l254 1081h186l250 -1077l215 1079h207zM940 1624l-127 132l-127 -132h-206l260 324h147l256 -324h-203z" />
    <glyph glyph-name="wcircumflex" unicode="&#x175;" horiz-adv-x="1413" 
d="M76 0zM1085 0h-213l-165 678l-166 -678h-211l-254 1075h203l161 -717l176 717h181l176 -717l162 717h202zM813 1216l-127 132l-127 -132h-206l260 324h147l256 -324h-203z" />
    <glyph glyph-name="Ycircumflex" unicode="&#x176;" horiz-adv-x="1057" 
d="M45 0zM629 528v-528h-201v532l-383 928h217l266 -669l269 669h215zM657 1624l-127 132l-127 -132h-206l260 324h147l256 -324h-203z" />
    <glyph glyph-name="ycircumflex" unicode="&#x177;" horiz-adv-x="930" 
d="M35 0zM336 0l-301 1075h205l229 -839l221 839h205l-338 -1274q-23 -87 -55 -139.5t-74 -80t-95 -36t-118 -8.5h-92v193h117q23 0 42 4t34 14t26 27t18 43l48 182h-72zM601 1216l-127 132l-127 -132h-206l260 324h147l256 -324h-203z" />
    <glyph glyph-name="Ydieresis" unicode="&#x178;" horiz-adv-x="1057" 
d="M45 0zM629 528v-528h-201v532l-383 928h217l266 -669l269 669h215zM616 1625v260h227v-260h-227zM215 1625v260h227v-260h-227z" />
    <glyph glyph-name="Zacute" unicode="&#x179;" horiz-adv-x="922" 
d="M44 0zM44 0v170l576 1092h-547v198h776v-166l-573 -1097h604v-197h-836zM475 1600h-184l176 365h229z" />
    <glyph glyph-name="zacute" unicode="&#x17a;" horiz-adv-x="915" 
d="M76 0zM76 0v164l483 715h-467v194h707v-164l-486 -716h527v-193h-764zM490 1217h-184l176 365h229z" />
    <glyph glyph-name="Zdotaccent" unicode="&#x17b;" horiz-adv-x="922" 
d="M44 0zM44 0v170l576 1092h-547v198h776v-166l-573 -1097h604v-197h-836zM330 1624v219h229v-219h-229z" />
    <glyph glyph-name="zdotaccent" unicode="&#x17c;" horiz-adv-x="915" 
d="M76 0zM76 0v164l483 715h-467v194h707v-164l-486 -716h527v-193h-764zM361 1293v219h229v-219h-229z" />
    <glyph glyph-name="Zcaron" unicode="&#x17d;" horiz-adv-x="922" 
d="M44 0zM44 0v170l576 1092h-547v198h776v-166l-573 -1097h604v-197h-836zM324 1948l125 -129l127 129h205l-256 -324h-147l-260 324h206z" />
    <glyph glyph-name="zcaron" unicode="&#x17e;" horiz-adv-x="915" 
d="M76 0zM76 0v164l483 715h-467v194h707v-164l-486 -716h527v-193h-764zM324 1540l125 -129l127 129h205l-256 -324h-147l-260 324h206z" />
    <glyph glyph-name="longs" unicode="&#x17f;" horiz-adv-x="684" 
d="M406 0h-195v879h-178v194h178v33q0 72 18 130t55 99.5t93.5 63.5t132.5 22h117v-192h-135q-14 0 -29 -4.5t-28 -16t-21 -30.5t-8 -48v-1130z" />
    <glyph glyph-name="florin" unicode="&#x192;" horiz-adv-x="678" 
d="M403 -131q0 -78 -21 -133.5t-57 -90.5t-85.5 -51t-106.5 -16h-78v193h70q34 0 59 18.5t25 69.5v1020h-176v194h176v33q0 72 18 130t55 99.5t93.5 63.5t132.5 22h117v-192h-133q-15 0 -30.5 -4.5t-28.5 -16t-21.5 -30.5t-8.5 -48v-57h242v-194h-242v-1010z" />
    <glyph glyph-name="Scommaaccent" unicode="&#x218;" horiz-adv-x="1073" 
d="M96 0zM977 385q0 -87 -34.5 -161.5t-94.5 -128.5t-142 -84.5t-176 -30.5q-99 0 -179 31t-137 85.5t-87.5 128.5t-30.5 160h199q0 -50 17.5 -88.5t48.5 -65t73.5 -40t93.5 -13.5q58 0 104.5 15.5t79.5 43.5t50.5 67t17.5 85q0 71 -35.5 119t-91.5 80q-22 13 -52 29.5
t-70 37.5t-92.5 47.5t-119.5 59.5q-44 21 -80 55t-62.5 77t-41 93.5t-14.5 106.5q0 83 30.5 152.5t85 120t130 78.5t165.5 28q94 0 172.5 -29.5t135 -82t87.5 -125.5t31 -159h-200q0 48 -17 85.5t-47 63t-71.5 39t-90.5 13.5q-44 0 -83.5 -12.5t-68.5 -36.5t-46 -59t-17 -80
q0 -53 29.5 -94.5t83.5 -69.5q88 -45 167 -83.5t151 -78.5q112 -60 170.5 -157t58.5 -222zM516 -449h-217l168 358h188z" />
    <glyph glyph-name="scommaaccent" unicode="&#x219;" horiz-adv-x="1001" 
d="M96 0zM905 328q0 -95 -33 -160.5t-88.5 -106t-129 -59t-154.5 -18.5q-86 0 -157.5 25t-125 72.5t-85 115.5t-36.5 155h195q9 -88 64 -131t145 -43q38 0 76 6t68.5 22.5t49.5 45.5t19 76q0 38 -29 65t-76 41q-66 22 -129.5 36.5t-128.5 31.5q-51 13 -94 36.5t-75 57
t-50 76.5t-18 96q0 87 31.5 147.5t84 98.5t121.5 55.5t144 17.5q81 0 150.5 -22.5t121.5 -66t84.5 -108t40.5 -147.5h-199q-12 75 -62 114.5t-141 39.5q-34 0 -67 -5.5t-59 -20t-42 -39.5t-16 -64q0 -31 25 -55.5t71 -36.5q30 -9 64.5 -17.5t70.5 -17.5t72 -18.5t68 -20.5
q47 -15 88.5 -39.5t73 -58.5t49.5 -78t18 -98zM465 -447h-217l168 358h188z" />
    <glyph glyph-name="circumflex" unicode="&#x2c6;" horiz-adv-x="975" 
d="M616 1128l-127 132l-127 -132h-206l260 324h147l256 -324h-203z" />
    <glyph glyph-name="caron" unicode="&#x2c7;" horiz-adv-x="975" 
d="M362 1454l125 -129l127 129h205l-256 -324h-147l-260 324h206z" />
    <glyph glyph-name="breve" unicode="&#x2d8;" horiz-adv-x="1014" 
d="M858 1434q-10 -88 -40.5 -149.5t-76.5 -100.5t-105.5 -56.5t-127.5 -17.5q-72 0 -132.5 19t-106 59t-75 101t-38.5 145h172q12 -84 55.5 -126t124.5 -42q156 0 180 168h170z" />
    <glyph glyph-name="dotaccent" unicode="&#x2d9;" horiz-adv-x="541" 
d="M156 1182v219h229v-219h-229z" />
    <glyph glyph-name="ring" unicode="&#x2da;" horiz-adv-x="778" 
d="M623 1323q0 -46 -18 -88t-49.5 -74.5t-74.5 -51.5t-92 -19q-48 0 -90 19t-73.5 51.5t-49.5 74.5t-18 88q0 48 18 90.5t49.5 74t73.5 50t90 18.5q49 0 92 -18t74.5 -49.5t49.5 -74t18 -91.5zM492 1323q0 20 -8.5 38t-22.5 32t-32.5 22t-39.5 8t-38.5 -8t-31 -22t-21 -32
t-7.5 -38t7.5 -37.5t21 -31t31 -21.5t38.5 -8t39.5 8t32.5 21.5t22.5 31t8.5 37.5z" />
    <glyph glyph-name="ogonek" unicode="&#x2db;" horiz-adv-x="700" 
d="M346 -346l-190 358h211l219 -358h-240z" />
    <glyph glyph-name="tilde" unicode="&#x2dc;" horiz-adv-x="1016" 
d="M860 1264q-45 -43 -79.5 -69t-61.5 -39.5t-49 -18t-41 -4.5q-33 0 -62 13t-57.5 29t-57.5 29t-63 13q-8 0 -16 -2t-20 -9t-29 -21.5t-43 -39.5l-125 121q44 44 78.5 70.5t62 40.5t49.5 18t41 4q33 0 62 -13t57.5 -29t57.5 -29t63 -13q7 0 15.5 3t21.5 11t30 22.5t41 37.5
z" />
    <glyph glyph-name="hungarumlaut" unicode="&#x2dd;" horiz-adv-x="1085" 
d="M668 1110h-211l217 363h256zM367 1110h-211l213 363h254z" />
    <glyph glyph-name="pi" unicode="&#x3c0;" horiz-adv-x="1294" 
d="M778 0v903h-258v-903h-192v903h-181v182h1000v-182h-176v-903h-193z" />
    <glyph glyph-name="endash" unicode="&#x2013;" horiz-adv-x="1186" 
d="M156 483v185h874v-185h-874z" />
    <glyph glyph-name="emdash" unicode="&#x2014;" horiz-adv-x="1665" 
d="M156 483v185h1353v-185h-1353z" />
    <glyph glyph-name="quoteleft" unicode="&#x2018;" horiz-adv-x="530" 
d="M317 1063h-264l299 479h144z" />
    <glyph glyph-name="quoteright" unicode="&#x2019;" horiz-adv-x="530" 
d="M195 1063h-142l176 479h267z" />
    <glyph glyph-name="quotesinglbase" unicode="&#x201a;" horiz-adv-x="518" 
d="M205 -236h-152l180 490h279z" />
    <glyph glyph-name="quotedblleft" unicode="&#x201c;" horiz-adv-x="899" 
d="M664 1124h-281l309 490h154zM332 1124h-279l307 490h152z" />
    <glyph glyph-name="quotedblright" unicode="&#x201d;" horiz-adv-x="897" 
d="M539 1124h-156l182 490h279zM205 1124h-152l180 490h279z" />
    <glyph glyph-name="quotedblbase" unicode="&#x201e;" horiz-adv-x="897" 
d="M844 254l-305 -490h-156l182 490h279zM205 -236h-152l180 490h279z" />
    <glyph glyph-name="dagger" unicode="&#x2020;" horiz-adv-x="922" 
d="M369 -109v1018h-222v183h222v438h180v-438h225v-183h-225v-1018h-180z" />
    <glyph glyph-name="daggerdbl" unicode="&#x2021;" horiz-adv-x="922" 
d="M369 -109v439h-222v182h222v399h-222v183h222v436h180v-436h225v-183h-225v-399h225v-182h-225v-439h-180z" />
    <glyph glyph-name="bullet" unicode="&#x2022;" horiz-adv-x="788" 
d="M633 705q0 -50 -18.5 -93t-50.5 -75.5t-75.5 -51t-93.5 -18.5t-93.5 18.5t-76 51t-51 75.5t-18.5 93t18.5 94t51 76.5t76 51.5t93.5 19t93.5 -19t75.5 -51.5t50.5 -76.5t18.5 -94z" />
    <glyph glyph-name="ellipsis" unicode="&#x2026;" horiz-adv-x="1350" 
d="M969 0v254h233v-254h-233zM559 0v254h232v-254h-232zM147 0v254h236v-254h-236z" />
    <glyph glyph-name="perthousand" unicode="&#x2030;" horiz-adv-x="2302" 
d="M696 926q0 -61 -19 -109.5t-53.5 -83t-84.5 -53t-111 -18.5q-62 0 -111 18.5t-83.5 53t-53 83t-18.5 109.5v188q0 59 19 107t53.5 82t83.5 52.5t110 18.5q62 0 112 -18.5t84.5 -52.5t53 -82t18.5 -107v-188zM512 1114q0 13 -3.5 26.5t-12.5 24.5t-25.5 18t-42.5 7
q-38 0 -61 -20.5t-23 -55.5v-188q0 -14 4 -28.5t13.5 -26.5t25.5 -19.5t41 -7.5q38 0 61 21.5t23 60.5v188zM1518 246q0 -61 -19 -110t-54 -83.5t-85 -53.5t-111 -19q-62 0 -111 19t-83.5 53.5t-53 83.5t-18.5 110v188q0 58 19 106t53.5 82.5t83.5 53t110 18.5t111 -18.5
t85 -53t54 -82.5t19 -106v-188zM1331 434q0 12 -3 25.5t-12 24t-25 17.5t-42 7q-37 0 -59.5 -19.5t-22.5 -54.5v-188q0 -14 3.5 -28.5t13 -26.5t25.5 -19.5t40 -7.5q38 0 60 22t22 60v188zM2146 246q0 -61 -18.5 -110t-53 -83.5t-84 -53.5t-110.5 -19q-62 0 -112 19
t-84.5 53.5t-53 83.5t-18.5 110v188q0 58 19 106t53.5 82.5t84 53t111.5 18.5t111.5 -18.5t84 -53t52.5 -82.5t18 -106v-188zM1964 434q0 12 -3.5 25.5t-13 24t-26 17.5t-41.5 7q-38 0 -61 -19.5t-23 -54.5v-188q0 -14 4 -28.5t13.5 -26.5t26 -19.5t40.5 -7.5q38 0 61 22
t23 60v188zM680 -102h-201l537 1632h196z" />
    <glyph glyph-name="guilsinglleft" unicode="&#x2039;" horiz-adv-x="633" 
d="M53 539l445 446v-256l-189 -190l189 -189v-254z" />
    <glyph glyph-name="guilsinglright" unicode="&#x203a;" horiz-adv-x="631" 
d="M135 96v254l191 189l-191 190v256l443 -446z" />
    <glyph glyph-name="fraction" unicode="&#x2044;" horiz-adv-x="1184" 
d="M365 0h-209l665 1421h207z" />
    <glyph glyph-name="Euro" unicode="&#x20ac;" horiz-adv-x="1126" 
d="M651 1470q79 0 139 -21t104 -55.5t73 -79.5t46.5 -92t25.5 -93.5t10 -84.5h-195q-3 76 -25 122t-52.5 71t-64.5 33t-61 8t-63 -7t-68 -29t-54 -63t-22 -108v-100h373v-187h-373v-98h373v-186h-373v-113q0 -68 22 -109.5t54 -64t68 -30t63 -7.5q26 0 60 8.5t65 33.5
t53.5 70t26.5 118h195q-2 -42 -11 -89.5t-27.5 -95t-48.5 -90.5t-75 -76.5t-105.5 -53t-140.5 -19.5q-83 0 -144.5 20.5t-105.5 54.5t-72 77t-44.5 87.5t-22.5 87.5t-6 76v115h-162v186h162v98h-162v187h162v104q0 33 6.5 75t23 86t45.5 86t73.5 75t107.5 53t147 20z" />
    <glyph glyph-name="trademark" unicode="&#x2122;" horiz-adv-x="1468" 
d="M1139 618v426l-49 -237h-129l-50 237v-426h-174v801h213l76 -268l70 268h217v-801h-174zM512 1243v-625h-176v625h-180v176h536v-176h-180z" />
    <glyph glyph-name="Omega" unicode="&#x2126;" horiz-adv-x="1100" 
d="M582 164q37 5 73 18.5t64.5 38.5t46.5 64t18 96v694q0 47 -12 81.5t-31.5 58.5t-44.5 38.5t-51 22.5t-50.5 11t-43.5 3q-29 0 -70 -7t-78.5 -29.5t-63.5 -65t-26 -113.5v-694q0 -58 18.5 -97t47.5 -64t65.5 -38t71.5 -18v-164h-463v168h137q-34 56 -47.5 113t-13.5 100
v698q0 31 8 72.5t27 85t50.5 86t78.5 76t111 54t147 20.5q82 0 145 -20.5t109.5 -53.5t77.5 -75.5t50.5 -86.5t27.5 -86t8 -74v-698q0 -43 -15 -99t-47 -112h140v-168h-465v164z" />
    <glyph glyph-name="partialdiff" unicode="&#x2202;" horiz-adv-x="1092" 
d="M764 526q0 67 -24 107.5t-57.5 62t-70.5 28.5t-63 7q-27 0 -65 -7t-73.5 -28.5t-60 -62t-24.5 -107.5v-151q0 -65 24.5 -105t60 -62t73.5 -29t65 -7q17 0 40 3t46.5 11t46.5 22t41.5 37t29.5 54.5t11 75.5v151zM956 365q0 -32 -8 -72.5t-26.5 -83t-49 -83.5t-75.5 -73
t-106.5 -51.5t-141.5 -19.5q-82 0 -144.5 20t-108.5 52.5t-77 74t-49.5 84.5t-26.5 84t-8 72v159q0 32 7.5 73.5t26 85.5t49 85.5t75.5 74.5t106.5 53t141.5 20q62 0 121.5 -21t101.5 -53v225q0 66 -25.5 106t-62.5 61.5t-78.5 28.5t-73.5 7v190q86 0 152 -20t114 -52.5
t80 -74t51 -84.5t27 -84.5t8 -73.5v-710z" />
    <glyph glyph-name="Delta" unicode="&#x2206;" horiz-adv-x="1104" 
d="M43 0l408 1460h200l410 -1460h-1018zM555 1194l-283 -1018h562z" />
    <glyph glyph-name="product" unicode="&#x220f;" horiz-adv-x="1147" 
d="M807 0v1233h-467v-1233h-193v1421h852v-1421h-192z" />
    <glyph glyph-name="summation" unicode="&#x2211;" horiz-adv-x="1141" 
d="M408 1290l485 -485v-139l-494 -496h607v-170h-871v147l582 588l-582 578v147h871v-170h-598z" />
    <glyph glyph-name="minus" unicode="&#x2212;" horiz-adv-x="1151" 
d="M186 483v185h779v-185h-779z" />
    <glyph glyph-name="radical" unicode="&#x221a;" horiz-adv-x="1255" 
d="M348 651l234 -850l448 1622h201l-516 -1847h-266l-302 1075h201z" />
    <glyph glyph-name="infinity" unicode="&#x221e;" horiz-adv-x="1716" 
d="M858 399l-22 -34q-25 -39 -58.5 -74.5t-74.5 -62.5t-88.5 -42.5t-98.5 -15.5q-80 0 -147.5 30t-117 83.5t-77 127.5t-27.5 162t27.5 161.5t77 126.5t117 82.5t147.5 29.5q51 0 98.5 -15.5t88.5 -42t74.5 -61.5t58.5 -74l22 -35l23 33q27 39 60 74.5t73 62.5t86.5 42.5
t99.5 15.5q80 0 147.5 -29.5t117 -82.5t77 -126.5t27.5 -161.5t-27.5 -162t-77 -127.5t-117 -83.5t-147.5 -30q-51 0 -98.5 15.5t-88 42.5t-74.5 62.5t-58 74.5zM967 573l63 -96q35 -54 74.5 -86.5t89.5 -32.5q45 0 80 17t59 46t36.5 68.5t12.5 83.5q0 43 -12.5 81.5
t-36.5 67t-59 45.5t-80 17q-50 0 -89.5 -32t-74.5 -84zM522 784q-45 0 -80 -17t-59 -45.5t-36.5 -67t-12.5 -81.5q0 -44 12.5 -83.5t36.5 -68.5t59 -46t80 -17q50 0 88.5 32.5t75.5 86.5l66 96l-66 95q-37 52 -75.5 84t-88.5 32z" />
    <glyph glyph-name="integral" unicode="&#x222b;" horiz-adv-x="616" 
d="M373 -133q0 -78 -21.5 -133.5t-58.5 -90.5t-86.5 -51t-104.5 -16h-77v191h69q17 0 32.5 4t27.5 14.5t19 28t7 43.5v1251q0 72 18 130t55 98.5t93 62.5t131 22h115v-188h-131q-15 0 -30.5 -5t-28 -16.5t-21 -30.5t-8.5 -48v-1266z" />
    <glyph glyph-name="approxequal" unicode="&#x2248;" horiz-adv-x="1137" 
d="M156 341zM981 774q-51 -47 -88 -77t-67.5 -47t-58 -23t-58.5 -6q-39 0 -74.5 13.5t-70.5 30t-70.5 30.5t-75.5 14q-13 0 -25 -3t-26.5 -12t-33.5 -26t-46 -45l-131 108q48 49 84.5 79.5t66.5 47.5t57 23t58 6q39 0 74.5 -14t70 -31t70.5 -31t76 -14q11 0 22 3t25 12
t33.5 26t48.5 45zM981 494q-51 -47 -88 -77t-67.5 -47t-58 -23t-58.5 -6q-39 0 -74.5 13.5t-70.5 30t-70.5 30.5t-75.5 14q-13 0 -25 -3t-26.5 -12t-33.5 -26t-46 -45l-131 108q48 49 84.5 79.5t66.5 47.5t57 23t58 6q39 0 74.5 -14t70 -31t70.5 -31t76 -14q11 0 22 3t25 12
t33.5 26t48.5 45z" />
    <glyph glyph-name="notequal" unicode="&#x2260;" horiz-adv-x="1182" 
d="M578 342l-216 -469h-206l215 469h-172v186h260l63 131h-323v187h411l211 448h205l-207 -448h174v-187h-262l-63 -131h325v-186h-415z" />
    <glyph glyph-name="lessequal" unicode="&#x2264;" horiz-adv-x="1004" 
d="M588 252l-508 514l534 534h267l-535 -534l510 -514h-268zM121 0v186h782v-186h-782z" />
    <glyph glyph-name="greaterequal" unicode="&#x2265;" horiz-adv-x="1006" 
d="M410 252h-265l512 514l-77 77l-93.5 93.5l-101 101t-100 99.5t-90.5 90t-72 73h266l537 -534zM100 0v186h783v-186h-783z" />
    <glyph glyph-name="lozenge" unicode="&#x25ca;" horiz-adv-x="1104" 
d="M455 1460h192l322 -735l-322 -725h-192l-320 725zM551 203l225 522l-223 530l-225 -530z" />
    <glyph glyph-name="fi" unicode="&#xfb01;" horiz-adv-x="1231" 
d="M866 0v879h-463v-879h-194v879h-176v194h176v72q0 72 18 130t54.5 99.5t93 63.5t133.5 22h115v-192h-134q-14 0 -29.5 -4.5t-28 -16t-20.5 -30.5t-8 -48v-96h658v-1073h-195zM850 1212v258h225v-258h-225z" />
    <glyph glyph-name="fl" unicode="&#xfb02;" horiz-adv-x="1223" 
d="M848 879h-445v-879h-194v879h-176v194h176v72q0 72 18 130t55 99.5t93.5 63.5t132.5 22h117v-192h-133q-15 0 -30.5 -4.5t-28.5 -16t-21.5 -30.5t-8.5 -48v-96h445v387h192v-1179q0 -26 7 -42.5t18.5 -27t27 -14.5t33.5 -4h72v-193h-80q-57 0 -106 16t-85.5 51
t-57.5 89.5t-21 132.5v590z" />
    <glyph glyph-name=".ttfautohint" horiz-adv-x="1151" 
d="M0 0z" />
    </font>
</defs>
</svg>
