<svg xmlns="http://www.w3.org/2000/svg" width="25.031" height="22" viewBox="0 0 25.031 22"><path d="M8.115,14.667H21.364a.731.731,0,0,0,.7-.532L25,3.868a.732.732,0,0,0-.7-.935H6.423L5.9.574A.733.733,0,0,0,5.182,0H.733a.733.733,0,0,0,0,1.467h3.86L7.242,13.383A2.2,2.2,0,0,0,8.115,17.6H21.364a.733.733,0,0,0,0-1.467H8.115a.733.733,0,0,1,0-1.467Zm0,0" fill="#403838"/><path d="M151,362.2a2.2,2.2,0,1,0,2.2-2.2A2.2,2.2,0,0,0,151,362.2Zm0,0" transform="translate(-143.618 -342.404)" fill="#403838"/><path d="M362,362.2a2.2,2.2,0,1,0,2.2-2.2A2.2,2.2,0,0,0,362,362.2Zm0,0" transform="translate(-344.306 -342.404)" fill="#403838"/></svg>